<svg id="Capa_1" enable-background="new 0 0 512 512" height="512" viewBox="0 0 512 512" width="512" xmlns="http://www.w3.org/2000/svg"><g><g opacity=".99"><g><path d="m478.33 129.02c0 109.01-88.37 197.38-197.38 197.38h-49.89c-108.34 0-196.42-87.32-197.37-195.65l-.02-1.73c44.11-77.08 127.16-129.02 222.33-129.02s178.22 51.94 222.33 129.02z" fill="#fea613"/></g><path d="m512 256c0 141.38-114.62 256-256 256-41.06 0-79.86-9.67-114.25-26.85l-14.7-32.91h-35.45c-56-46.96-91.6-117.44-91.6-196.24 0-46.2 12.24-89.55 33.67-126.97 22.69 39.63 55.66 72.6 95.28 95.28 24.53 14.06 51.61 24.17 80.37 29.45 15.14 2.8 30.74 4.26 46.68 4.26 46.24 0 89.62-12.26 127.06-33.71 39.62-22.69 72.59-55.67 95.27-95.29 21.42 37.42 33.67 80.77 33.67 126.98z" fill="#fb8801"/></g><g opacity=".99"><g><g><path d="m323.025 109.453-78.857 78.857-75.03-43.15-2.172-34.052c47.793-47.793 116.312-62.247 176.628-43.353-11.716 11.717-18.568 26.446-20.569 41.698z" fill="#eaf6ff"/><path d="m165.319 267.159c-15.252 2.001-29.981 8.853-41.698 20.57l-.007.007c-18.887-60.323-4.441-128.835 43.353-176.628l77.202 77.202z" fill="#d8ecfe"/></g><path d="m459.73 286.195-58.838 58.838-115.362-59.858-83.597-139.101c32.902-32.902 78.651-45.106 121.092-36.621-2.828 21.524 4.031 44.067 20.57 60.606z" fill="#d8ecfe"/><path d="m400.892 345.033-58.831 58.831-116.136-116.135c-16.539-16.539-39.082-23.398-60.606-20.57-8.492-42.433 3.719-88.19 36.614-121.085z" fill="#c7e4f9"/></g><path d="m319.816 267.307-24.933 23.009-191.71 171.106c-3.924-2.934-7.799-5.989-11.597-9.178l306.347-306.347 10.387 10.387z" fill="#662d2d"/><path d="m242.077 371.251-126.692 98.733c-4.137-2.722-8.21-5.579-12.212-8.563l305.138-305.138 10.387 10.387-112.72 130.567z" fill="#56201c"/><path d="m439.48 187.453-297.72 297.72c-9.023-4.497-17.833-9.56-26.375-15.189l303.313-303.313z" fill="#3f120c"/><path d="m287.21 370.199h-.014c-8.683-2.758-13.492-12.021-10.734-20.704l56.859-179.443c2.751-8.69 12.028-13.499 20.711-10.741l-20.444 105.936z" fill="#c4573a"/><path d="m287.21 370.199 66.822-210.887.007-.007.021.007c8.676 2.751 13.478 12.021 10.727 20.697l-56.866 179.449c-2.75 8.69-12.027 13.499-20.711 10.741z" fill="#a74b30"/><path d="m426.065 231.345-109.309 45.61-101.578 21.212c-2.758-8.683 2.051-17.96 10.741-20.711l179.436-56.851c8.682-2.759 17.959 2.049 20.71 10.74z" fill="#c4573a"/><path d="m421.992 248.004c-1.81 1.81-4.059 3.224-6.668 4.052l-179.435 56.851c-8.683 2.758-17.961-2.051-20.711-10.741l210.888-66.822c1.93 6.075.148 12.439-4.074 16.66z" fill="#a74b30"/></g></g></svg>