<?xml version="1.0" encoding="UTF-8" standalone="no"?>
<!-- Created with Inkscape (http://www.inkscape.org/) -->
<svg xmlns="http://www.w3.org/2000/svg" xmlns:svg="http://www.w3.org/2000/svg" version="1.1" id="svg2382" width="682.66669" height="682.66669" viewBox="0 0 682.66669 682.66669">
  <defs id="defs2386">
    <clipPath clipPathUnits="userSpaceOnUse" id="clipPath2396">
      <path d="M 0,512 H 512 V 0 H 0 Z" id="path2394"/>
    </clipPath>
  </defs>
  <mask id="custom"><rect id="bg" x="0" y="0" width="100%" height="100%" fill="white"/><g transform="matrix(1.3333333,0,0,-1.3333333,0,682.66667)"/></mask><g mask="url(#custom)"><g id="g2388" transform="matrix(1.3333333,0,0,-1.3333333,0,682.66667)">
    <g id="g2390">
      <g id="g2392" clip-path="url(#clipPath2396)">
        <g id="g2398" transform="translate(256,61)">
          <path d="M 0,0 V 0 C -66.274,0 -120,53.726 -120,120 V 263.833 C -120,292.092 -97.092,315 -68.833,315 H 68.833 C 97.092,315 120,292.092 120,263.833 V 120 C 120,53.726 66.274,0 0,0 Z" style="fill:none;stroke:#000000;stroke-width:30;stroke-linecap:butt;stroke-linejoin:miter;stroke-miterlimit:10;stroke-dasharray:none;stroke-opacity:1" id="path2400"/>
        </g>
        <g id="g2402" transform="translate(331,376)">
          <path d="M 0,0 H -150 V 15.667 C -150,40.151 -130.151,60 -105.667,60 h 61.334 C -19.849,60 0,40.151 0,15.667 Z" style="fill:none;stroke:#000000;stroke-width:30;stroke-linecap:butt;stroke-linejoin:miter;stroke-miterlimit:10;stroke-dasharray:none;stroke-opacity:1" id="path2404"/>
        </g>
        <g id="g2406" transform="translate(256,61)">
          <path d="m 0,0 v 167.237 c 0,24.43 -18.191,45.036 -42.433,48.067 L -120,225" style="fill:none;stroke:#000000;stroke-width:30;stroke-linecap:butt;stroke-linejoin:miter;stroke-miterlimit:10;stroke-dasharray:none;stroke-opacity:1" id="path2408"/>
        </g>
        <g id="g2410" transform="translate(256,61)">
          <path d="m 0,0 v 167.237 c 0,24.43 18.191,45.036 42.433,48.067 L 120,225" style="fill:none;stroke:#000000;stroke-width:30;stroke-linecap:butt;stroke-linejoin:miter;stroke-miterlimit:10;stroke-dasharray:none;stroke-opacity:1" id="path2412"/>
        </g>
        <g id="g2414" transform="translate(16,151)">
          <path d="M 0,0 V 7.667 C 0,53.139 36.861,90 82.333,90 H 120" style="fill:none;stroke:#000000;stroke-width:30;stroke-linecap:butt;stroke-linejoin:miter;stroke-miterlimit:10;stroke-dasharray:none;stroke-opacity:1" id="path2416"/>
        </g>
        <g id="g2418" transform="translate(346,496)">
          <path d="m 0,0 v 0 c 57.99,0 105,-47.01 105,-105 v -39.333 C 105,-172.316 82.315,-195 54.333,-195 H 30" style="fill:none;stroke:#000000;stroke-width:30;stroke-linecap:butt;stroke-linejoin:miter;stroke-miterlimit:10;stroke-dasharray:none;stroke-opacity:1" id="path2420"/>
        </g>
        <g id="g2422" transform="translate(376,181)">
          <path d="M 0,0 V 0 C 33.137,0 60,-22.73 60,-50.77 V -88.846 C 60,-130.904 19.705,-165 -30,-165" style="fill:none;stroke:#000000;stroke-width:30;stroke-linecap:butt;stroke-linejoin:miter;stroke-miterlimit:10;stroke-dasharray:none;stroke-opacity:1" id="path2424"/>
        </g>
        <g id="g2426" transform="translate(496,151)">
          <path d="M 0,0 V 7.667 C 0,53.139 -36.862,90 -82.333,90 H -120" style="fill:none;stroke:#000000;stroke-width:30;stroke-linecap:butt;stroke-linejoin:miter;stroke-miterlimit:10;stroke-dasharray:none;stroke-opacity:1" id="path2428"/>
        </g>
        <g id="g2430" transform="translate(166,496)">
          <path d="m 0,0 v 0 c -57.99,0 -105,-47.01 -105,-105 v -39.333 C -105,-172.316 -82.316,-195 -54.333,-195 H -30" style="fill:none;stroke:#000000;stroke-width:30;stroke-linecap:butt;stroke-linejoin:miter;stroke-miterlimit:10;stroke-dasharray:none;stroke-opacity:1" id="path2432"/>
        </g>
        <g id="g2434" transform="translate(136,181)">
          <path d="M 0,0 V 0 C -33.137,0 -60,-22.73 -60,-50.77 V -88.846 C -60,-130.904 -19.706,-165 30,-165" style="fill:none;stroke:#000000;stroke-width:30;stroke-linecap:butt;stroke-linejoin:miter;stroke-miterlimit:10;stroke-dasharray:none;stroke-opacity:1" id="path2436"/>
        </g>
        <g id="g2438" transform="translate(376,436)">
          <path d="M 0,0 V 0 C 0,-33.137 -26.863,-60 -60,-60" style="fill:none;stroke:#000000;stroke-width:30;stroke-linecap:butt;stroke-linejoin:miter;stroke-miterlimit:10;stroke-dasharray:none;stroke-opacity:1" id="path2440"/>
        </g>
        <g id="g2442" transform="translate(136,436)">
          <path d="M 0,0 V 0 C 0,-33.137 26.863,-60 60,-60" style="fill:none;stroke:#000000;stroke-width:30;stroke-linecap:butt;stroke-linejoin:miter;stroke-miterlimit:10;stroke-dasharray:none;stroke-opacity:1" id="path2444"/>
        </g>
        <g id="g2446" transform="translate(226,436)">
          <path d="M 0,0 -15,60" style="fill:none;stroke:#000000;stroke-width:30;stroke-linecap:butt;stroke-linejoin:miter;stroke-miterlimit:10;stroke-dasharray:none;stroke-opacity:1" id="path2448"/>
        </g>
        <g id="g2450" transform="translate(286,436)">
          <path d="M 0,0 15,60" style="fill:none;stroke:#000000;stroke-width:30;stroke-linecap:butt;stroke-linejoin:miter;stroke-miterlimit:10;stroke-dasharray:none;stroke-opacity:1" id="path2452"/>
        </g>
      </g>
    </g>
  </g></g>
</svg>
