<svg id="Capa_1" enable-background="new 0 0 512 512" height="512" viewBox="0 0 512 512" width="512" xmlns="http://www.w3.org/2000/svg"><g><g opacity=".99"><g><path d="m478.33 129.02c0 109.01-88.37 197.38-197.38 197.38h-49.89c-108.34 0-196.42-87.32-197.37-195.65l-.02-1.73c44.11-77.08 127.16-129.02 222.33-129.02s178.22 51.94 222.33 129.02z" fill="#fea613"/></g><path d="m512 256c0 52.31-15.7 100.97-42.64 141.5h-62.8v65.56c-42.25 30.78-94.29 48.94-150.56 48.94s-108.3-18.16-150.54-48.94v-65.55h-62.82c-26.94-40.54-42.64-89.19-42.64-141.51 0-46.2 12.24-89.55 33.67-126.97 2.91 5.08 5.98 10.04 9.23 14.89 22.02 33.02 51.51 60.62 86.05 80.39 6.77 3.88 13.74 7.46 20.88 10.72 18.73 8.55 38.67 14.91 59.49 18.73 15.14 2.8 30.74 4.26 46.68 4.26 37.88 0 73.83-8.23 106.18-22.99 7.14-3.26 14.11-6.84 20.88-10.72 34.54-19.78 64.03-47.38 86.05-80.39 3.24-4.85 6.31-9.82 9.22-14.9 21.42 37.42 33.67 80.77 33.67 126.98z" fill="#fb8801"/></g><g opacity=".99"><path d="m256 235.03 52.619 127.796-52.619 120.694-150.54-20.46c-11.6-8.43-22.45-17.83-32.46-28.06l17.4-199.97z" fill="#56201c"/><path d="m439 435c-9.99 10.23-20.85 19.62-32.44 28.06l-150.56 20.46v-248.49h167.52z" fill="#3f120c"/><path d="m444.81 227.87h24.549v31.27h-24.549z" fill="#8c3d27"/><path d="m283.86 414.76-27.86 39.77c-22.85-21.02-62.1-34.89-106.68-34.89-28.62 0-55.03 5.71-76.32 15.36-5.87-5.99-11.44-12.27-16.7-18.81l16.33-41.21h157.09z" fill="#a74b30"/><path d="m455.69 370.94v45.24c-5.24 6.54-10.81 12.83-16.69 18.82-21.29-9.65-47.7-15.36-76.32-15.36-44.58 0-83.83 13.87-106.68 34.89v-27.86l15.26-56.01 91.42-19.17z" fill="#8c3d27"/><path d="m443.148 161.06h26.212v31.28h-26.212z" fill="#8c3d27"/><path d="m446.011 349.93-1.201-31.27h24.55v31.27z" fill="#8c3d27"/><path d="m42.64 336.06h21.288v31.28h-21.288z" fill="#a74b30"/><path d="m42.64 245.26h19.217v31.28h-19.217z" fill="#a74b30"/><path d="m42.64 178.46h25.054v31.27h-25.054z" fill="#a74b30"/><path d="m256 144.15 61.567 124.39-61.567 158.13c-12.38-11.39-29.56-20.67-49.8-26.78l-21.73-21.74-14.62 14.62c-6.69-.65-13.54-.99-20.53-.99-36.67 0-69.72 9.38-93.02 24.41-4.82-6.01-9.39-12.24-13.66-18.68v-30.17l15.64-15.65-15.64-15.63v-59.52l15.64-15.64-15.64-15.64v-35.53l15.64-15.64-15.64-15.63v-34.31c.09-.08.17-.16.26-.23 12.62-11.53 30.18-20.88 50.84-26.94l8.5 8.5 13.51-13.51c10.69-1.77 21.95-2.71 33.57-2.71 44.58 0 83.83 13.87 106.68 34.89z" fill="#c4573a"/><path d="m469.36 161.06-15.63 15.64 15.63 15.64v35.53l-15.63 15.64 15.63 15.63v59.52l-15.63 15.64 15.63 15.63v47.57c-1.71 2.57-3.46 5.11-5.26 7.61-1.29 1.8-2.6 3.59-3.94 5.35-1.46 1.93-2.95 3.83-4.47 5.72-23.3-15.03-56.35-24.4-93.01-24.4-44.58 0-83.82 13.86-106.68 34.89v-282.52c22.86-21.02 62.1-34.89 106.68-34.89 8.08 0 15.98.46 23.65 1.34l13.86 13.87 9.73-9.74c24.28 5.89 44.9 16.15 59.19 29.19.09.08.17.15.25.23z" fill="#a74b30"/><g fill="#a74b30"><path d="m75.898 153.157v29.767l29.766 29.767v-29.767-29.767z"/><path d="m75.898 212.691h29.767v29.767h-29.767z"/><path d="m75.898 301.991h29.766l-29.766-29.767z"/><ellipse cx="90.401" cy="343.337" rx="14.503" ry="14.503" transform="matrix(.973 -.23 .23 .973 -76.464 29.954)"/></g><g fill="#8c3d27"><path d="m293.736 357.841v-29.767l29.767-29.767v29.767 29.767z"/><path d="m293.736 268.54h29.767v29.767h-29.767z"/><path d="m293.736 209.007h29.767l-29.767 29.766z"/><ellipse cx="308.239" cy="167.66" rx="14.503" ry="14.503" transform="matrix(.23 -.973 .973 .23 74.246 429.134)"/></g><path d="m120.186 161.06h93.104v20.468h-93.104z" fill="#a74b30"/><path d="m120.186 201.997h93.104v20.468h-93.104z" fill="#a74b30"/><path d="m120.186 242.933h93.104v20.468h-93.104z" fill="#a74b30"/><path d="m120.186 283.87h93.104v20.468h-93.104z" fill="#a74b30"/><path d="m120.186 324.807h93.104v20.468h-93.104z" fill="#a74b30"/><g fill="#8c3d27"><path d="m338.523 161.06h93.104v20.468h-93.104z"/><path d="m338.523 201.997h93.104v20.468h-93.104z"/><path d="m338.523 242.933h93.104v20.468h-93.104z"/><path d="m338.523 283.87h93.104v20.468h-93.104z"/><path d="m338.523 324.807h93.104v20.468h-93.104z"/></g></g></g></svg>