<svg id="Capa_1" enable-background="new 0 0 512 512" height="512" viewBox="0 0 512 512" width="512" xmlns="http://www.w3.org/2000/svg"><g><g><path d="m256 301.289c-141.387 0-244.405-132.522-224.041-169.249 43.66-78.742 127.625-132.04 224.041-132.04 96.403 0 180.359 53.284 224.023 132.008 20.375 36.734-82.636 169.281-224.023 169.281z" fill="#f85e95"/><path d="m512 256c0 26.051-3.891 51.191-11.129 74.871-5.031 16.469-11.672 32.231-19.75 47.109-8.25 15.2-147.391 60.595-225.121 60.595s-216.871-45.395-225.109-60.595c-3.289-6.031-6.332-12.21-9.121-18.531-14-31.629-21.77-66.629-21.77-103.449 0-46.219 12.25-89.57 33.68-127 44.121 77.07 127.16 129 222.32 129s178.211-51.93 222.32-129c21.43 37.43 33.68 80.781 33.68 127zm0 0" fill="#e02a73"/><path d="m481.262 377.699c-7.16 13.223-15.434 25.742-24.723 37.43-8.437 10.633-17.719 20.57-27.719 29.723-45.539 41.699-106.211 67.148-172.82 67.148-24.923 0-49.014-3.563-71.793-10.207-10.188-2.972-17.161-24.071-26.781-28.232-13.118-5.674-28.621 5.096-40.493-2.601-7.99-5.18-15.673-10.794-23.016-16.808-3.665-3.002-7.355-25.223-10.846-28.42-7.816-7.154-15.084 4.333-21.962-3.736-1.922-2.255-3.805-4.545-5.648-6.867-9.289-11.688-17.563-24.207-24.723-37.43zm0 0" fill="#a10956"/></g><g><path d="m291.528 353.454 95.746-95.746h24.531c22.199 0 40.195-17.996 40.195-40.195s-17.996-40.195-40.195-40.195h-17.227s-16.241-16.241-16.241-16.241l-107.111 107.11-16.241 48.724h36.543z" fill="#ffdf66"/><path d="m394.578 160.091c0-22.199-17.996-40.195-40.195-40.195s-40.195 17.996-40.195 40.195v24.531l-95.745 95.745h36.543v36.543l139.593-139.593v-17.226z" fill="#fff5b2"/><path d="m275.287 333.152h-36.543l-16.241-16.241-121.323 121.322 16.241 16.241v16.804c20.459 13.197 42.922 23.549 66.83 30.516 8.314-7.364 13.561-18.113 13.561-30.093v-24.531l77.474-77.474z" fill="#ffdf66"/><path d="m124.726 374.083h-24.531c-22.199 0-40.195 17.996-40.195 40.196 0 2.442.23 4.83.647 7.152 10.001 11.798 21.043 22.686 32.999 32.504 2.132.35 4.318.54 6.549.54h17.227l121.322-121.322v-36.543h-36.543z" fill="#fff5b2"/></g><g fill="#fff"><path d="m101.18 267.056h-1.524c-6.754 0-12.226-5.472-12.226-12.226v-1.524h-8.715v1.524c0 6.754-5.477 12.226-12.231 12.226h-1.523v8.715h1.523c6.754 0 12.231 5.477 12.231 12.227v1.527h8.715v-1.527c0-6.75 5.472-12.227 12.226-12.227h1.524zm0 0"/><path d="m124.047 148.646h-1.524c-6.754 0-12.226-5.472-12.226-12.226v-1.524h-8.715v1.524c0 6.754-5.477 12.226-12.231 12.226h-1.523v8.715h1.523c6.754 0 12.231 5.477 12.231 12.227v1.527h8.715v-1.527c0-6.75 5.472-12.227 12.226-12.227h1.524zm0 0"/><path d="m236.551 170.499h-1.524c-6.754 0-12.226-5.472-12.226-12.226v-1.524h-8.715v1.524c0 6.754-5.477 12.226-12.231 12.226h-1.523v8.715h1.523c6.754 0 12.231 5.477 12.231 12.227v1.527h8.715v-1.527c0-6.75 5.472-12.227 12.226-12.227h1.524zm0 0"/><path d="m268.867 65.926h-1.524c-6.754 0-12.226-5.472-12.226-12.226v-1.524h-8.715v1.524c0 6.754-5.477 12.226-12.231 12.226h-1.523v8.715h1.523c6.754 0 12.231 5.477 12.231 12.227v1.527h8.715v-1.527c0-6.75 5.472-12.227 12.226-12.227h1.524zm0 0"/></g></g></svg>