<svg id="Capa_1" enable-background="new 0 0 512 512" height="512" viewBox="0 0 512 512" width="512" xmlns="http://www.w3.org/2000/svg"><g><g opacity=".99"><g><path d="m478.33 129.02c0 109.01-88.37 197.38-197.38 197.38h-49.89c-108.34 0-196.42-87.32-197.37-195.65l-.02-1.73c44.11-77.08 127.16-129.02 222.33-129.02s178.22 51.94 222.33 129.02z" fill="#27a6fe"/></g><path d="m512 256c0 12.76-.94 25.3-2.74 37.56l-56.5 116.66-188.95 75.37-199.23-59.61c-40.17-45.21-64.58-104.75-64.58-169.98 0-46.2 12.24-89.55 33.67-126.97 22.69 39.63 55.66 72.6 95.28 95.28 24.53 14.06 51.61 24.17 80.37 29.45 15.14 2.8 30.74 4.26 46.68 4.26 46.24 0 89.62-12.26 127.06-33.71 39.62-22.69 72.59-55.67 95.27-95.29 21.42 37.42 33.67 80.77 33.67 126.98z" fill="#0693fb"/><path d="m509.26 293.56c-1.34 9.18-3.18 18.2-5.48 27.04-2.44 9.37-5.39 18.54-8.84 27.46-1.33 3.45-2.73 6.87-4.2 10.25l-91.89 81.17-42.79 12.2-99.7-25.7c0-18.64 15.11-33.75 33.75-33.75 4.63 0 9.05.94 13.07 2.63-.14-1.6-.22-3.21-.22-4.85 0-30.3 24.56-54.86 54.86-54.86s54.87 24.56 54.87 54.86c0 .84-.03 1.68-.07 2.51.05 0 .09-.01.13-.01-.04-.83-.06-1.66-.06-2.5 0-30.3 24.56-54.86 54.86-54.86 4.9 0 9.64.65 14.16 1.85 1.43-18.63 12.15-34.65 27.55-43.44z" fill="#fff3de"/><path d="m475.95 356.18c5.14 0 10.1.74 14.79 2.13-18.61 42.62-48.48 79.2-85.85 105.96l-131.07-38.29c5.59-11.32 17.25-19.11 30.74-19.11 3.84 0 7.53.64 10.98 1.81-.15-1.44-.22-2.89-.22-4.36 0-23.69 19.2-42.89 42.89-42.89 22.4 0 40.78 17.17 42.72 39.06 3.79-1.45 7.91-2.25 12.22-2.25 3.86 0 7.58.64 11.04 1.83 4.1-24.9 25.71-43.89 51.76-43.89z" fill="#ffe5c2"/></g><g opacity=".99"><g><path d="m171.37 60.386 9.037-8.504-9.037-11.693c-19.551 0-35.402 15.851-35.402 35.401v174.02h35.402l26.342-90.93-26.342-71.266c-7.426-.059-13.417-6.083-13.417-13.509 0-7.435 5.991-13.46 13.417-13.519z" fill="#fb2b3a"/><path d="m206.771 75.591v174.02h-35.401v-162.197h.101c7.46 0 13.518-6.05 13.518-13.509 0-7.468-6.058-13.518-13.518-13.518h-.101v-20.198c19.551 0 35.401 15.851 35.401 35.402z" fill="#e41f2d"/><g><path d="m171.37 189.616 28.759 24.317-28.759 53.963-115.141-29.646c0-13.426 5.446-25.592 14.248-34.386 8.802-8.802 20.952-14.248 34.386-14.248z" fill="#fd4755"/><path d="m286.519 238.25-115.149 29.646v-78.28h66.515c26.86 0 48.634 21.774 48.634 48.634z" fill="#fb2b3a"/></g></g><path d="m171.37 238.25 24.409 24.312-24.409 24.313h-115.141v-48.625z" fill="#fff"/><path d="m171.37 238.25h115.149v48.626h-115.149z" fill="#d8ecfe"/><g><path d="m171.37 238.25 24.409 24.312-24.409 56.075-115.141-31.762v-48.625z" fill="#fff"/><path d="m286.519 238.25v48.625l-115.149 31.762v-80.387z" fill="#d8ecfe"/></g><g><path d="m222.36 350.05-32.92 53.88h-115.15c-11.93-29.05-18.06-60.15-18.06-91.55v-25.5h115.14z" fill="#fea613"/><g fill="#fb8801"><path d="m129.47 403.93h-16.27c-11.3-27.78-17.61-57.4-18.09-87.48-.02-1.36-.03-2.71-.03-4.07h15c0 1.27.01 2.54.03 3.81.48 30.27 7.25 60.06 19.36 87.74z"/><path d="m304.585 403.929h-43.172l-16.035-16.035-16.035 16.035h-39.907c-11.932-29.049-18.066-60.146-18.066-91.545v-25.509h115.149v25.509c0 31.399 6.134 62.496 18.066 91.545z"/></g></g></g><g opacity=".99"><path d="m256.36 425.98 50.345 46.557-50.345 39.463h-.36c-76.15 0-144.53-33.25-191.42-86.02z" fill="#56201c"/><path d="m447.42 425.98c-46.82 52.69-115.05 85.91-191.06 86.02v-86.02z" fill="#3f120c"/></g><g fill="#ffe5c2"><ellipse cx="375.372" cy="275.418" opacity=".99" rx="23.482" ry="23.482" transform="matrix(.23 -.973 .973 .23 21.08 577.471)"/><ellipse cx="442.222" cy="301.926" opacity=".99" rx="12.741" ry="12.741" transform="matrix(.23 -.973 .973 .23 46.771 662.949)"/></g></g></svg>