<svg id="Capa_1" enable-background="new 0 0 512 512" height="512" viewBox="0 0 512 512" width="512" xmlns="http://www.w3.org/2000/svg"><g><g opacity=".99"><g><path d="m478.33 129.02c0 109.01-88.37 197.38-197.38 197.38h-49.89c-108.34 0-196.42-87.32-197.37-195.65l-.02-1.73c44.11-77.08 127.16-129.02 222.33-129.02s178.22 51.94 222.33 129.02z" fill="#27a6fe"/></g><path d="m512 256c0 62.02-22.06 118.89-58.76 163.18l-375.2 20.85c-48.12-46.55-78.04-111.8-78.04-184.03 0-46.2 12.24-89.55 33.67-126.97 22.69 39.63 55.66 72.6 95.28 95.28 24.53 14.06 51.61 24.17 80.37 29.45 15.14 2.8 30.74 4.26 46.68 4.26 46.24 0 89.62-12.26 127.06-33.71 39.62-22.69 72.59-55.67 95.27-95.29 21.42 37.42 33.67 80.77 33.67 126.98z" fill="#0693fb"/></g><g><g><path d="m256 238.38 15.071 39.694-15.071 31.356h-39.82v-71.05z" fill="#fea613"/><path d="m256 238.38h39.82v71.05h-39.82z" fill="#fb8801"/><g><path d="m256 42.64 18.18 28.59-18.18 49.33h-37.33v-40.59c0-20.62 16.72-37.33 37.33-37.33z" fill="#fea613"/><path d="m293.33 79.97v40.59h-37.33v-77.92c20.62 0 37.33 16.71 37.33 37.33z" fill="#fb8801"/><path d="m256 71.23 13.662 41.836-13.662 39.344h-48.11v-33.06c0-26.58 21.54-48.12 48.11-48.12z" fill="#fb8801"/><path d="m304.11 119.35v33.06h-48.11v-81.18c13.28 0 25.31 5.39 34.02 14.1 8.71 8.7 14.09 20.73 14.09 34.02z" fill="#ed6407"/><g><path d="m256 87.39 35.629 56.321-35.629 62.199h-79.65v-38.87c0-43.99 35.66-79.65 79.65-79.65z" fill="#fea613"/><path d="m335.65 167.04v38.87h-79.65v-118.52c22 0 41.91 8.91 56.32 23.33 14.42 14.41 23.33 34.32 23.33 56.32z" fill="#fb8801"/><g><path d="m256 153.56 30.55 60.316-30.55 66.364c-9.37 0-18.74-2.45-27.1-7.36-20.87-12.24-34-27.72-34-57.96v-44.1c0-11.53 3.2-22.32 8.76-31.53 14.66-24.28 52.06-14.1 52.34 14.27z" fill="#fcc015"/><g fill="#fea613"><path d="m317.1 170.82v44.1c0 30.24-13.13 45.72-34 57.96-8.36 4.91-17.73 7.36-27.1 7.36v-126.68c.28-28.37 37.68-38.55 52.34-14.27 5.56 9.21 8.76 20 8.76 31.53z"/><path d="m248.97 169.46h7.03l4.456 29.362-4.456 25.108h-7.03z"/><path d="m263.03 169.46h.01v54.47h-.01z"/></g><path d="m271.071 169.458h29.056v14.072h-29.056z" fill="#fb8801"/><path d="m211.873 169.458h29.056v14.072h-29.056z" fill="#fea613"/><path d="m256 240.75 9.09 7.594-9.09 6.476h-18.18v-14.07z" fill="#fea613"/><g><path d="m226.401 188.636c-8.337 0-15.096 6.758-15.096 15.096h30.191c0-8.338-6.758-15.096-15.095-15.096z" fill="#fea613"/><path d="m285.599 189.623c-8.337 0-15.096 6.758-15.096 15.096h30.191c0-8.338-6.758-15.096-15.095-15.096z" fill="#fb8801"/></g><path d="m256 169.46h7.03v54.47h-7.03z" fill="#fb8801"/><path d="m256 223.93h7.03v.01h-7.03z" fill="#fb8801"/><path d="m256 240.75h18.18v14.07h-18.18z" fill="#fb8801"/></g><g><path d="m187.484 163.38c-3.311-3.311-7.801-5.171-12.483-5.171-9.75 0-17.654 7.904-17.654 17.654 0 17.207 6.836 33.71 19.003 45.877v35.908c0 6.569 5.325 11.895 11.895 11.895 6.569 0 11.895-5.325 11.895-11.895v-63.718c-.002-11.458-4.554-22.448-12.656-30.55z" fill="#fcc015"/><path d="m324.516 163.38c3.311-3.311 7.801-5.171 12.483-5.171 9.75 0 17.654 7.904 17.654 17.654 0 17.207-6.836 33.71-19.003 45.877v35.908c0 6.569-5.326 11.895-11.895 11.895-6.569 0-11.895-5.325-11.895-11.895v-63.718c.002-11.458 4.554-22.448 12.656-30.55z" fill="#fea613"/></g></g></g><g><g fill="#fcc015"><ellipse cx="183.151" cy="146.651" rx="8.913" ry="8.913" transform="matrix(.707 -.707 .707 .707 -50.054 172.46)"/><circle cx="198.973" cy="126.903" r="8.913"/><circle cx="231.084" cy="114.517" r="8.913"/><circle cx="208.726" cy="104.153" r="8.913"/><circle cx="242.335" cy="91.645" r="8.913"/></g><g fill="#fea613"><ellipse cx="328.846" cy="146.651" rx="8.913" ry="8.913" transform="matrix(.707 -.707 .707 .707 -7.381 275.483)"/><circle cx="313.358" cy="126.903" r="8.913"/><circle cx="280.914" cy="114.517" r="8.913"/><circle cx="303.271" cy="104.153" r="8.913"/><circle cx="269.662" cy="91.645" r="8.913"/></g></g><g><path d="m256 105.6 7.03 8.917-7.03 8.913c-4.92 0-8.92-3.99-8.92-8.91s4-8.92 8.92-8.92z" fill="#fcc015"/><path d="m264.91 114.52c0 4.92-3.99 8.91-8.91 8.91v-17.83c4.92 0 8.91 4 8.91 8.92z" fill="#fea613"/></g><path d="m187.607 194.391c0-6.954-2.762-13.623-7.68-18.541-1.549-1.55-3.615-2.354-5.67-2.354-1.825 0-3.641.634-5.08 1.944-2.327 2.118-3.042 5.296-2.144 8.066.553 1.705 2.755 2.177 4.023.909l.138-.137c.606-.606.772-1.495.516-2.312-.112-.359-.133-.681-.127-.902.01-.441.142-1.285.909-1.983.601-.547 1.293-.662 1.767-.662.812 0 1.609.332 2.189.912 3.224 3.224 5.283 7.3 5.975 11.719-1.384-.168-2.845.164-4.114 1.145-3.6 2.783-5.919 7.144-5.919 12.047 0 4.812 2.233 9.102 5.72 11.891 3.829 3.062 9.498.363 9.498-4.539v-11.501-5.702z" fill="#fea613"/><path d="m314.938 194.391c0-6.954 2.762-13.623 7.68-18.541 1.549-1.55 3.615-2.354 5.67-2.354 1.825 0 3.641.634 5.08 1.944 2.327 2.118 3.042 5.296 2.144 8.066-.553 1.705-2.755 2.177-4.023.909l-.137-.137c-.606-.606-.772-1.495-.516-2.312.112-.359.133-.681.127-.902-.01-.441-.142-1.285-.909-1.983-.601-.547-1.293-.662-1.767-.662-.812 0-1.609.332-2.189.912-3.224 3.224-5.283 7.3-5.975 11.719 1.384-.168 2.845.164 4.114 1.145 3.6 2.783 5.919 7.144 5.919 12.047 0 4.812-2.233 9.102-5.72 11.891-3.828 3.062-9.498.363-9.498-4.539v-11.501z" fill="#fb8801"/></g><path d="m256 293.58 53.322 113.567-53.322 104.853c-23.69 0-46.63-3.22-68.4-9.24l-9.06-10.47h-21.2c-29.68-12.4-56.52-30.24-79.3-52.26v-67.15c0-43.8 35.51-79.3 79.3-79.3z" fill="#fcc015"/><path d="m453.24 372.88v46.3c-21.78 26.31-48.73 48.19-79.3 64.08h-21.15l-9.11 13.32c-27.35 9.98-56.88 15.42-87.68 15.42v-218.42h117.94c43.79 0 79.3 35.5 79.3 79.3z" fill="#fea613"/><g><path d="m464.41 351.452-9.048-67.819c-4.996 0-9.047 4.05-9.047 9.047l-9.047-30.901c-4.996 0-9.047 4.05-9.047 9.047l-9.047-9.047c-4.997 0-9.047 4.05-9.047 9.047v21.82l-9.046-9.013c-4.996 0-9.048 4.051-9.048 9.048v32.692l-9.048-15.669c-.084-.054-.167-.098-.251-.148-3.943-2.195-8.797.66-8.797 5.169l.002 61.925c0 16.84 13.65 30.5 30.5 30.5l29.47-.003c16.845 0 30.501-13.656 30.501-30.501z" fill="#fcc015"/><g fill="#fea613"><g><path d="m464.41 292.681v58.771h-9.048v-67.819c2.496 0 4.76 1.014 6.4 2.648 1.634 1.64 2.648 3.904 2.648 6.4z"/><path d="m428.222 270.827v80.625h-9.048v-89.673c2.496 0 4.76 1.014 6.4 2.648 1.634 1.639 2.648 3.904 2.648 6.4z"/><path d="m446.316 270.827v80.625h-9.048v-89.673c2.496 0 4.76 1.014 6.4 2.648 1.634 1.639 2.648 3.904 2.648 6.4z"/></g><path d="m417.789 386.798v-17.015c0-6.138-3.028-11.557-7.659-14.884v-62.218c0-2.496-1.014-4.76-2.648-6.399-1.639-1.634-3.904-2.648-6.4-2.648v67.901c-.536-.047-1.076-.082-1.625-.082h-7.423v-26.079c0-6.695-3.638-12.543-9.048-15.669v50.795h15.798c5.499 0 9.957 4.458 9.957 9.957v16.341z"/></g></g><path d="m187.6 364.51v138.25c-10.36-2.87-20.46-6.37-30.26-10.47v-127.78z" fill="#fea613"/><path d="m373.94 364.51v118.75c-9.74 5.06-19.84 9.52-30.26 13.32v-132.07z" fill="#fb8801"/></g></g></svg>