<svg id="Capa_1" enable-background="new 0 0 512 512" height="512" viewBox="0 0 512 512" width="512" xmlns="http://www.w3.org/2000/svg"><circle cx="256" cy="256" fill="#ffc200" r="256"/><path d="m320.959 266.133-88.394-88.394 10.336 115.585-115.586-115.585-41.91 22.21 104.958 104.958-120.71 26.614 180.404 180.404c1.976.045 3.956.075 5.943.075 141.385 0 256-114.615 256-256 0-10.751-.672-21.344-1.959-31.747l-95.292-95.292z" fill="#ff9d00"/><path d="m126.992 232.432-18.717-30.965c-1.993-3.298-5.868-4.995-9.646-4.223l-13.223 2.705-6.012-29.392 13.223-2.705c16.174-3.308 32.789 3.962 41.332 18.095l18.717 30.965z" fill="#fff"/><circle cx="77.885" cy="316.594" fill="#707789" r="17.046"/><path d="m61.241 320.244c1.672 7.658 8.484 13.396 16.644 13.396 9.414 0 17.046-7.632 17.046-17.046 0-2.628-.612-5.108-1.675-7.331z" fill="#555a66"/><path d="m438.209 251.813-248.153 108.802c-42.94 18.827-92.793-3.134-107.884-47.525-15.091-44.39 11.048-92.186 56.565-103.431l263.049-64.986z" fill="#555a66"/><path d="m82.165 313.067c.003.008.005.015.007.023 15.091 44.391 64.944 66.352 107.884 47.525l248.153-108.803-18.53-54.506z" fill="#333940"/><path d="m395.72 132.107h41.798v134.57h-41.798z" fill="#707789" transform="matrix(.947 -.322 .322 .947 -42.007 144.708)"/><path d="m396.535 205.244 21.954 64.579 39.574-13.454-21.99-64.685z" fill="#555a66"/><path d="m214.154 180.362h41.798v161.51h-41.798z" fill="#333940" transform="matrix(.96 -.279 .279 .96 -63.577 76.043)"/><path d="m215.133 267.462 22.408 77.033 40.135-11.674-22.961-78.935z" fill="#060607"/><g fill="#afb4c8"><path d="m224.361 235.031h30v181.368h-30z"/><path d="m148.677 310.716h181.368v30h-181.368z"/><path d="m148.677 310.716h181.369v30h-181.369z" transform="matrix(.707 -.707 .707 .707 -160.208 264.652)"/><path d="m224.361 235.031h30v181.369h-30z" transform="matrix(.707 -.707 .707 .707 -160.208 264.654)"/></g><path d="m239.524 235.031h14.838v181.368h-14.838z" fill="#7e8596"/><path d="m239.524 310.716h90.522v30h-90.522z" fill="#7e8596"/><path d="m292.878 250.985-53.354 53.355v42.426l74.567-74.568z" fill="#7e8596"/><path d="m314.091 379.233-74.567-74.568v42.426l53.354 53.355z" fill="#7e8596"/><path d="m239.361 431.399c-58.274 0-105.684-47.41-105.684-105.684s47.41-105.684 105.684-105.684 105.684 47.41 105.684 105.684-47.409 105.684-105.684 105.684zm0-181.368c-41.732 0-75.684 33.952-75.684 75.684s33.952 75.684 75.684 75.684 75.684-33.952 75.684-75.684-33.951-75.684-75.684-75.684z" fill="#707789"/><path d="m345.045 325.715c0-58.22-47.322-105.594-105.522-105.682v30.002c41.658.088 75.522 34.002 75.522 75.68s-33.864 75.592-75.522 75.68v30.002c58.201-.088 105.522-47.462 105.522-105.682z" fill="#555a66"/><circle cx="239.361" cy="325.715" fill="#707789" r="24.161"/><path d="m263.522 325.715c0-13.289-10.73-24.069-23.999-24.157v48.314c13.269-.087 23.999-10.867 23.999-24.157z" fill="#555a66"/></svg>