<svg id="Capa_1" enable-background="new 0 0 512 512" height="512" viewBox="0 0 512 512" width="512" xmlns="http://www.w3.org/2000/svg"><g><g><path d="m478.33 129.02c0 109.01-88.37 197.38-197.38 197.38h-49.89c-108.34 0-196.42-87.32-197.37-195.65l-.02-1.73c44.11-77.08 127.16-129.02 222.33-129.02s178.22 51.94 222.33 129.02z" fill="#27a6fe"/></g><path d="m512 256c0 35.11-7.07 68.57-19.87 99.03l-236.13 129.84-236.13-129.84c-12.8-30.46-19.87-63.92-19.87-99.03 0-46.2 12.24-89.55 33.66-126.97h.01c16.42 28.67 38.21 53.86 64.02 74.18 9.86 7.77 20.3 14.83 31.26 21.1 24.53 14.06 51.61 24.17 80.37 29.45 15.14 2.8 30.74 4.26 46.68 4.26h.36c46.11-.06 89.36-12.32 126.7-33.71 10.95-6.27 21.4-13.33 31.25-21.11 25.81-20.32 47.61-45.51 64.02-74.18 21.42 37.42 33.67 80.77 33.67 126.98z" fill="#0693fb"/><g><path d="m306.705 472.537-50.345 39.463h-.36c-76.15 0-144.53-33.25-191.42-86.02l191.78-44.044z" fill="#a2e62e"/><path d="m447.42 425.98c-46.82 52.69-115.05 85.91-191.06 86.02v-130.064z" fill="#8bc618"/></g><g><path d="m256 63.75-127.06 333.5h-59.94l-43.13-28.99c-2.12-4.34-4.13-8.75-6-13.23.69-32.22 14.69-61.17 36.72-81.58 12.19-11.29 21.45-25.39 26.65-41.17 3.44-10.43 8.33-20.2 14.45-29.07 6.1-8.85 13.42-16.81 21.7-23.62 13.12-10.79 23.15-24.9 29.03-40.84 8.06-21.89 22.62-40.64 41.32-53.92 18.71-13.27 41.57-21.08 66.26-21.08z" fill="#d8ecfe"/><path d="m256.36 63.75 93.845 182.12-93.845 151.38h-127.42v-39.69c0-33.24 7.61-63.17 19.77-84.11 6.56-11.29 11.54-25.39 14.34-41.17 3.7-20.85 10.52-39.05 19.45-52.69 7.06-10.79 12.46-24.9 15.62-40.84 4.34-21.89 12.17-40.64 22.23-53.92 10.07-13.27 22.37-21.08 35.65-21.08z" fill="#c7e4f9"/><path d="m492.13 355.03c-1.87 4.48-3.88 8.89-6 13.23-4.91 10.05-10.46 19.73-16.6 28.99h-213.17v-333.5c49.22.15 91.13 31.33 107.22 75 5.88 15.94 15.91 30.05 29.03 40.84 8.28 6.81 15.59 14.76 21.7 23.61 6.11 8.87 11.01 18.64 14.45 29.08 5.2 15.78 14.46 29.88 26.65 41.17 22.03 20.41 36.03 49.36 36.72 81.58z" fill="#a4d3ea" opacity=".99"/><path d="m256.36 368.26 43.115 28.86-130.115 28.86h-104.78c-15.38-17.3-28.44-36.7-38.71-57.72z" fill="#a74b30" opacity=".99"/><path d="m486.13 368.26c-10.27 21.02-23.33 40.42-38.71 57.72h-104.78l-86.28-57.72z" fill="#8c3d27" opacity=".99"/><g><path d="m169.36 269.54v156.44h37.67l80.01-78.22-30.73-78.22z" fill="#c4573a" opacity=".99"/><path d="m342.64 269.54v156.44h-37.67l-48.66-48.66v-107.78z" fill="#a74b30" opacity=".99"/><path d="m256.31 308.14 18.766 58.92-18.766 58.92h-49.28v-117.84z" fill="#662d2d"/></g></g><path d="m256.31 308.14h48.66v117.84h-48.66z" fill="#56201c"/></g></svg>