<svg id="Capa_1" enable-background="new 0 0 512 512" height="512" viewBox="0 0 512 512" width="512" xmlns="http://www.w3.org/2000/svg"><g><g opacity=".99"><g><path d="m478.33 129.02c0 109.01-88.37 197.38-197.38 197.38h-49.89c-108.34 0-196.42-87.32-197.37-195.65l-.02-1.73c44.11-77.08 127.16-129.02 222.33-129.02s178.22 51.94 222.33 129.02z" fill="#27a6fe"/></g><path d="m512 256c0 62.14-22.15 119.11-58.97 163.45l-197.03 78.63-197.03-78.63c-36.82-44.34-58.97-101.31-58.97-163.45 0-46.2 12.24-89.55 33.67-126.97 22.69 39.63 55.66 72.6 95.28 95.28 24.53 14.06 51.61 24.17 80.37 29.45 15.14 2.8 30.74 4.26 46.68 4.26 46.24 0 89.62-12.26 127.06-33.71 39.62-22.69 72.59-55.67 95.27-95.29 21.42 37.42 33.67 80.77 33.67 126.98z" fill="#0693fb"/><g><path d="m256.32 162.515 21.696 47.158-21.696 45.032h-59.02v-92.19z" fill="#c7e4f9"/><path d="m256.32 162.515h58.38v92.19h-58.38z" fill="#a4d3ea" opacity=".99"/><path d="m256.32 201.485 13.958 26.61-13.958 26.61h-31.85v-53.22z" fill="#a4d3ea" opacity=".99"/><path d="m256.32 144.665 15.602 17.85-15.602 15.94h-70.01v-33.79z" fill="#eaf6ff"/><path d="m256.32 201.485h31.21v53.22h-31.21z" fill="#8ec6dd"/><path d="m256.32 144.665h69.37v33.79h-69.37z" fill="#d8ecfe"/></g><g><path d="m224.47 243.04 13.188 17.97-13.188 24.306h-65.64v-42.276z" fill="#eaf6ff"/><path d="m353.17 243.04v42.276h-65.64l-15.605-24.306 15.605-17.97z" fill="#d8ecfe"/><path d="m256.32 243.04 15.605 17.97-15.605 24.306h-31.85v-42.276z" fill="#c7e4f9"/><path d="m256.32 243.04h31.21v42.276h-31.21z" fill="#a4d3ea" opacity=".99"/></g><g><path d="m138.85 273.53h73.79l11.833 21.027-11.833 21.028h-73.79z" fill="#c7e4f9"/><path d="m256.32 273.53 13.958 21.027-13.958 21.028h-43.68v-42.055z" fill="#a4d3ea" opacity=".99"/><path d="m299.36 273.53 10.882 16.256-10.882 25.799h-43.04v-42.055z" fill="#8ec6dd"/><path d="m299.36 273.53h73.79v42.055h-73.79z" fill="#a4d3ea" opacity=".99"/></g><g><path d="m204.71 304.02 19.76 23.557-19.76 19.999h-85.83v-43.556z" fill="#eaf6ff"/><path d="m256.32 304.02 17.325 23.557-17.325 19.999h-51.61v-43.556z" fill="#c7e4f9"/><path d="m307.29 304.02 10.136 21.778-10.136 21.778h-50.97v-43.556z" fill="#a4d3ea" opacity=".99"/><path d="m307.29 304.02h85.83v43.556h-85.83z" fill="#d8ecfe"/></g><g><path d="m197.3 334.51 15.338 22.685-15.338 22.685h-98.39v-45.37z" fill="#c7e4f9"/><path d="m256.32 334.51 10.819 22.685-10.819 22.685h-59.02v-45.37z" fill="#a4d3ea" opacity=".99"/><path d="m314.7 334.51 10.99 22.685-10.99 22.685h-58.38v-45.37z" fill="#8ec6dd"/><path d="m314.7 334.51h98.39v45.37h-98.39z" fill="#a4d3ea" opacity=".99"/></g></g><g><path d="m256 49.67 6.635 15.508-6.635 13.042c-7.89 0-14.28-6.39-14.28-14.27 0-7.89 6.39-14.28 14.28-14.28z" fill="#fcc015"/><g fill="#fcc015"><path d="m256 16.67 2.31 9.856-2.31 7.844h-4.62v-17.7z"/><path d="m256 93.52 3.333 8.85-3.333 8.85h-4.62v-17.7z"/></g><g><path d="m274.323 32.149h17.699v9.249h-17.699z" fill="#fea613" transform="matrix(.707 -.707 .707 .707 56.919 210.981)"/><path d="m219.979 86.492h17.699v9.249h-17.699z" fill="#fcc015" transform="matrix(.707 -.707 .707 .707 2.598 188.506)"/></g><g><path d="m285.577 59.32h17.699v9.249h-17.699z" fill="#fea613"/><path d="m208.724 59.32h17.699v9.249h-17.699z" fill="#fcc015"/></g><g><path d="m278.547 82.267h9.25v17.699h-9.25z" fill="#fea613" transform="matrix(.707 -.707 .707 .707 18.51 226.922)"/><path d="m224.203 27.924h9.25v17.699h-9.25z" fill="#fcc015" transform="matrix(.707 -.707 .707 .707 41.022 172.58)"/></g></g><g><g><path d="m78.94 365h107.37l18.4 21.048-18.4 22.082h-107.37z" fill="#eaf6ff"/><path d="m179.92 395.49 17.383 12.64-17.383 17.85h-115.34c-1.91-2.14-3.78-4.32-5.61-6.53v-23.96z" fill="#c7e4f9"/></g><path d="m256.32 365 13.958 21.565-13.958 21.565h-70.01v-43.13z" fill="#c7e4f9"/><path d="m256.32 395.49 21.52 15.039-21.52 15.451h-76.4v-30.49z" fill="#a4d3ea" opacity=".99"/><path d="m325.69 365 13.288 21.565-13.288 21.565h-69.37v-43.13z" fill="#a4d3ea" opacity=".99"/><path d="m325.69 365h107.37v43.13h-107.37z" fill="#d8ecfe"/><path d="m332.08 395.49 12.61 15.245-12.61 15.245h-75.76v-30.49z" fill="#8ec6dd"/></g><g><path d="m256.36 425.98 50.345 46.557-50.345 39.463h-.36c-76.15 0-144.53-33.25-191.42-86.02z" fill="#a2e62e"/><path d="m447.42 425.98c-46.82 52.69-115.05 85.91-191.06 86.02v-86.02z" fill="#8bc618"/></g><g fill="#fea613"><path d="m270.28 63.95c0 7.88-6.39 14.27-14.28 14.27v-28.55c7.89 0 14.28 6.39 14.28 14.28z"/><path d="m256 16.67h4.62v17.7h-4.62z"/><path d="m256 93.52h4.62v17.7h-4.62z"/></g><path d="m453.03 395.49v23.96c-1.83 2.21-3.7 4.39-5.61 6.53h-115.34v-30.49z" fill="#a4d3ea" opacity=".99"/></g></svg>