<?xml version="1.0" encoding="UTF-8" standalone="no"?>
<!-- Created with Inkscape (http://www.inkscape.org/) -->
<svg xmlns="http://www.w3.org/2000/svg" xmlns:svg="http://www.w3.org/2000/svg" version="1.1" id="svg1107" width="682.66669" height="682.66669" viewBox="0 0 682.66669 682.66669">
  <defs id="defs1111">
    <clipPath clipPathUnits="userSpaceOnUse" id="clipPath1121">
      <path d="M 0,512 H 512 V 0 H 0 Z" id="path1119"/>
    </clipPath>
    <clipPath clipPathUnits="userSpaceOnUse" id="clipPath1135">
      <path d="M 0,512 H 512 V 0 H 0 Z" id="path1133"/>
    </clipPath>
  </defs>
  <mask id="custom"><rect id="bg" x="0" y="0" width="100%" height="100%" fill="white"/><g transform="matrix(1.3333333,0,0,-1.3333333,0,682.66667)"/></mask><g mask="url(#custom)"><g id="g1113" transform="matrix(1.3333333,0,0,-1.3333333,0,682.66667)">
    <g id="g1115">
      <g id="g1117" clip-path="url(#clipPath1121)">
        <path d="M 226,76 H 16 V 16 h 210 z" style="fill:none;stroke:#000000;stroke-width:30;stroke-linecap:butt;stroke-linejoin:miter;stroke-miterlimit:10;stroke-dasharray:none;stroke-opacity:1" id="path1123"/>
      </g>
    </g>
    <g id="g1125" transform="translate(181,346)">
      <path d="M 0,0 V -270 H -120 V 0" style="fill:none;stroke:#000000;stroke-width:30;stroke-linecap:butt;stroke-linejoin:miter;stroke-miterlimit:10;stroke-dasharray:none;stroke-opacity:1" id="path1127"/>
    </g>
    <g id="g1129">
      <g id="g1131" clip-path="url(#clipPath1135)">
        <g id="g1137" transform="translate(181,346)">
          <path d="M 0,0 C -19.592,0 -36.251,12.524 -42.429,30 H -77.571 C -83.75,12.524 -100.408,0 -120,0 c -24.853,0 -45,20.147 -45,45 0,24.853 20.147,45 45,45 H 0 C 24.853,90 45,69.853 45,45 45,20.147 24.853,0 0,0 Z" style="fill:none;stroke:#000000;stroke-width:30;stroke-linecap:butt;stroke-linejoin:miter;stroke-miterlimit:10;stroke-dasharray:none;stroke-opacity:1" id="path1139"/>
        </g>
        <g id="g1141" transform="translate(169.5,436)">
          <path d="m 0,0 h -97 c -31.204,0 -56.5,25.296 -56.5,56.5 V 60 h 210 V 56.5 C 56.5,25.296 31.204,0 0,0 Z" style="fill:none;stroke:#000000;stroke-width:30;stroke-linecap:butt;stroke-linejoin:miter;stroke-miterlimit:10;stroke-dasharray:none;stroke-opacity:1" id="path1143"/>
        </g>
        <g id="g1145" transform="translate(61,286)">
          <path d="M 0,0 H 120" style="fill:none;stroke:#000000;stroke-width:30;stroke-linecap:butt;stroke-linejoin:miter;stroke-miterlimit:10;stroke-dasharray:none;stroke-opacity:1" id="path1147"/>
        </g>
        <g id="g1149" transform="translate(61,226)">
          <path d="M 0,0 H 120" style="fill:none;stroke:#000000;stroke-width:30;stroke-linecap:butt;stroke-linejoin:miter;stroke-miterlimit:10;stroke-dasharray:none;stroke-opacity:1" id="path1151"/>
        </g>
        <g id="g1153" transform="translate(121,226)">
          <path d="M 0,0 V -150" style="fill:none;stroke:#000000;stroke-width:30;stroke-linecap:butt;stroke-linejoin:miter;stroke-miterlimit:10;stroke-dasharray:none;stroke-opacity:1" id="path1155"/>
        </g>
        <path d="M 496,76 H 286 V 16 h 210 z" style="fill:none;stroke:#000000;stroke-width:30;stroke-linecap:butt;stroke-linejoin:miter;stroke-miterlimit:10;stroke-dasharray:none;stroke-opacity:1" id="path1157"/>
        <g id="g1159" transform="translate(451,346)">
          <path d="M 0,0 V -270 H -120 V 0" style="fill:none;stroke:#000000;stroke-width:30;stroke-linecap:butt;stroke-linejoin:miter;stroke-miterlimit:10;stroke-dasharray:none;stroke-opacity:1" id="path1161"/>
        </g>
        <g id="g1163" transform="translate(451,346)">
          <path d="M 0,0 C -19.592,0 -36.251,12.524 -42.43,30 H -77.57 C -83.749,12.524 -100.408,0 -120,0 c -24.853,0 -45,20.147 -45,45 0,24.853 20.147,45 45,45 H 0 C 24.853,90 45,69.853 45,45 45,20.147 24.853,0 0,0 Z" style="fill:none;stroke:#000000;stroke-width:30;stroke-linecap:butt;stroke-linejoin:miter;stroke-miterlimit:10;stroke-dasharray:none;stroke-opacity:1" id="path1165"/>
        </g>
        <g id="g1167" transform="translate(439.5,436)">
          <path d="m 0,0 h -97 c -31.204,0 -56.5,25.296 -56.5,56.5 V 60 h 210 V 56.5 C 56.5,25.296 31.204,0 0,0 Z" style="fill:none;stroke:#000000;stroke-width:30;stroke-linecap:butt;stroke-linejoin:miter;stroke-miterlimit:10;stroke-dasharray:none;stroke-opacity:1" id="path1169"/>
        </g>
        <g id="g1171" transform="translate(331,286)">
          <path d="M 0,0 H 120" style="fill:none;stroke:#000000;stroke-width:30;stroke-linecap:butt;stroke-linejoin:miter;stroke-miterlimit:10;stroke-dasharray:none;stroke-opacity:1" id="path1173"/>
        </g>
        <g id="g1175" transform="translate(331,226)">
          <path d="M 0,0 H 120" style="fill:none;stroke:#000000;stroke-width:30;stroke-linecap:butt;stroke-linejoin:miter;stroke-miterlimit:10;stroke-dasharray:none;stroke-opacity:1" id="path1177"/>
        </g>
        <g id="g1179" transform="translate(391,226)">
          <path d="M 0,0 V -150" style="fill:none;stroke:#000000;stroke-width:30;stroke-linecap:butt;stroke-linejoin:miter;stroke-miterlimit:10;stroke-dasharray:none;stroke-opacity:1" id="path1181"/>
        </g>
      </g>
    </g>
  </g></g>
</svg>
