<svg id="Capa_1" enable-background="new 0 0 512 512" height="512" viewBox="0 0 512 512" width="512" xmlns="http://www.w3.org/2000/svg"><g><g opacity=".99"><g><path d="m478.33 129.02c0 109.01-88.37 197.38-197.38 197.38h-49.89c-108.34 0-196.42-87.32-197.37-195.65l-.02-1.73c44.11-77.08 127.16-129.02 222.33-129.02s178.22 51.94 222.33 129.02z" fill="#fd4755"/></g><path d="m512 256c0 77.51-34.45 146.98-88.88 193.92l-167.12 35.723-167.12-35.723c-54.43-46.94-88.88-116.41-88.88-193.92 0-46.2 12.24-89.55 33.67-126.97 22.69 39.63 55.66 72.6 95.28 95.28 24.53 14.06 51.61 24.17 80.37 29.45 15.14 2.8 30.74 4.26 46.68 4.26 46.24 0 89.62-12.26 127.06-33.71 39.62-22.69 72.59-55.67 95.27-95.29 21.42 37.42 33.67 80.77 33.67 126.98z" fill="#fb2b3a"/></g><g opacity=".99"><path d="m256 275.35 45.825 82.938-45.825 80.182h-54.79l-83.72-140.19 31.96-142.03 83.7 119.1z" fill="#fea613"/><path d="m394.5 298.28-83.7 140.19h-54.8v-163.12h22.85l83.7-119.1z" fill="#fb8801"/><path d="m256 160.22 26.816 206.511-26.816 98.579h-138.7l-65.75-275.67 140.53 128.85z" fill="#fcc015"/><path d="m460.45 189.64-65.75 275.67h-138.7v-305.09l63.94 158.27z" fill="#fea613"/><path d="m256 327.19 19.837 43.515-19.837 43.515-34.5-33.08v-20.86z" fill="#fd4755"/><g><path d="m166.251 352.224h-24.95l-12.474 21.607 12.474 21.607h24.95l12.475-21.607z" fill="#27a6fe"/><path d="m370.699 352.224h-24.95l-12.475 21.607 12.475 21.607h24.95l12.474-21.607z" fill="#0693fb"/></g><g><g><path d="m30.225 197.923c0 17.232 13.97 31.202 31.202 31.202v-62.404c-17.233 0-31.202 13.969-31.202 31.202z" fill="#fcc015"/><path d="m61.423 166.719 10.845 31.203-10.845 31.202c-8.34 0-15.097-13.966-15.097-31.202 0-17.237 6.757-31.203 15.097-31.203z" fill="#fea613"/><path d="m92.625 197.921c0 17.237-13.966 31.202-31.202 31.202v-62.405c17.236.001 31.202 13.967 31.202 31.203z" fill="#fb8801"/></g><g><path d="m419.375 197.923c0 17.232 13.97 31.202 31.202 31.202v-62.404c-17.233 0-31.202 13.969-31.202 31.202z" fill="#fcc015"/><path d="m450.573 166.719 10.845 31.203-10.845 31.202c-8.34 0-15.098-13.966-15.098-31.202 0-17.237 6.758-31.203 15.098-31.203z" fill="#fea613"/><path d="m481.775 197.921c0 17.237-13.966 31.202-31.202 31.202v-62.405c17.236.001 31.202 13.967 31.202 31.203z" fill="#fb8801"/></g></g><g><g><path d="m327.837 163.422c0 17.232 13.97 31.202 31.202 31.202v-62.404c-17.232 0-31.202 13.97-31.202 31.202z" fill="#fcc015"/><path d="m359.035 132.218 10.845 31.203-10.845 31.202c-8.339 0-15.098-13.966-15.098-31.202.001-17.237 6.759-31.203 15.098-31.203z" fill="#fea613"/><path d="m390.237 163.421c0 17.236-13.966 31.202-31.202 31.202v-62.405c17.237 0 31.202 13.966 31.202 31.203z" fill="#fb8801"/></g><g><path d="m121.762 163.422c0 17.232 13.97 31.202 31.202 31.202v-62.404c-17.232 0-31.202 13.97-31.202 31.202z" fill="#fcc015"/><path d="m152.961 132.218 10.845 31.203-10.845 31.202c-8.339 0-15.098-13.966-15.098-31.202 0-17.237 6.758-31.203 15.098-31.203z" fill="#fea613"/><path d="m184.163 163.421c0 17.236-13.966 31.202-31.202 31.202v-62.405c17.236 0 31.202 13.966 31.202 31.203z" fill="#fb8801"/></g></g><g><path d="m224.8 160.224c0 17.232 13.97 31.202 31.202 31.202v-62.404c-17.232 0-31.202 13.97-31.202 31.202z" fill="#fcc015"/><path d="m255.998 129.02 10.845 31.203-10.845 31.203c-8.339 0-15.097-13.966-15.097-31.203s6.757-31.203 15.097-31.203z" fill="#fea613"/><path d="m287.2 160.223c0 17.237-13.966 31.203-31.202 31.203v-62.406c17.236 0 31.202 13.966 31.202 31.203z" fill="#fb8801"/></g><path d="m256 449.92 34.491 32.354-34.491 29.726c-63.87 0-122.28-23.4-167.12-62.08z" fill="#fea613"/><path d="m423.12 449.92c-44.84 38.68-103.25 62.08-167.12 62.08v-62.08z" fill="#fb8801"/><path d="m290.49 360.28v20.86l-34.49 33.08v-87.03z" fill="#fb2b3a"/></g></g></svg>