<svg id="Capa_1" enable-background="new 0 0 512 512" height="512" viewBox="0 0 512 512" width="512" xmlns="http://www.w3.org/2000/svg"><g><g opacity=".99"><g><path d="m478.33 129.02c0 109.01-88.37 197.38-197.38 197.38h-49.89c-108.34 0-196.42-87.32-197.37-195.65l-.02-1.73c44.11-77.08 127.16-129.02 222.33-129.02s178.22 51.94 222.33 129.02z" fill="#fd4755"/></g><path d="m512 256c0 114.98-75.81 212.25-180.16 244.58h-.01c-9.68 3-19.61 5.43-29.74 7.28-14.95 2.72-30.36 4.14-46.09 4.14-15.15 0-29.99-1.32-44.42-3.84-10.23-1.79-20.25-4.19-30.01-7.15-105.08-31.88-181.57-129.52-181.57-245.01 0-46.2 12.24-89.55 33.67-126.97 22.69 39.63 55.66 72.6 95.28 95.28 24.53 14.06 51.61 24.17 80.37 29.45 15.14 2.8 30.74 4.26 46.68 4.26 46.24 0 89.62-12.26 127.06-33.71 39.62-22.69 72.59-55.67 95.27-95.29 21.42 37.42 33.67 80.77 33.67 126.98z" fill="#fb2b3a"/><path d="m243.54 380.08 7.198 55.41-16.066 58.416-23.092 14.254c-10.23-1.79-20.25-4.19-30.01-7.15 5.07-5.94 11.38-10.9 18.65-14.47l.18-.09c20.05-9.86 32.75-30.25 32.75-52.59v-53.78z" fill="#fcc015"/></g><g opacity=".99"><path d="m499.134 271.514c0 53.989-43.93 97.912-97.919 97.912-9.55 0-17.319 7.768-17.319 17.319 0 9.55 7.768 17.319 17.319 17.319v29.454c-25.787 0-46.773-20.978-46.773-46.773 0-25.787 20.986-46.773 46.773-46.773 37.753 0 68.465-30.706 68.465-68.458s-30.713-68.465-68.465-68.465h-101.829v-29.454h101.829c53.989 0 97.919 43.93 97.919 97.919z" fill="#fcc015"/><path d="m499.134 271.514c0 53.989-43.93 97.912-97.919 97.912-9.55 0-17.319 7.768-17.319 17.319 0 9.55 7.768 17.319 17.319 17.319v14.727c-17.694 0-32.046-14.344-32.046-32.046 0-17.694 14.351-32.046 32.046-32.046 45.948 0 83.192-37.244 83.192-83.185 0-45.948-37.244-83.192-83.192-83.192h-101.829v-14.727h101.829c53.989 0 97.919 43.93 97.919 97.919z" fill="#fea613"/><path d="m256 512c-15.15 0-29.99-1.32-44.42-3.84 3.19-9.13 7.79-16.7 13.43-21.62l.11-.09c11.27-9.86 18.42-30.25 18.42-52.59v-53.78h26.7v53.78z" fill="#fea613"/><path d="m331.84 500.58h-.01c-9.68 3-19.61 5.43-29.74 7.28-14.95 2.72-30.36 4.14-46.09 4.14v-131.92h24.63v53.78c0 22.34 12.7 42.74 32.75 52.59l.18.09c7.1 3.48 13.27 8.29 18.28 14.04z" fill="#fb8801"/><path d="m256 429.98c-64.57-.48-117.13-53.43-117.16-118-.01-27.36 9.29-52.54 24.91-72.57 9.29-11.9 12.07-27.64 7.59-42.05h-.01c-7.73-24.89-30.76-41.84-56.82-41.84h-16.84l18.16-18.16c18-17.99 42.4-28.1 67.85-28.1h17.16l26.315 69.64z" fill="#fcc015"/><path d="m256 109.26v320.7c-31.84-.96-57.68-53.71-57.69-117.98-.01-27.36 4.61-52.54 12.36-72.57 4.61-11.9 5.99-27.64 3.76-42.05l-13.59-88.1z" fill="#fea613"/><g fill="#fb8801"><path d="m374.93 311.94c0 65.19-52.84 118.04-118.03 118.04h-.45c-.15 0-.3-.01-.45-.02v-320.7h113.85l-27.4 88.1c-4.48 14.38-1.76 30.1 7.51 41.97 15.64 20.02 24.97 45.22 24.97 72.61z"/><path d="m256.45 429.98h-.45v-.02c.15.01.3.02.45.02z"/></g></g><g opacity=".99"><g><path d="m129.949 197.543h-1.524c-6.753 0-12.227-5.474-12.227-12.227v-1.524h-8.716v1.524c0 6.753-5.474 12.227-12.227 12.227h-1.525v8.716h1.525c6.753 0 12.227 5.474 12.227 12.227v1.525h8.716v-1.525c0-6.753 5.474-12.227 12.227-12.227h1.524z" fill="#eaeaea"/></g><g><path d="m56.328 297.307h-1.524c-6.753 0-12.227-5.474-12.227-12.227v-1.524h-8.716v1.524c0 6.753-5.474 12.227-12.227 12.227h-1.524v8.716h1.525c6.753 0 12.227 5.474 12.227 12.227v1.525h8.716v-1.525c0-6.753 5.474-12.227 12.227-12.227h1.524v-8.716z" fill="#eaeaea"/></g><g><path d="m129.949 396.323h-1.524c-6.753 0-12.227-5.474-12.227-12.227v-1.524h-8.716v1.524c0 6.753-5.474 12.227-12.227 12.227h-1.525v8.716h1.525c6.753 0 12.227 5.474 12.227 12.227v1.525h8.716v-1.525c0-6.753 5.474-12.227 12.227-12.227h1.524z" fill="#eaeaea"/></g><g><path d="m435.478 269.751h-1.524c-6.753 0-12.227-5.474-12.227-12.227v-1.524h-8.716v1.524c0 6.753-5.474 12.227-12.227 12.227h-1.525v8.716h1.525c6.753 0 12.227 5.474 12.227 12.227v1.525h8.716v-1.525c0-6.753 5.474-12.227 12.227-12.227h1.524z" fill="#eaeaea"/></g><g><path d="m443.27 124.662h-1.524c-6.753 0-12.227-5.474-12.227-12.227v-1.524h-8.716v1.524c0 6.753-5.474 12.227-12.227 12.227h-1.525v8.716h1.525c6.753 0 12.227 5.474 12.227 12.227v1.525h8.716v-1.525c0-6.753 5.474-12.227 12.227-12.227h1.524z" fill="#eaeaea"/></g></g></g></svg>