<?xml version="1.0" encoding="UTF-8" standalone="no"?>
<!-- Created with Inkscape (http://www.inkscape.org/) -->
<svg xmlns="http://www.w3.org/2000/svg" xmlns:svg="http://www.w3.org/2000/svg" version="1.1" id="svg2553" width="682.66669" height="682.66669" viewBox="0 0 682.66669 682.66669">
  <defs id="defs2557">
    <clipPath clipPathUnits="userSpaceOnUse" id="clipPath2571">
      <path d="M 0,512 H 512 V 0 H 0 Z" id="path2569"/>
    </clipPath>
    <clipPath clipPathUnits="userSpaceOnUse" id="clipPath2591">
      <path d="M 0,512 H 512 V 0 H 0 Z" id="path2589"/>
    </clipPath>
  </defs>
  <mask id="custom"><rect id="bg" x="0" y="0" width="100%" height="100%" fill="white"/><g transform="matrix(1.3333333,0,0,-1.3333333,0,682.66667)"/></mask><g mask="url(#custom)"><g id="g2559" transform="matrix(1.3333333,0,0,-1.3333333,0,682.66667)">
    <g id="g2561" transform="translate(253.6602,126.3809)">
      <path d="M 0,0 -127.279,127.279 -84.853,169.706 42.427,42.427 Z" style="fill:none;stroke:#000000;stroke-width:30;stroke-linecap:butt;stroke-linejoin:miter;stroke-miterlimit:10;stroke-dasharray:none;stroke-opacity:1" id="path2563"/>
    </g>
    <g id="g2565">
      <g id="g2567" clip-path="url(#clipPath2571)">
        <g id="g2573" transform="translate(86.2295,22.5898)">
          <path d="m 0,0 -63.64,63.64 135.612,135.611 63.639,-63.64 z" style="fill:none;stroke:#000000;stroke-width:30;stroke-linecap:butt;stroke-linejoin:miter;stroke-miterlimit:10;stroke-dasharray:none;stroke-opacity:1" id="path2575"/>
        </g>
      </g>
    </g>
    <g id="g2577" transform="translate(211.2339,253.6602)">
      <path d="M 0,0 -42.426,-42.426" style="fill:none;stroke:#000000;stroke-width:30;stroke-linecap:butt;stroke-linejoin:miter;stroke-miterlimit:10;stroke-dasharray:none;stroke-opacity:1" id="path2579"/>
    </g>
    <g id="g2581" transform="translate(253.6602,211.2344)">
      <path d="M 0,0 -42.426,-42.427" style="fill:none;stroke:#000000;stroke-width:30;stroke-linecap:butt;stroke-linejoin:miter;stroke-miterlimit:10;stroke-dasharray:none;stroke-opacity:1" id="path2583"/>
    </g>
    <g id="g2585">
      <g id="g2587" clip-path="url(#clipPath2591)">
        <g id="g2593" transform="translate(190.0205,274.873)">
          <path d="M 0,0 C 82.01,82.011 273.554,235.564 296.985,212.133 320.417,188.701 166.863,-2.842 84.853,-84.853" style="fill:none;stroke:#000000;stroke-width:30;stroke-linecap:butt;stroke-linejoin:miter;stroke-miterlimit:10;stroke-dasharray:none;stroke-opacity:1" id="path2595"/>
        </g>
        <g id="g2597" transform="translate(115.7744,179.4141)">
          <path d="M 0,0 63.64,-63.64" style="fill:none;stroke:#000000;stroke-width:30;stroke-linecap:butt;stroke-linejoin:miter;stroke-miterlimit:10;stroke-dasharray:none;stroke-opacity:1" id="path2599"/>
        </g>
        <g id="g2601" transform="translate(73.3481,136.9883)">
          <path d="M 0,0 63.64,-63.641" style="fill:none;stroke:#000000;stroke-width:30;stroke-linecap:butt;stroke-linejoin:miter;stroke-miterlimit:10;stroke-dasharray:none;stroke-opacity:1" id="path2603"/>
        </g>
        <g id="g2605" transform="translate(489.4097,489.4102)">
          <path d="M 0,0 -255,-255" style="fill:none;stroke:#000000;stroke-width:30;stroke-linecap:butt;stroke-linejoin:miter;stroke-miterlimit:10;stroke-dasharray:none;stroke-opacity:1" id="path2607"/>
        </g>
      </g>
    </g>
  </g></g>
</svg>
