<?xml version="1.0" encoding="UTF-8" standalone="no"?>
<!-- Created with Inkscape (http://www.inkscape.org/) -->
<svg xmlns="http://www.w3.org/2000/svg" xmlns:svg="http://www.w3.org/2000/svg" version="1.1" id="svg2013" width="682.66669" height="682.66669" viewBox="0 0 682.66669 682.66669">
  <defs id="defs2017">
    <clipPath clipPathUnits="userSpaceOnUse" id="clipPath2027">
      <path d="M 0,512 H 512 V 0 H 0 Z" id="path2025"/>
    </clipPath>
  </defs>
  <mask id="custom"><rect id="bg" x="0" y="0" width="100%" height="100%" fill="white"/><g transform="matrix(1.3333333,0,0,-1.3333333,0,682.66667)"/></mask><g mask="url(#custom)"><g id="g2019" transform="matrix(1.3333333,0,0,-1.3333333,0,682.66667)">
    <g id="g2021">
      <g id="g2023" clip-path="url(#clipPath2027)">
        <g id="g2029" transform="translate(496,76.0068)">
          <path d="m 0,0 v 150 c 0,0 -105.333,3 -210,-75 -9.529,-7.102 -19.59,-13.528 -30,-19.35" style="fill:none;stroke:#000000;stroke-width:30;stroke-linecap:butt;stroke-linejoin:miter;stroke-miterlimit:10;stroke-dasharray:none;stroke-opacity:1" id="path2031"/>
        </g>
        <g id="g2033" transform="translate(496,76.0068)">
          <path d="M 0,0 V -60.007 H -480 V 150 c 0,0 105.333,3 210,-75 C -166.343,-2.248 0,0 0,0 Z" style="fill:none;stroke:#000000;stroke-width:30;stroke-linecap:butt;stroke-linejoin:miter;stroke-miterlimit:10;stroke-dasharray:none;stroke-opacity:1" id="path2035"/>
        </g>
        <g id="g2037" transform="translate(91,211)">
          <path d="m 0,0 v 225 c 0,16.568 13.432,30 30,30 16.568,0 30,-13.432 30,-30 V -15" style="fill:none;stroke:#000000;stroke-width:30;stroke-linecap:butt;stroke-linejoin:miter;stroke-miterlimit:10;stroke-dasharray:none;stroke-opacity:1" id="path2039"/>
        </g>
        <g id="g2041" transform="translate(211,406)">
          <path d="M 0,0 V -15 C 0,-48.137 -26.863,-75 -60,-75" style="fill:none;stroke:#000000;stroke-width:30;stroke-linecap:butt;stroke-linejoin:miter;stroke-miterlimit:10;stroke-dasharray:none;stroke-opacity:1" id="path2043"/>
        </g>
        <g id="g2045" transform="translate(31,376)">
          <path d="M 0,0 V -30 C 0,-63.137 26.863,-90 60,-90" style="fill:none;stroke:#000000;stroke-width:30;stroke-linecap:butt;stroke-linejoin:miter;stroke-miterlimit:10;stroke-dasharray:none;stroke-opacity:1" id="path2047"/>
        </g>
        <g id="g2049" transform="translate(466,421)">
          <path d="m 0,0 c 0,-24.853 -20.147,-45 -45,-45 -24.853,0 -45,20.147 -45,45 0,24.853 20.147,45 45,45 C -20.147,45 0,24.853 0,0 Z" style="fill:none;stroke:#000000;stroke-width:30;stroke-linecap:butt;stroke-linejoin:miter;stroke-miterlimit:10;stroke-dasharray:none;stroke-opacity:1" id="path2051"/>
        </g>
        <g id="g2053" transform="translate(16,91)">
          <path d="M 0,0 H 86.977 C 117.33,0 146.038,-13.798 165,-37.5 183.962,-61.202 212.67,-75 243.023,-75 H 270" style="fill:none;stroke:#000000;stroke-width:30;stroke-linecap:butt;stroke-linejoin:miter;stroke-miterlimit:10;stroke-dasharray:none;stroke-opacity:1" id="path2055"/>
        </g>
      </g>
    </g>
  </g></g>
</svg>
