<svg id="Capa_1" enable-background="new 0 0 512 512" height="512" viewBox="0 0 512 512" width="512" xmlns="http://www.w3.org/2000/svg"><g><g><g><g><path d="m478.33 129.02c0 109.01-88.37 197.38-197.38 197.38h-49.89c-108.34 0-196.42-87.32-197.37-195.65l-.02-1.73c22.35-39.05 54.68-71.64 93.53-94.3h16.11l2.38-9.79c33.4-15.99 70.82-24.93 110.31-24.93s76.9 8.94 110.3 24.93h.01l1.41 9.79h17.08c38.85 22.66 71.18 55.25 93.53 94.3z" fill="#fd4755"/></g><path d="m256 135.24 7.606 13.324-7.606 14.956-128.8-128.8c6.01-3.51 12.18-6.78 18.49-9.79z" fill="#662d2d"/><path d="m384.8 34.72-128.8 128.8v-28.28l110.31-110.31c6.31 3.01 12.48 6.28 18.49 9.79z" fill="#56201c"/><path d="m512 256c0 141.38-114.62 256-256 256s-256-114.62-256-256c0-46.2 12.24-89.55 33.66-126.97h.01c22.69 39.63 55.66 72.6 95.28 95.28 24.53 14.06 51.61 24.17 80.37 29.45 15.14 2.8 30.74 4.26 46.68 4.26 46.24 0 89.62-12.26 127.06-33.71 39.62-22.69 72.59-55.67 95.27-95.29 21.42 37.42 33.67 80.77 33.67 126.98z" fill="#fb2b3a"/><g><g><g><path d="m256 176.11v249.87l-74.4-31.7v-178.92z" fill="#a2e62e"/><path d="m330.4 215.36v178.92l-74.4 31.7v-249.87z" fill="#8bc618"/><path d="m255.997 140.96 14.44 35.15-14.44 59.485h-39.518l-34.874-20.237z" fill="#8bc618"/><path d="m256.003 140.96v94.635h39.518l34.874-20.237z" fill="#6a9306"/><g><path d="m255.997 468.677 26.488-55.107-26.488-39.522-39.518-.006-34.874 20.237z" fill="#8bc618"/><path d="m256.003 468.677v-55.117l-.006-39.512 39.524-.006 34.874 20.237z" fill="#6a9306"/></g></g><path d="m256 235.59 31.634 74.795-31.634 63.665h-39.52v-138.46z" fill="#8bc618"/><path d="m256 235.59h39.52v138.46h-39.52z" fill="#6a9306"/><path d="m295.521 235.595-39.524 39.523-39.518-39.523 39.518-39.518z" fill="#8bc618"/><path d="m256 334.52 14.437 39.528-14.437 39.522-39.52-39.53z" fill="#6a9306"/><path d="m256 196.08 14.437 39.515-14.437 39.525-39.52-39.53z" fill="#6a9306"/><g fill="#536d03"><path d="m295.52 374.04-39.52 39.53v-79.05z"/><path d="m295.52 235.59-39.52 39.53v-79.04z"/></g></g><path d="m256 134.68-19.759 41.43h-21.671c0-22.88 18.55-41.43 41.43-41.43z" fill="#eaf6ff"/><path d="m256 134.68 14.437 20.715-14.437 20.715h-19.76c0-22.88 8.85-41.43 19.76-41.43z" fill="#d8ecfe" opacity=".99"/></g><path d="m297.43 176.11h-41.43v-41.43c22.88 0 41.43 18.55 41.43 41.43z" fill="#c7e4f9"/></g><g><g><path d="m123.353 377.79h1.524c6.753 0 12.227-5.474 12.227-12.227v-1.524h8.716v1.524c0 6.753 5.474 12.227 12.227 12.227h1.525v8.716h-1.525c-6.753 0-12.227 5.474-12.227 12.227v1.525h-8.716v-1.525c0-6.753-5.474-12.227-12.227-12.227h-1.524z" fill="#eaeaea"/></g><g><path d="m40.955 228.201h1.524c6.753 0 12.227-5.474 12.227-12.227v-1.524h8.716v1.524c0 6.753 5.474 12.227 12.227 12.227h1.525v8.716h-1.525c-6.753 0-12.227 5.474-12.227 12.227v1.525h-8.716v-1.525c0-6.753-5.474-12.227-12.227-12.227h-1.524z" fill="#eaeaea"/></g><g><path d="m138.101 125.494h1.524c6.753 0 12.227-5.474 12.227-12.227v-1.524h8.716v1.524c0 6.753 5.474 12.227 12.227 12.227h1.525v8.716h-1.525c-6.753 0-12.227 5.474-12.227 12.227v1.525h-8.716v-1.525c0-6.753-5.474-12.227-12.227-12.227h-1.524z" fill="#eaeaea"/></g><g><path d="m388.647 377.79h-1.524c-6.753 0-12.227-5.474-12.227-12.227v-1.524h-8.716v1.524c0 6.753-5.474 12.227-12.227 12.227h-1.525v8.716h1.525c6.753 0 12.227 5.474 12.227 12.227v1.525h8.716v-1.525c0-6.753 5.474-12.227 12.227-12.227h1.524z" fill="#eaeaea"/></g><g><path d="m471.045 228.201h-1.524c-6.753 0-12.227-5.474-12.227-12.227v-1.524h-8.716v1.524c0 6.753-5.474 12.227-12.227 12.227h-1.525v8.716h1.525c6.753 0 12.227 5.474 12.227 12.227v1.525h8.716v-1.525c0-6.753 5.474-12.227 12.227-12.227h1.524z" fill="#eaeaea"/></g><g><path d="m373.899 125.494h-1.524c-6.753 0-12.227-5.474-12.227-12.227v-1.524h-8.716v1.524c0 6.753-5.474 12.227-12.227 12.227h-1.525v8.716h1.525c6.753 0 12.227 5.474 12.227 12.227v1.525h8.716v-1.525c0-6.753 5.474-12.227 12.227-12.227h1.524z" fill="#eaeaea"/></g></g></g></g></svg>