<svg id="Capa_1" enable-background="new 0 0 512 512" height="512" viewBox="0 0 512 512" width="512" xmlns="http://www.w3.org/2000/svg"><g><g opacity=".99"><g><path d="m478.33 129.02c0 109.01-88.37 197.38-197.38 197.38h-49.89c-108.34 0-196.42-87.32-197.37-195.65l-.02-1.73c44.11-77.08 127.16-129.02 222.33-129.02s178.22 51.94 222.33 129.02z" fill="#27a6fe"/></g><path d="m512 256c0 141.38-114.62 256-256 256s-256-114.62-256-256c0-46.2 12.24-89.55 33.67-126.97 22.69 39.63 55.66 72.6 95.28 95.28 24.53 14.06 51.61 24.17 80.37 29.45 15.14 2.8 30.74 4.26 46.68 4.26 46.24 0 89.62-12.26 127.06-33.71 39.62-22.69 72.59-55.67 95.27-95.29 21.42 37.42 33.67 80.77 33.67 126.98z" fill="#0693fb"/></g><g opacity=".99"><g fill="#c7e4f9"><path d="m32.03 271.783v24.842l27.32-24.842-13.66-9.011z"/><path d="m32.03 339.474v-24.842l27.32 24.842-13.66 9.011z"/><path d="m59.35 339.474v-24.842l27.32 24.842-13.66 9.011z"/><path d="m86.67 339.474v-24.842l27.32 24.842-13.66 9.011z"/><path d="m113.99 339.474v-24.842l27.32 24.842-13.66 9.011z"/><path d="m141.31 339.474v-24.842l27.32 24.842-13.66 9.011z"/><path d="m168.63 339.474v-24.842l27.319 24.842-13.659 9.011z"/><path d="m59.35 271.783v24.842l27.32-24.842-13.66-9.011z"/><path d="m86.67 271.783v24.842l27.32-24.842-13.66-9.011z"/><path d="m180.836 232.257-53.186 30.515-13.66 9.011v24.842l.003-.002v.001l52.95-50.988-.002.001z"/></g><path d="m233.789 206.109-53.186 30.515-13.647 9.003c-.003.001-.005.002-.008.003 0 0 0 0-.005.006v24.841.002l.003-.002v.001l52.95-50.988c-.001 0-.001 0-.002.001z" fill="#b4d8ed"/><path d="m233.789 206.109-53.186 30.515-13.647 9.003c-.003.001-.005.002-.008.003 0 0 0 0-.005.006v24.841.002l.003-.002v.001l52.95-50.988c-.001 0-.001 0-.002.001z" fill="#c7e4f9"/><path d="m200.37 328.34 19.987 25.185-19.987 25.185h-108.73c-12.96 0-25.3-3.86-35.68-10.69-10.38-6.84-18.8-16.64-23.93-28.55h130.69c9.18 0 18.18-1.82 26.51-5.27 3.88-1.6 7.61-3.56 11.14-5.86z" fill="#eaf6ff"/><path d="m114.98 146.5c29.61-8.7 58.26-20.46 85.39-35.22l67.993 68.347-67.993 61.603h-11.67c-7.14 0-14.16 1.37-20.68 3.96s-12.56 6.41-17.75 11.32c-10.39 9.81-24.14 15.27-38.44 15.27h-79.8v-14c0-51.36 33.68-96.8 82.95-111.28z" fill="#eaf6ff"/><path d="m400.67 169.76c-.11-56.14-46.18-101.89-102.32-101.63-21.46.11-41.35 6.85-57.73 18.29-12.98 9.06-26.42 17.35-40.25 24.86v129.95h101.33v16.64c0 22.67-18.37 41.04-41.03 41.04-9.19 0-18.18 1.82-26.51 5.27-8.32 3.44-15.98 8.52-22.47 15.01-3.47 3.47-7.26 6.53-11.32 9.15v50.37h12.76c103.58 0 187.54-83.97 187.54-187.54v-19.33h-.02c.02-.69.02-1.39.02-2.08z" fill="#d8ecfe"/><path d="m294.237 91.707c-41.132 0-75.666 28.245-85.266 66.397-2.747 10.917 5.431 21.522 16.688 21.522h137.156c11.257 0 19.435-10.606 16.688-21.522-9.6-38.152-44.134-66.397-85.266-66.397z" fill="#b4d8ed"/><path d="m92.406 200.807c-16.739 7.684-28.146 21.366-31.202 35.323 12.58 6.773 30.391 7.042 47.124-.64 16.726-7.678 28.133-21.36 31.198-35.315-12.576-6.78-30.387-7.049-47.12.632z" fill="#c7e4f9"/></g><g opacity=".99"><path d="m376.98 383.67-12.53 12.54c-3.5 3.5-7.32 6.76-11.33 9.67l10.56 14.56 19.38-4.73 6.65-19.31zm56.475-168.561-13.575 8.881v13.78l27.43-.14 8.695-11.19zm-4.035 58.911v22.49c0 3.55-.23 7.14-.68 10.66l17.85 2.29 11.408-17.72-10.578-17.72zm-9.31 60.9c-3.98 7.71-9.11 14.73-15.24 20.87l-2.8 2.8 12.73 12.72 18.655-2.953 2.645-25.197zm-193.79 88.95v18l17.74 6.285 17.74-6.285v-18zm100.34-4.56c-9.38 3.02-19.13 4.56-28.99 4.56h-.39v18h.39l19.825 6.285 14.685-11.715zm-140.11 6.82c-15.15 3.86-28.97 12.67-38.9 24.84l13.94 11.39 29.4-18.78z" fill="#eaf6ff"/></g><g fill="#d8ecfe"><path d="m195.42 461.03c-7.74 1.96-14.8 6.48-19.89 12.71l-13.94-11.38c7.42-9.1 17.67-15.8 29.4-18.78z" opacity=".99"/><path d="m226.32 441.87h35.48v18h-35.48z" opacity=".99"/><path d="m337.71 453.57c-12.95 4.18-26.42 6.3-40.04 6.3h-.39v-18h.39c11.83 0 23.46-1.86 34.51-5.43z" opacity=".99"/><path d="m402.44 409.13-12.53 12.53c-4.85 4.85-10.11 9.34-15.66 13.36l-10.57-14.58c4.77-3.44 9.29-7.29 13.5-11.51l12.53-12.53z" opacity=".99"/><path d="m452.11 351.41c-5.69 11.03-13.02 21.07-21.79 29.84l-2.79 2.79-12.73-12.73 2.79-2.79c7.52-7.52 13.74-16.08 18.51-25.36z" opacity=".99"/><path d="m465.37 237.53-18.06.1c-.88-7.68-7.39-13.64-15.31-13.64h-12.12v-18h12.12c17.72 0 32.38 13.86 33.37 31.54z" opacity=".99"/><path d="m465.42 274.02v22.49c0 5.08-.33 10.2-.97 15.24l-17.86-2.29c.55-4.27.83-8.6.83-12.95v-22.49z" opacity=".99"/></g></g></svg>