<svg id="Capa_1" enable-background="new 0 0 512 512" height="512" viewBox="0 0 512 512" width="512" xmlns="http://www.w3.org/2000/svg"><g><g opacity=".99"><g><path d="m478.33 129.02c0 109.01-88.37 197.38-197.38 197.38h-49.89c-108.34 0-196.42-87.32-197.37-195.65l-.02-1.73c44.11-77.08 127.16-129.02 222.33-129.02s178.22 51.94 222.33 129.02z" fill="#fd4755"/></g><path d="m512 256c0 54.33-16.93 104.7-45.8 146.14l-420.4.01c-28.87-41.44-45.8-91.82-45.8-146.15 0-46.2 12.24-89.55 33.67-126.97 17.29 30.2 40.55 56.54 68.18 77.39 8.62 6.52 17.67 12.49 27.1 17.89 24.53 14.06 51.61 24.17 80.37 29.45 15.14 2.8 30.74 4.26 46.68 4.26 46.24 0 89.62-12.26 127.06-33.71 9.42-5.4 18.47-11.38 27.09-17.89 27.63-20.86 50.89-47.2 68.18-77.4 21.42 37.42 33.67 80.77 33.67 126.98z" fill="#fb2b3a"/></g><g opacity=".99"><path d="m256 141.52 121.617 197.255-121.617 173.225c-87.05 0-163.96-43.45-210.2-109.85-3.48-13.7-5.31-28.72-5.31-45.12 0-58.61 23.4-111.76 61.36-150.61 39.14-40.04 93.74-64.9 154.15-64.9z" fill="#c7e4f9"/><path d="m256 237.74v216.8c-1.8-1.02-3.55-2.1-5.26-3.25-4.63-3.11-8.96-6.63-12.89-10.56-4.73-4.69-8.92-9.91-12.47-15.61-2.94-4.68-5.44-9.67-7.44-14.91-2.34-6.16-4.01-12.65-4.9-19.38-.52-3.76-.77-7.61-.77-11.52 0-1.83.07-3.64.22-5.42.26-3.47.79-6.85 1.54-10.13l-10.55-11.474-15.77 11.474h-82.75c.57-3.39 1.22-6.74 1.99-10.05 1.23-5.47 2.75-10.84 4.51-16.08l10.9-6.47-3.4-12.11c2.38-5.04 5.02-9.95 7.9-14.7l15.42 1-4.09-17.51c3.4-4.4 7.02-8.63 10.86-12.66l17.47 3.86-2.87-17.55c4.27-3.57 8.73-6.92 13.35-10.03l16.84 7.77.35-17.99c4.92-2.56 9.98-4.87 15.17-6.94l15.54 10.68 3.47-16.93c5.35-1.44 10.78-2.6 16.32-3.49z" fill="#eaf6ff"/><path d="m410.15 206.42c-39.14-40.04-93.74-64.9-154.15-64.9v370.48c87.05 0 163.96-43.46 210.2-109.86 3.48-13.7 5.31-28.71 5.31-45.11 0-58.61-23.4-111.76-61.36-150.61z" fill="#b4d8ed"/></g><g opacity=".99"><path d="m407.04 357.66v.66c-.04 5.66-.5 11.2-1.39 16.61l-15.733 6.845 10.743 12.515c-1.9 5.29-4.18 10.38-6.83 15.23l-16.213-.32 5.033 16.9c-3.54 4.3-7.38 8.36-11.54 12.06l-16.25-4.703.22 16.633c-4.71 2.89-9.69 5.42-14.85 7.56l-13.235-10.07-5.885 15.98c-5.37 1.13-10.9 1.86-16.52 2.15l-8.335-15.62-11.635 14.61c-5.57-.92-10.95-2.35-16.09-4.29-4.35-1.62-8.54-3.59-12.53-5.87v-223.285l8.6-8.695c2.37-.1 4.76-.15 7.17-.15 3.2 0 6.36.1 9.51.34l8.102 10.958 11.699-8.098c5.49 1.19 10.84 2.75 16.05 4.59l7.208 11.495 11.091-3.395c4.92 2.63 9.67 5.56 14.2 8.75l1.34 13.59 14.15-.89c4.01 3.85 7.79 7.93 11.33 12.24l-2.105 13.74 13.605 2.63c2.85 4.75 5.4 9.69 7.65 14.8l-7.01 14.15 13.7 4.71c1.45 5.32 2.59 10.77 3.36 16.34l-11.82 9.98z" fill="#d8ecfe"/><g><path d="m118.96 319.05c-2.85 6-5.37 12.2-7.5 18.58l34.02 11.41c1.66-4.95 3.64-9.88 5.9-14.61zm19.23-31.21c-4.11 5.27-7.9 10.77-11.33 16.51l30.72 18.51c2.72-4.48 5.71-8.87 8.94-13zm25.46-26.35c-5.13 4.28-10.02 8.84-14.6 13.69l26.05 24.7c3.6-3.81 7.48-7.46 11.52-10.82zm30.54-20.25c-5.95 3.06-11.69 6.48-17.19 10.22l20.13 29.7c4.34-2.95 8.9-5.65 13.55-8.06zm34.18-13.19c-6.5 1.71-12.84 3.81-19.01 6.25l13.25 33.35c4.87-1.94 9.89-3.59 14.93-4.93zm16.32-3.49 5.7 35.45c1.86-.3 3.73-.56 5.61-.78l5.05-17.99-5.05-18.1c-3.81.35-7.57.83-11.31 1.42z" fill="#c7e4f9"/></g><path d="m256 298.15 10.1 13.375-10.1 12.695c-20.17 4.49-36.31 19.82-41.97 39.54h-26.32c6.52-33.88 33.95-60.43 68.29-65.61z" fill="#d8ecfe"/><path d="m256 339.59.482 35.499-.482 41.461c-14.84-8.24-24.9-24.08-24.9-42.23 0-16.49 9.74-30.74 23.76-37.32z" fill="#d8ecfe"/><path d="m336.51 365.45c0 31.51-25.64 57.15-57.15 57.15-8.47 0-16.44-2.2-23.36-6.05v-76.96l9.19 20.88c-5.01 2.58-8.46 7.82-8.46 13.85 0 12.49 10.16 22.64 22.63 22.64 17.38 0 31.51-14.13 31.51-31.51 0-23.48-19.1-42.59-42.58-42.59-4.22 0-8.33.47-12.29 1.36v-26.07c4.01-.61 8.11-.92 12.29-.92 37.61 0 68.22 30.6 68.22 68.22z" fill="#c7e4f9"/></g><g fill="#a4d3ea"><path d="m266.1 258.42c-3.37.14-6.75.41-10.1.81v-36.09c2.84-.27 5.71-.46 8.6-.58z" opacity=".99"/><path d="m293.34 260.64c-4.75-1.06-9.66-1.76-14.54-2.1l2.48-35.79c6.75.46 13.36 1.42 19.8 2.86z" opacity=".99"/><path d="m302.71 429.88 1.88 35.83c-1.92.1-3.83.16-5.76.16-4.84 0-9.59-.4-14.21-1.17l5.85-35.41c4 .67 8.15.79 12.24.59z" opacity=".99"/><path d="m318.53 269.95c-4.32-2.3-8.83-4.3-13.43-5.94l12.03-33.81c6.34 2.26 12.44 4.98 18.3 8.1z" opacity=".99"/><path d="m326.49 424.51 13.74 33.14c-6.11 2.54-12.51 4.52-19.12 5.91l-7.35-35.12c4.34-.91 8.63-2.24 12.73-3.93z" opacity=".99"/><path d="m328.95 276.38 20.68-29.33c5.47 3.86 10.65 8.12 15.49 12.7l-24.78 25.98c-3.56-3.37-7.37-6.53-11.39-9.35z" opacity=".99"/><path d="m347.14 411.47 23.97 26.69c-4.93 4.45-10.3 8.46-16.03 11.93l-18.67-30.62c3.79-2.33 7.41-5.01 10.73-8z" opacity=".99"/><path d="m348.69 294.73 27.76-22.74c4.22 5.14 8.06 10.61 11.5 16.37l-30.8 18.4c-2.51-4.18-5.35-8.23-8.46-12.03z" opacity=".99"/><path d="m362.33 392.3 31.5 17.22c-3.23 5.88-6.98 11.43-11.18 16.58l-27.79-22.71c2.82-3.46 5.33-7.2 7.47-11.09z" opacity=".99"/><path d="m362.77 317.63 32.83-14.47c2.69 6.06 4.93 12.37 6.69 18.86l-34.63 9.44c-1.28-4.7-2.92-9.35-4.89-13.83z" opacity=".99"/><path d="m370.23 369.26 35.42 5.67c-1.06 6.68-2.75 13.16-4.99 19.36l-33.75-12.15c1.5-4.17 2.62-8.51 3.32-12.88z" opacity=".99"/><path d="m407.04 357.66v.66l-35.89-.27v-.39c0-4.77-.34-9.56-1.01-14.22l35.51-5.08c.92 6.31 1.39 12.75 1.39 19.3z" opacity=".99"/></g></g></svg>