<svg id="Capa_1" enable-background="new 0 0 512 512" height="512" viewBox="0 0 512 512" width="512" xmlns="http://www.w3.org/2000/svg"><g><path d="m512 255.959c0 72.406-30.062 137.788-78.39 184.342v-.01l-98.53-7.402c-55.28-4.157-110.837 2.672-163.465 20.098l-54.471 18.03c-8.171-5.293-16.014-11.037-23.509-17.19-13.382-10.996-25.638-23.333-36.553-36.797h-.01c-35.652-43.995-57.021-100.04-57.021-161.071 0-45.612 11.928-88.439 32.847-125.522.246-.44.491-.87.747-1.3.01-.01.01-.021.021-.031 44.079-77.126 127.158-129.106 222.36-129.106 95.222 0 178.281 51.98 222.37 129.116.174.287.348.584.512.881.02.041.051.092.082.133 21.01 37.155 33.01 80.094 33.01 125.829z" fill="#00b3ff"/><g><path d="m511.949 255.98c0 72.385-30.051 137.757-78.369 184.311l-98.499-7.402c-55.28-4.157-110.837 2.672-163.465 20.098l-54.512 18.04c-8.171-5.283-16.024-11.027-23.519-17.18-13.382-10.996-25.639-23.333-36.553-36.797h-.01c-35.653-43.995-57.022-100.04-57.022-161.07 0-45.612 11.929-88.439 32.847-125.522.225-.389.461-.778.686-1.177.02-.041.041-.092.061-.123.01-.01.01-.02.021-.031.021-.041.051-.082.072-.102 25.393 44.383 63.686 80.422 109.813 102.998 5.222 2.559 10.597 4.966 16.024 7.167 29.028 11.825 60.717 18.48 93.891 18.787h5.119c33.174-.307 64.864-6.962 93.891-18.787 5.427-2.201 10.802-4.607 16.024-7.167 46.075-22.576 84.42-58.615 109.813-102.998.021.031.051.061.082.113.02.041.041.092.072.143.143.246.287.491.441.737.02.041.051.092.082.133 21.01 37.154 33.01 80.094 33.01 125.829z" fill="#0095e8"/></g><path d="m433.61 440.29c-24.86 23.958-54.553 42.929-87.471 55.308-.174.061-.338.133-.512.184l-27.727-28.298c-13.976-13.986-16.086-36.07-4.669-52.226.082-.113.164-.225.246-.348l32.385-45.685.278.237 18.758 18.808 18.789-18.787h35.376l9.778 25.79c5.496 14.517 7.473 30.981 4.769 45.017z" fill="#dff0f8"/><path d="m165.916 495.677c-17.248-6.473-33.605-14.768-48.845-24.641 1.219-40.659 19.911-76.935 48.845-101.587l8.327 13.314c10.322 16.507 15.603 35.061 15.976 53.621.447 22.218-8.589 43.581-24.303 59.293z" fill="#fff"/><path d="m177.718 374.212h156.615v93.302h-156.615z" fill="#fff"/><path d="m256.026 374.212h78.308v93.302h-78.308z" fill="#dff0f8"/><path d="m267.094 451.973h-11.068-28.557c-19.393 0-35.12-15.716-35.12-35.118v-49.687c0-4.648.901-9.081 2.55-13.136l-2.468-2.345c-2.109 1.075-4.157 2.201-6.215 3.368-7.208 4.198-13.986 9.02-20.304 14.395v126.23c1.986.758 3.983 1.474 5.99 2.17 26.345 9.174 54.656 14.15 84.124 14.15h.328c.901 0 1.802-.01 2.703-.021.788-.01 1.577-.02 2.355-.031.246 0 .481-.02.727-.02.666-.02 1.331-.041 1.997-.061.317 0 .635-.01.952-.031.553-.021 1.116-.041 1.679-.072.113 0 .215-.01.328-.01.328-.01.665-.021.993-.041l2.642-2.641c15.502-15.521 20.488-37.462 15.154-57.12z" fill="#56c126"/><path d="m261.355 403.701-5.327 8.458-.514-.309-.15-.14-43.785-41.755v-26.4c13.953-4.719 28.888-7.28 44.449-7.28 16.448 18.831 18.598 46.212 5.327 67.426z" fill="#f4a57b"/><path d="m300.486 343.546v26.251l-44.458 42.363v-75.884c15.551-.001 30.504 2.541 44.458 7.27z" fill="#f2926a"/><path d="" fill="#fff"/><path d="m259.897 343.452-3.86 4.635-.009.01h-.327c-18.785-.094-36.309-5.607-50.982-15.14-14.673-9.485-26.542-22.942-34.112-38.83 0 0-.047.047-.047.14 0-.047-.047-.093-.047-.14-3.224-6.775-5.654-14.064-7.196-21.634-22.524-2.009-40.188-20.933-40.094-44.016.047-13.364 10.888-24.158 24.253-24.111 7.617 0 13.832 6.168 13.925 13.784v.187l32.804-77.799v-.047c16.542-14.252 38.084-22.896 61.682-22.896h.14v-.047l20.673 36.232c34.534 60.53 27.842 136.152-16.803 189.672z" fill="#ffc0a3"/><path d="m161.401 218.337v17.997l42.327-42.324h-42.327z" fill="#243047"/><path d="m388.739 228.477c.093 23.083-17.571 42.054-40.14 44.016-1.533 7.589-3.954 14.812-7.215 21.616h.084c-15.178 31.905-47.711 53.941-85.355 53.978h-.075c-.009 0-.009.01-.009.01v-230.548c23.552 0 45.14 8.644 61.682 22.943l32.804 77.846c0-7.71 6.262-13.971 13.972-13.971 13.364-.047 24.205 10.746 24.252 24.11z" fill="#f4a57b"/><path d="m350.514 218.337v17.997l-42.327-42.324h42.327z" fill="#243047"/><path d="m255.946 277.197c-4.228-.014-7.644-3.453-7.63-7.681l.111-22.642c.014-4.228 3.453-7.643 7.681-7.629 4.229.014 7.645 3.453 7.63 7.681l-.112 22.642c-.012 4.227-3.452 7.643-7.68 7.629z" fill="#e47971"/><path d="m237.927 251.256c-.021 6.429-5.251 11.623-11.681 11.602-6.429-.022-11.624-5.251-11.602-11.681.022-6.429 5.252-11.624 11.682-11.602 6.428.021 11.623 5.251 11.601 11.681z" fill="#243047"/><path d="m297.254 251.457c-.021 6.429-5.252 11.623-11.681 11.602-6.43-.022-11.624-5.252-11.602-11.681.022-6.43 5.252-11.624 11.681-11.602s11.624 5.251 11.602 11.681z" fill="#1b2535"/><path d="m242.74 227.969c-2.677-6.388-8.978-10.885-16.34-10.909-7.362-.026-13.693 4.429-16.413 10.798z" fill="#243047"/><path d="m302.067 228.17c-2.676-6.388-8.977-10.885-16.34-10.91-7.362-.025-13.694 4.429-16.413 10.798z" fill="#1b2535"/><g><path d="m262.951 323.219-6.923 4.751h-.01c-8.244-.01-15.996-2.069-22.785-5.704-4.639-2.478-8.827-5.683-12.422-9.472-5.714-6.052-1.28-16.036 7.046-16.036l28.172.01 6.933 4.741c7.628 5.233 7.628 16.487-.011 21.71z" fill="#243047"/><path d="m291.235 312.825c-3.594 3.788-7.783 6.994-12.432 9.462-6.789 3.635-14.531 5.683-22.775 5.683v-31.201l28.182.02c8.326 0 12.75 9.994 7.025 16.036z" fill="#1b2535"/><path d="m256.346 327.734-.328.236c-8.244-.01-15.996-2.069-22.785-5.704 5.673-6.134 13.784-9.984 22.796-9.974 5.488 3.615 5.652 11.613.317 15.442z" fill="#e32644"/><path d="m278.794 322.291c-6.788 3.631-14.541 5.68-22.776 5.676l.008-15.678c9.004.004 17.106 3.862 22.768 10.002z" fill="#bc0e5c"/></g><g><path d="m354.801 141.433c-64.546 18.501-132.994 18.511-197.551.01l-.031-.01c11.847-43.452 51.779-75.62 98.857-75.59 28.167.01 53.734 11.549 72.277 30.121 12.441 12.44 21.707 28.043 26.448 45.469z" fill="#ed794a"/><path d="m354.832 141.463-.031-.031c-47.632 13.658-97.393 17.241-146.151 10.74 1.618-21.767 6.471-41.302 13.485-56.26 8.703-18.562 20.693-30.07 33.891-30.07 28.167 0 53.744 11.508 72.308 30.07 12.46 12.461 21.747 28.095 26.498 45.551z" fill="#d85f39"/><path d="m354.832 141.463-.031-.031c-32.273 9.256-65.53 13.883-98.775 13.883v-89.472c28.167 0 53.744 11.508 72.308 30.07 12.46 12.46 21.747 28.094 26.498 45.55z" fill="#c94d31"/><path d="m358.385 168.278-.01 20.313h-204.749l.01-20.456c.01-9.225 1.249-18.183 3.584-26.702h197.581c2.345 8.559 3.594 17.559 3.584 26.845z" fill="#ffe706"/><path d="m358.385 168.278-.01 20.313h-150.319v-20.385c0-9.255.584-18.234 1.679-26.773h145.066c2.345 8.559 3.594 17.559 3.584 26.845z" fill="#ffbf03"/><path d="m358.385 168.278-.01 20.313h-102.349v-47.158h98.775c2.345 8.559 3.594 17.559 3.584 26.845z" fill="#ff9906"/></g><path d="m267.094 451.973h17.498c.43 0 .86-.01 1.29-.021z" fill="#699677"/><g><path d="m256.03 412.16-.51-.31-29.16-17.53-41.37.18 7.44-42.81c6.13-3.16 12.52-5.89 19.15-8.14z" fill="#dff0f8"/></g><path d="m346.139 369.461v126.137c-28.034 10.556-58.403 16.32-90.113 16.32v-59.946h11.068l18.789-.021c18.799-.686 33.819-16.125 33.819-35.097v-65.116c2.089 1.044 4.086 2.13 6.092 3.317h.041c7.229 4.199 14.007 9.021 20.304 14.406z" fill="#06995a"/><path d="m327.2 394.49-41.51-.17-29.66 17.84 44.46-68.61c6.59 2.22 12.95 4.93 19.04 8.1z" fill="#c4e5f2"/><path d="m183.25 201.94-4.09 2.02h-75.91v-24.31h75.91l4.09 2.02c8.39 4.15 8.39 16.12 0 20.27z" fill="#d85f39"/><path d="m256.03 203.96h-76.87v-24.31h76.87l1.16.84c8.21 5.95 7.6 18.37-1.16 23.47z" fill="#c94d31"/><path d="m256.03 179.65h152.78v24.31h-152.78z" fill="#b73520"/><g><g><path d="m438.283 234.667c-9.425 27.843-25.202 53.11-46.087 73.799l-4.482 4.44-19.615-6.728 20.025-58.374c11.976-34.911 54.103-47.691 61.044-45.311z" fill="#fff"/><path d="m408.81 320.142-21.096-7.236 20.025-58.374c11.976-34.911 37.834-53.272 41.429-52.038l1.606 11.624c5.566 40.252-10.352 80.482-41.964 106.024z" fill="#dff0f8"/><path d="m469.551 275.733-20.024 58.374-40.717-13.966 40.358-117.648c6.947 2.383 32.359 38.33 20.383 73.24z" fill="#c4e5f2"/><g><path d="m391.857 404.064-6.139 17.897-10.589-3.632-1.397-4.166c-1.301-3.868.027-8.125 3.293-10.566l4.243-3.165z" fill="#243047"/><path d="m381.27 400.43-6.14 17.9-10.64-3.62 6.19-17.91z" fill="#303b5a"/><g><g><path d="m425.965 314.264-8.508 24.802c-10.039 4.989-22.227.809-27.081-9.296l8.506-24.796c2.566-7.48 10.705-11.466 18.185-8.9 7.479 2.566 11.464 10.71 8.898 18.19z" fill="#dff0f8"/><path d="m425.965 314.264-8.508 24.802c-7.374 3.666-15.909 2.38-21.837-2.566l10.02-29.208c2.566-7.48 7.684-12.502 11.427-11.218 7.479 2.566 11.464 10.71 8.898 18.19z" fill="#c4e5f2"/><path d="m425.965 314.264-8.508 24.802c-5.019 2.495-10.577 2.7-15.485 1.01l15.094-44.002c7.48 2.566 11.465 10.71 8.899 18.19z" fill="#9fe0f4"/><path d="m374.869 401.95-2.806 3.221-6.758-2.318 25.07-73.082 6.758 2.318.241 4.18c.707 12.295-14.407 56.392-22.505 65.681z" fill="#ff3500"/><path d="m380.866 405.635-2.022 1.861-6.781-2.326 25.07-73.082 6.781 2.326.459 2.792c2.221 13.477-13.467 59.171-23.507 68.429z" fill="#f20038"/><path d="m359.52 366.119h77.263v14.319h-77.263z" fill="#c8002b" transform="matrix(.325 -.946 .946 .325 -84.121 628.767)"/></g></g></g></g></g><path d="m419.061 369.482c0 14.837-12.026 26.863-26.861 26.863s-26.861-12.027-26.861-26.863 12.026-26.863 26.861-26.863 26.861 12.027 26.861 26.863z" fill="#ffc0a4"/></g></svg>