<svg viewBox="-11 0 512 512.00028" xmlns="http://www.w3.org/2000/svg"><path d="m490 267c0 135.308594-109.691406 245-245 245s-245-109.691406-245-245 109.691406-245 245-245 245 109.691406 245 245zm0 0" fill="#ef9614"/><path d="m102.925781 221.933594-8.507812-19.101563v-11.652343c-2.253907 1.152343-4.796875 1.820312-7.5 1.820312s-5.246094-.667969-7.5-1.820312v11.65625l-8.507813 19.097656c-1.117187 2.511718-2.035156 6.816406-2.035156 9.566406v71c0 2.75 2.25 5 5 5h26.085938c2.75 0 5-2.25 5-5v-71c0-2.75-.914063-7.054688-2.035157-9.566406zm0 0" fill="#ffd00d"/><path d="m79.417969 94.238281v67.582031c2.253906-1.152343 4.796875-1.820312 7.5-1.820312 2.699219 0 5.246093.667969 7.5 1.820312v-61.476562zm0 0" fill="#ffd00d"/><path d="m79.417969 94.238281v67.582031c2.253906-1.152343 4.796875-1.820312 7.5-1.820312 1.214843 0 2.398437.140625 3.539062.394531v-61.664062zm0 0" fill="#edc10a"/><path d="m81.949219 221.933594 8.507812-19.097656v-10.226563c-1.144531.25-2.324219.390625-3.539062.390625-2.703125 0-5.246094-.664062-7.5-1.820312v11.660156l-8.507813 19.09375c-1.121094 2.511718-2.035156 6.816406-2.035156 9.566406v71c0 2.75 2.25 5 5 5h11.039062c-2.75 0-5-2.25-5-5v-71c0-2.75.914063-7.054688 2.035157-9.566406zm0 0" fill="#edc10a"/><path d="m104.417969 176.5c0 9.664062-7.835938 17.5-17.5 17.5-9.664063 0-17.5-7.835938-17.5-17.5s7.835937-17.5 17.5-17.5c9.664062 0 17.5 7.835938 17.5 17.5zm0 0" fill="#fff"/><path d="m81 176.5c0-7.632812 4.894531-14.105469 11.707031-16.496094-1.8125-.640625-3.757812-1.003906-5.789062-1.003906-9.664063 0-17.5 7.835938-17.5 17.5s7.835937 17.5 17.5 17.5c2.03125 0 3.976562-.363281 5.789062-1-6.8125-2.394531-11.707031-8.867188-11.707031-16.5zm0 0" fill="#eef6ff"/><path d="m341.96875 205.964844h4.320312c6.617188 0 12.523438 3.066406 16.390626 7.851562v-49.816406h-20.710938zm0 0" fill="#a5683f"/><path d="m143.707031 205.964844h4.324219v-41.964844h-20.710938v49.8125c3.867188-4.777344 9.773438-7.847656 16.386719-7.847656zm0 0" fill="#a5683f"/><path d="m148.03125 246.832031v-41.867187h-4.324219c-12.191406 0-22.074219 9.886718-22.074219 22.074218v16.882813c0 12.195313 9.882813 22.078125 22.074219 22.078125h6.355469c-1.324219-6.183594-2.03125-12.59375-2.03125-19.167969zm0 0" fill="#ffe2b8"/><path d="m346.289062 204.964844h-4.320312v41.867187c0 6.570313-.707031 12.984375-2.03125 19.167969h6.351562c12.195313 0 22.078126-9.886719 22.078126-22.078125v-16.882813c0-12.191406-9.882813-22.074218-22.078126-22.074218zm0 0" fill="#ffc987"/><path d="m434.785156 77.828125-180.570312-76.222656c-5.066406-2.140625-13.359375-2.140625-18.425782 0l-180.574218 76.222656c-5.070313 2.136719-5.046875 5.582031.046875 7.65625l73.058593 29.738281v-25.222656c0-4.960938 4.039063-9 9-9h215.359376c4.960937 0 9 4.039062 9 9v25.222656l73.058593-29.738281c5.09375-2.074219 5.117188-5.519531.046875-7.65625zm0 0" fill="#2e4c89"/><path d="m128.320312 96.324219-26.632812-10.839844c-5.09375-2.074219-5.113281-5.519531-.046875-7.65625l166.574219-70.3125-14-5.910156c-5.066406-2.140625-13.359375-2.140625-18.425782 0l-180.574218 76.222656c-5.070313 2.136719-5.046875 5.582031.046875 7.65625l73.058593 29.738281zm0 0" fill="#293d7c"/><path d="m405.980469 381.011719-101.019531-40.691407v57.769532c0 .644531-.132813 2.148437-1.371094 2.148437-.445313 0-.976563-.1875-1.539063-.539062l-52.078125-32.675781c-1.339844-.839844-3.105468-1.304688-4.972656-1.304688-1.871094 0-3.636719.464844-4.972656 1.304688l-52.082032 32.675781c-.558593.351562-1.089843.539062-1.539062.539062-1.238281 0-1.371094-1.503906-1.371094-2.148437v-57.769532l-101.015625 40.691407c-8.914062 3.589843-16.203125 14.390625-16.203125 23.996093v31.195313c44.609375 46.703125 107.496094 75.796875 177.183594 75.796875 69.683594 0 132.574219-29.09375 177.183594-75.796875v-31.195313c0-9.605468-7.289063-20.40625-16.203125-23.996093zm0 0" fill="#fff"/><path d="m230.457031 430.046875 8.75 8.832031c1.539063 1.554688 3.597657 2.414063 5.792969 2.414063s4.253906-.859375 5.792969-2.414063l8.75-8.832031-3.460938-22.660156 18.207031-25.105469-24.316406-15.257812c-1.339844-.839844-3.105468-1.304688-4.972656-1.304688s-3.632812.464844-4.972656 1.304688l-24.316406 15.257812 18.207031 25.105469zm0 0" fill="#445ea0"/><path d="m230.457031 430.046875 8.75 8.832031c1.539063 1.554688 3.597657 2.414063 5.792969 2.414063.863281 0 1.707031-.140625 2.503906-.394531l-2.894531-2.925782 4.671875-30.585937-23.011719-31.730469-10.558593 6.625 18.207031 25.105469zm0 0" fill="#2e4c89"/><path d="m405.980469 381.011719-70.953125-28.582031-30.066406 30.351562v15.308594c0 .648437-.132813 2.148437-1.371094 2.148437-.445313 0-.976563-.1875-1.539063-.539062l-8.542969-5.359375-43.425781 43.835937c-2.792969 2.820313-7.371093 2.820313-10.167969 0l-43.425781-43.835937-8.539062 5.359375c-.5625.351562-1.09375.539062-1.542969.539062-1.234375 0-1.367188-1.503906-1.367188-2.148437v-15.308594l-30.066406-30.351562-70.953125 28.582031c-8.914062 3.589843-16.203125 14.390625-16.203125 23.996093v31.195313c44.609375 46.703125 107.496094 75.796875 177.183594 75.796875 69.683594 0 132.574219-29.09375 177.183594-75.796875v-31.195313c0-9.605468-7.289063-20.40625-16.203125-23.996093zm0 0" fill="#293d7c"/><path d="m98.632812 375.125-14.613281 5.886719c-8.914062 3.589843-16.203125 14.390625-16.203125 23.996093v31.195313c9.480469 9.925781 19.792969 19.046875 30.8125 27.269531v-88.347656zm0 0" fill="#293d7c"/><path d="m250.617188 338.179688h-11.234376c-20.480468 0-39.746093-6.953126-55.261718-18.777344-.042969.277344-.082032.554687-.082032.839844v77.847656c0 2.886718 1.996094 3.988281 4.441407 2.457031l52.078125-32.675781c2.441406-1.53125 6.4375-1.53125 8.882812 0l52.078125 32.675781c2.441407 1.535156 4.441407.429687 4.441407-2.457031v-77.847656c0-.285157-.039063-.5625-.085938-.839844-15.511719 11.824218-34.777344 18.777344-55.257812 18.777344zm0 0" fill="#d9eafc"/><path d="m184.121094 319.402344c-.042969.277344-.082032.554687-.082032.839844v77.847656c0 2.886718 1.996094 3.988281 4.441407 2.457031l10.59375-6.648437v-65.207032c-5.277344-2.617187-10.285157-5.730468-14.953125-9.289062zm0 0" fill="#c3ddf4"/><path d="m250.617188 338.179688h-11.234376c-8.78125 0-17.332031-1.296876-25.46875-3.683594l27.574219 27.945312c1.929688 1.957032 5.089844 1.957032 7.023438 0l27.574219-27.945312c-8.136719 2.386718-16.6875 3.683594-25.46875 3.683594zm0 0" fill="#ffc987"/><path d="m213.914062 334.496094 27.574219 27.945312c1.929688 1.957032 5.089844 1.957032 7.023438 0l4.167969-4.226562-20.035157-20.304688c-6.421875-.480468-12.691406-1.640625-18.730469-3.414062zm0 0" fill="#f4b978"/><path d="m147.03125 164v82.832031c0 50.921875 41.429688 92.347657 92.351562 92.347657h11.234376c50.921874 0 92.351562-41.425782 92.351562-92.347657v-82.832031zm0 0" fill="#ffe2b8"/><path d="m162.066406 246.832031v-82.648437h-15.035156v82.648437c0 50.921875 41.429688 92.347657 92.351562 92.347657h11.234376c.632812 0 1.265624-.007813 1.898437-.023438-50.046875-1.015625-90.449219-42.039062-90.449219-92.324219zm0 0" fill="#ffc987"/><path d="m208.640625 223.707031c0 7.175781-5.816406 12.988281-12.988281 12.988281s-12.984375-5.8125-12.984375-12.988281v-12.984375c0-7.171875 5.8125-12.984375 12.984375-12.984375s12.988281 5.8125 12.988281 12.984375zm0 0" fill="#2e4c89"/><path d="m307.332031 223.707031c0 7.175781-5.8125 12.988281-12.984375 12.988281s-12.988281-5.8125-12.988281-12.988281v-12.984375c0-7.171875 5.816406-12.984375 12.988281-12.984375s12.984375 5.8125 12.984375 12.984375zm0 0" fill="#2e4c89"/><path d="m245 304.488281c-18.859375 0-34.203125-15.34375-34.203125-34.203125 0-4.144531 3.355469-7.5 7.5-7.5 4.140625 0 7.5 3.355469 7.5 7.5 0 10.589844 8.613281 19.203125 19.203125 19.203125s19.203125-8.613281 19.203125-19.203125c0-4.144531 3.359375-7.5 7.5-7.5 4.144531 0 7.5 3.355469 7.5 7.5 0 18.859375-15.34375 34.203125-34.203125 34.203125zm0 0" fill="#ff9f60"/><path d="m250.195312 246.28125h-7.390624c-5.789063 0-10.5-4.710938-10.5-10.5v-18.566406c0-4.140625 3.359374-7.5 7.5-7.5 4.144531 0 7.5 3.359375 7.5 7.5v14.066406h2.890624c4.140626 0 7.5 3.359375 7.5 7.5s-3.359374 7.5-7.5 7.5zm0 0" fill="#ff9f60"/><path d="m352.679688 80h-215.359376c-5.5 0-10 4.5-10 10v75.183594h235.359376v-75.183594c0-5.5-4.5-10-10-10zm0 0" fill="#293d7c"/><path d="m168 80h-30.679688c-5.5 0-10 4.5-10 10v75.183594h30.679688v-75.183594c0-5.5 4.5-10 10-10zm0 0" fill="#1a2b63"/><path d="m138.84375 426.625c0-2.375 1.941406-4.320312 4.316406-4.320312h25.914063c2.375 0 4.320312 1.945312 4.320312 4.320312v17.761719c0 2.375-1.542969 5.5-3.433593 6.941406l-10.410157 7.957031c-1.890625 1.441406-4.976562 1.441406-6.863281 0l-10.414062-7.957031c-1.886719-1.441406-3.433594-4.566406-3.433594-6.941406v-17.761719zm0 0" fill="#ffaf10"/><path d="m157.433594 451.328125c-1.890625-1.441406-3.433594-4.566406-3.433594-6.941406v-17.761719c0-2.375 1.941406-4.320312 4.320312-4.320312h-15.160156c-2.375 0-4.316406 1.945312-4.316406 4.320312v17.761719c0 2.375 1.542969 5.5 3.429688 6.941406l10.414062 7.957031c1.886719 1.441406 4.976562 1.441406 6.863281 0l4.148438-3.167968zm0 0" fill="#ef9614"/><path d="m343.234375 465.539062c-.304687 0-.605469-.074218-.886719-.21875l-13.601562-7.148437-13.601563 7.148437c-.277343.144532-.582031.21875-.886719.21875-.394531 0-.789062-.121093-1.121093-.363281-.585938-.429687-.878907-1.152343-.757813-1.863281l2.597656-15.148438-11.003906-10.722656c-.519531-.507812-.707031-1.265625-.480468-1.953125.222656-.691406.820312-1.195312 1.539062-1.300781l15.207031-2.207031 6.796875-13.78125c.324219-.648438.984375-1.0625 1.710938-1.0625.726562 0 1.386718.414062 1.710937 1.0625l6.800781 13.78125 15.203126 2.207031c.71875.105469 1.316406.609375 1.539062 1.300781.226562.6875.039062 1.445313-.480469 1.953125l-11.003906 10.722656 2.597656 15.148438c.125.710938-.167969 1.4375-.757812 1.863281-.332031.242188-.726563.363281-1.121094.363281zm0 0" fill="#ffd00d"/><path d="m323.980469 460.171875 2.597656-15.144531-11.003906-10.726563c-.421875-.410156-.609375-.992187-.546875-1.5625l-9.996094 1.449219c-.71875.105469-1.316406.605469-1.539062 1.296875-.222657.691406-.035157 1.449219.480468 1.953125l11.007813 10.726562-2.601563 15.144532c-.121094.714844.171875 1.4375.757813 1.863281.332031.242187.726562.367187 1.125.367187.300781 0 .605469-.074218.886719-.21875l8.816406-4.636718c-.015625-.167969-.011719-.339844.015625-.511719zm0 0" fill="#edc10a"/><g fill="#a5683f"><path d="m209.964844 187.5h-32.953125c-4.140625 0-7.5-3.355469-7.5-7.5 0-4.140625 3.359375-7.5 7.5-7.5h32.953125c4.144531 0 7.5 3.359375 7.5 7.5 0 4.144531-3.355469 7.5-7.5 7.5zm0 0"/><path d="m312.988281 187.5h-32.953125c-4.140625 0-7.5-3.355469-7.5-7.5 0-4.140625 3.359375-7.5 7.5-7.5h32.953125c4.140625 0 7.5 3.359375 7.5 7.5 0 4.144531-3.359375 7.5-7.5 7.5zm0 0"/></g></svg>