<svg id="Capa_1" enable-background="new 0 0 512 512" height="512" viewBox="0 0 512 512" width="512" xmlns="http://www.w3.org/2000/svg"><g><g opacity=".99"><g><path d="m478.33 129.02c0 109.01-88.37 197.38-197.38 197.38h-49.89c-108.34 0-196.42-87.32-197.37-195.65l-.02-1.73c44.11-77.08 127.16-129.02 222.33-129.02s178.22 51.94 222.33 129.02z" fill="#a2e62e"/></g><path d="m512 256c0 63.95-23.46 122.43-62.23 167.3l-193.77 77.12-198.32-82.54c-36.05-44.11-57.68-100.47-57.68-161.88 0-46.2 12.24-89.55 33.67-126.97 22.69 39.63 55.66 72.6 95.28 95.28 24.53 14.06 51.61 24.17 80.37 29.45 14.42 2.67 29.26 4.12 44.41 4.24.75.02 1.51.02 2.27.02 46.24 0 89.62-12.26 127.06-33.71 20.04-11.48 38.38-25.58 54.55-41.86 1.28-1.29 2.55-2.59 3.79-3.91 2.87-3 5.66-6.08 8.37-9.22 10.76-12.44 20.34-25.94 28.56-40.3 21.42 37.42 33.67 80.77 33.67 126.98z" fill="#8bc618"/></g><g opacity=".99"><path d="m253.73 119.91 27.22 196.04-125.258 27.651-98.012-27.651v-22.57l12.22-12.22-12.22-12.22v-74.33l12.22-12.22-12.22-12.22v-50.26h30.7l20.69 20.68 20.68-20.68h57.97l20.69 20.68 20.68-20.68z" fill="#c4573a"/><path d="m280.95 315.95-27.22 196.04c-79.05-.69-149.56-37.21-196.05-94.11v-47.34l12.22-12.22-12.22-12.22v-30.15z" fill="#a74b30"/><path d="m449.77 119.91v50.26l-12.22 12.22.06.06 12.16 12.16v74.33l-12.22 12.22 12.22 12.22v60.98l-20.68 20.69 20.68 20.69v27.56c-46.94 54.32-116.34 88.7-193.77 88.7h-2.27v-392.09h21.06l13.87 13.87 13.87-13.87h32.82l20.69 20.68 20.68-20.68z" fill="#8c3d27"/><g fill="#fdb341"><path d="m293.535 173.021h42.912v42.912h-42.912z" transform="matrix(0 1 -1 0 509.469 -120.514)"/><path d="m293.535 258.845h42.912v42.912h-42.912z" transform="matrix(0 1 -1 0 595.292 -34.691)"/><path d="m293.535 215.933h42.912v42.912z"/><path d="m293.535 373.5v-42.912l42.912 42.912z"/><circle cx="314.443" cy="433.104" r="20.908"/><path d="m370.452 173.021h42.912v42.912h-42.912z" transform="matrix(0 1 -1 0 586.385 -197.431)"/><path d="m370.452 258.845h42.912v42.912h-42.912z" transform="matrix(0 1 -1 0 672.209 -111.607)"/><path d="m370.452 215.933h42.912v42.912z"/><path d="m370.452 373.5v-42.912l42.912 42.912z"/><ellipse cx="391.36" cy="433.104" rx="20.908" ry="20.908" transform="matrix(.23 -.973 .973 .23 -120.074 714.489)"/><path d="m236.034 296.321h-156.834v-44.673h15v29.673h126.834v-29.673h15z"/><path d="m236.833 209.194c-10.768-11.082-23.374-19.668-37.149-25.48l19.711-19.711-10.607-10.606-24.984 24.984c-6.697-1.702-13.59-2.786-20.611-3.241v-30.32h-15v30.321c-7.65.496-15.145 1.748-22.402 3.723l-25.467-25.466-10.607 10.606 20.408 20.407c-13.149 5.793-25.198 14.132-35.548 24.784l-5.076 5.224 5.073 5.227c21.473 22.123 50.281 34.307 81.12 34.307 30.854 0 59.671-12.184 81.144-34.307l5.073-5.227zm-56.61 5.227c0 13.526-11.004 24.531-24.53 24.531s-24.53-11.004-24.53-24.531 11.004-24.531 24.53-24.531 24.53 11.005 24.53 24.531zm-59.667-18.078c-2.801 5.422-4.394 11.566-4.394 18.078 0 6.516 1.594 12.662 4.398 18.087-10.832-4.146-20.89-10.227-29.757-18.084 8.871-7.854 18.928-13.934 29.753-18.081zm70.264 36.173c2.806-5.426 4.402-11.576 4.402-18.095 0-6.516-1.594-12.662-4.398-18.086 10.837 4.147 20.903 10.23 29.78 18.089-8.873 7.861-18.94 13.946-29.784 18.092z"/><path d="m86.7 339.516h141.834v15h-141.834z"/><path d="m86.7 384.157h141.834v15h-141.834z"/><path d="m86.7 428.797h141.834v15h-141.834z"/></g></g></g></svg>