<?xml version="1.0" encoding="UTF-8" standalone="no"?>
<!-- Created with Inkscape (http://www.inkscape.org/) -->
<svg xmlns="http://www.w3.org/2000/svg" xmlns:svg="http://www.w3.org/2000/svg" version="1.1" id="svg1425" width="682.66669" height="682.66669" viewBox="0 0 682.66669 682.66669">
  <defs id="defs1429">
    <clipPath clipPathUnits="userSpaceOnUse" id="clipPath1439">
      <path d="M 0,512 H 512 V 0 H 0 Z" id="path1437"/>
    </clipPath>
  </defs>
  <mask id="custom"><rect id="bg" x="0" y="0" width="100%" height="100%" fill="white"/><g transform="matrix(1.3333333,0,0,-1.3333333,0,682.66667)"/></mask><g mask="url(#custom)"><g id="g1431" transform="matrix(1.3333333,0,0,-1.3333333,0,682.66667)">
    <g id="g1433">
      <g id="g1435" clip-path="url(#clipPath1439)">
        <g id="g1441" transform="translate(421,16)">
          <path d="m 0,0 h -300 c -33.137,0 -60,26.863 -60,60 h 330" style="fill:none;stroke:#000000;stroke-width:30;stroke-linecap:butt;stroke-linejoin:miter;stroke-miterlimit:10;stroke-dasharray:none;stroke-opacity:1" id="path1443"/>
        </g>
        <g id="g1445" transform="translate(391,91)">
          <path d="m 0,0 v -45 c 0,-16.568 13.432,-30 30,-30 16.568,0 30,13.432 30,30 v 210 l -30,30 30,30 V 405 H -270 V 300 l 30,-30 -30,-30 V -15" style="fill:none;stroke:#000000;stroke-width:30;stroke-linecap:butt;stroke-linejoin:miter;stroke-miterlimit:10;stroke-dasharray:none;stroke-opacity:1" id="path1447"/>
        </g>
        <g id="g1449" transform="translate(368.5,391)">
          <path d="M 0,0 C 0,-24.853 -16.789,-45 -37.5,-45 -58.211,-45 -75,-24.853 -75,0 -75,24.853 -58.211,45 -37.5,45 -16.789,45 0,24.853 0,0 Z" style="fill:none;stroke:#000000;stroke-width:30;stroke-linecap:butt;stroke-linejoin:miter;stroke-miterlimit:10;stroke-dasharray:none;stroke-opacity:1" id="path1451"/>
        </g>
        <g id="g1453" transform="translate(331,346)">
          <path d="M 0,0 V -75" style="fill:none;stroke:#000000;stroke-width:30;stroke-linecap:butt;stroke-linejoin:miter;stroke-miterlimit:10;stroke-dasharray:none;stroke-opacity:1" id="path1455"/>
        </g>
        <g id="g1457" transform="translate(256,346)">
          <path d="M 0,0 H 150" style="fill:none;stroke:#000000;stroke-width:30;stroke-linecap:butt;stroke-linejoin:miter;stroke-miterlimit:10;stroke-dasharray:none;stroke-opacity:1" id="path1459"/>
        </g>
        <g id="g1461" transform="translate(181,421)">
          <path d="M 0,0 30,-30 60,0" style="fill:none;stroke:#000000;stroke-width:30;stroke-linecap:butt;stroke-linejoin:miter;stroke-miterlimit:10;stroke-dasharray:none;stroke-opacity:1" id="path1463"/>
        </g>
        <g id="g1465" transform="translate(181,241)">
          <path d="M 0,0 V 45 H 60 V 0" style="fill:none;stroke:#000000;stroke-width:30;stroke-linecap:butt;stroke-linejoin:miter;stroke-miterlimit:10;stroke-dasharray:none;stroke-opacity:1" id="path1467"/>
        </g>
        <g id="g1469" transform="translate(166,196)">
          <path d="M 0,0 H 90" style="fill:none;stroke:#000000;stroke-width:30;stroke-linecap:butt;stroke-linejoin:miter;stroke-miterlimit:10;stroke-dasharray:none;stroke-opacity:1" id="path1471"/>
        </g>
        <g id="g1473" transform="translate(301,226)">
          <path d="M 0,0 15,-45 45,-15 75,-45 90,0" style="fill:none;stroke:#000000;stroke-width:30;stroke-linecap:butt;stroke-linejoin:miter;stroke-miterlimit:10;stroke-dasharray:none;stroke-opacity:1" id="path1475"/>
        </g>
        <g id="g1477" transform="translate(181,151)">
          <path d="M 0,0 V -30" style="fill:none;stroke:#000000;stroke-width:30;stroke-linecap:butt;stroke-linejoin:miter;stroke-miterlimit:10;stroke-dasharray:none;stroke-opacity:1" id="path1479"/>
        </g>
        <g id="g1481" transform="translate(241,151)">
          <path d="M 0,0 V -30" style="fill:none;stroke:#000000;stroke-width:30;stroke-linecap:butt;stroke-linejoin:miter;stroke-miterlimit:10;stroke-dasharray:none;stroke-opacity:1" id="path1483"/>
        </g>
      </g>
    </g>
  </g></g>
</svg>
