<?xml version="1.0" encoding="UTF-8" standalone="no"?>
<!-- Created with Inkscape (http://www.inkscape.org/) -->
<svg xmlns="http://www.w3.org/2000/svg" xmlns:svg="http://www.w3.org/2000/svg" version="1.1" id="svg3216" width="682.66669" height="682.66669" viewBox="0 0 682.66669 682.66669">
  <defs id="defs3220">
    <clipPath clipPathUnits="userSpaceOnUse" id="clipPath3230">
      <path d="M 0,512 H 512 V 0 H 0 Z" id="path3228"/>
    </clipPath>
  </defs>
  <mask id="custom"><rect id="bg" x="0" y="0" width="100%" height="100%" fill="white"/><g transform="matrix(1.3333333,0,0,-1.3333333,0,682.66667)"/></mask><g mask="url(#custom)"><g id="g3222" transform="matrix(1.3333333,0,0,-1.3333333,0,682.66667)">
    <g id="g3224">
      <g id="g3226" clip-path="url(#clipPath3230)">
        <g id="g3232" transform="translate(316,377)">
          <path d="m 0,0 h -120 c -24.576,0 -44.5,19.924 -44.5,44.5 V 60 h 209 V 44.5 C 44.5,19.924 24.576,0 0,0 Z" style="fill:none;stroke:#000000;stroke-width:30;stroke-linecap:butt;stroke-linejoin:miter;stroke-miterlimit:10;stroke-dasharray:none;stroke-opacity:1" id="path3234"/>
        </g>
        <g id="g3236" transform="translate(286,437)">
          <path d="M 0,0 H -60 L -75,60 H 15 Z" style="fill:none;stroke:#000000;stroke-width:30;stroke-linecap:butt;stroke-linejoin:miter;stroke-miterlimit:10;stroke-dasharray:none;stroke-opacity:1" id="path3238"/>
        </g>
        <g id="g3240" transform="translate(339.0977,72.3857)">
          <path d="m 0,0 c 4.444,10.656 6.902,22.348 6.902,34.614 0,49.705 -40.295,90 -90,90 -49.705,0 -90,-40.295 -90,-90 0,-12.266 2.458,-23.958 6.903,-34.614 -21.67,-9.048 -36.903,-30.436 -36.903,-55.386 h 240 C 36.902,-30.436 21.67,-9.048 0,0 Z" style="fill:none;stroke:#000000;stroke-width:30;stroke-linecap:butt;stroke-linejoin:miter;stroke-miterlimit:10;stroke-dasharray:none;stroke-opacity:1" id="path3242"/>
        </g>
        <g id="g3244" transform="translate(256,317)">
          <path d="M 0,0 V 60" style="fill:none;stroke:#000000;stroke-width:30;stroke-linecap:butt;stroke-linejoin:miter;stroke-miterlimit:10;stroke-dasharray:none;stroke-opacity:1" id="path3246"/>
        </g>
        <g id="g3248" transform="translate(496,347)">
          <path d="m 0,0 h -60 v 90 c 0,16.568 13.432,30 30,30 16.568,0 30,-13.432 30,-30 z" style="fill:none;stroke:#000000;stroke-width:30;stroke-linecap:butt;stroke-linejoin:miter;stroke-miterlimit:10;stroke-dasharray:none;stroke-opacity:1" id="path3250"/>
        </g>
        <g id="g3252" transform="translate(466,512)">
          <path d="M 0,0 V -45" style="fill:none;stroke:#000000;stroke-width:30;stroke-linecap:butt;stroke-linejoin:miter;stroke-miterlimit:10;stroke-dasharray:none;stroke-opacity:1" id="path3254"/>
        </g>
        <g id="g3256" transform="translate(466,347)">
          <path d="m 0,0 v -165 c 0,-16.568 -13.432,-30 -30,-30 -16.568,0 -30,13.432 -30,30 0,41.422 -33.578,75 -75,75 h -45" style="fill:none;stroke:#000000;stroke-width:30;stroke-linecap:butt;stroke-linejoin:miter;stroke-miterlimit:10;stroke-dasharray:none;stroke-opacity:1" id="path3258"/>
        </g>
        <g id="g3260" transform="translate(16,347)">
          <path d="M 0,0 H 60 V 90 C 60,106.568 46.568,120 30,120 13.432,120 0,106.568 0,90 Z" style="fill:none;stroke:#000000;stroke-width:30;stroke-linecap:butt;stroke-linejoin:miter;stroke-miterlimit:10;stroke-dasharray:none;stroke-opacity:1" id="path3262"/>
        </g>
        <g id="g3264" transform="translate(46,512)">
          <path d="M 0,0 V -45" style="fill:none;stroke:#000000;stroke-width:30;stroke-linecap:butt;stroke-linejoin:miter;stroke-miterlimit:10;stroke-dasharray:none;stroke-opacity:1" id="path3266"/>
        </g>
        <g id="g3268" transform="translate(46,347)">
          <path d="m 0,0 v -165 c 0,-16.568 13.432,-30 30,-30 16.568,0 30,13.432 30,30 0,41.422 33.578,75 75,75 h 45" style="fill:none;stroke:#000000;stroke-width:30;stroke-linecap:butt;stroke-linejoin:miter;stroke-miterlimit:10;stroke-dasharray:none;stroke-opacity:1" id="path3270"/>
        </g>
        <g id="g3272" transform="translate(91,17)">
          <path d="M 0,0 H 330" style="fill:none;stroke:#000000;stroke-width:30;stroke-linecap:butt;stroke-linejoin:miter;stroke-miterlimit:10;stroke-dasharray:none;stroke-opacity:1" id="path3274"/>
        </g>
        <g id="g3276" transform="translate(266.6064,117.6064)">
          <path d="M 0,0 -21.213,-21.213" style="fill:none;stroke:#000000;stroke-width:30;stroke-linecap:butt;stroke-linejoin:miter;stroke-miterlimit:10;stroke-dasharray:none;stroke-opacity:1" id="path3278"/>
        </g>
        <path d="m 286,197 h -60 v 120 h 60 z" style="fill:none;stroke:#000000;stroke-width:30;stroke-linecap:butt;stroke-linejoin:miter;stroke-miterlimit:10;stroke-dasharray:none;stroke-opacity:1" id="path3280"/>
      </g>
    </g>
  </g></g>
</svg>
