<svg id="Capa_1" enable-background="new 0 0 512 512" height="512" viewBox="0 0 512 512" width="512" xmlns="http://www.w3.org/2000/svg"><g><g opacity=".99"><g><path d="m478.33 129.02c0 109.01-88.37 197.38-197.38 197.38h-49.89c-108.34 0-196.42-87.32-197.37-195.65l-.02-1.73c44.11-77.08 127.16-129.02 222.33-129.02s178.22 51.94 222.33 129.02z" fill="#27a6fe"/></g><path d="m512 256c0 98.29-55.4 183.64-136.67 226.54h-238.66c-81.27-42.9-136.67-128.25-136.67-226.54 0-46.2 12.24-89.55 33.67-126.97 22.69 39.63 55.66 72.6 95.28 95.28 24.53 14.06 51.61 24.17 80.37 29.45 15.14 2.8 30.74 4.26 46.68 4.26 46.24 0 89.62-12.26 127.06-33.71 39.62-22.69 72.59-55.67 95.27-95.29 21.42 37.42 33.67 80.77 33.67 126.98z" fill="#0693fb"/></g><g opacity=".99"><path d="m256 386.51 44.85 63.41-44.85 62.08c-43.09 0-83.7-10.65-119.33-29.46l9.23-96.03z" fill="#b4d8ed"/><path d="m375.33 482.54c-35.63 18.81-76.24 29.46-119.33 29.46v-125.49h110.1z" fill="#a4d3ea"/><path d="m256 88.56 80.468 167.44-80.468 163.17h-66.73l-72.52-148.15 14.73-153.29c1.6-16.54 15.5-29.17 32.12-29.17z" fill="#eaf6ff"/><path d="m395.25 271.02-72.52 148.15h-66.73v-330.61h92.4c16.62 0 30.52 12.63 32.12 29.17z" fill="#d8ecfe"/><path d="m256 170.82 13.605 75.193-13.605 43.807h-34.5l23.76-119z" fill="#d8ecfe"/><path d="m290.5 289.82h-34.5v-119h10.74z" fill="#c7e4f9"/><g><ellipse cx="202.985" cy="194.023" fill="#b4d8ed" rx="23.202" ry="23.202" transform="matrix(.922 -.388 .388 .922 -59.396 94.002)"/><ellipse cx="309.01" cy="194.023" fill="#a4d3ea" rx="23.202" ry="23.202" transform="matrix(.922 -.388 .388 .922 -51.083 135.157)"/></g><path d="m256 154.92 17.25 15.9-17.25 13.67h-83.95v-29.57z" fill="#d8ecfe"/><path d="m256 326.4 17.25 15.66-17.25 15.66h-44.85v-31.32z" fill="#b4d8ed"/><path d="m189.274 419.174c-46.516 0-82.918-40.069-78.467-86.372l5.939-61.778h36.268z" fill="#d8ecfe"/><path d="m322.73 419.17 36.26-148.15h36.26l5.94 61.78c4.45 46.3-31.95 86.37-78.46 86.37z" fill="#c7e4f9"/></g><path d="m256 154.92h83.94v29.57h-83.94z" fill="#c7e4f9" opacity=".99"/><path d="m256 326.4h44.85v31.32h-44.85z" fill="#a4d3ea" opacity=".99"/></g></svg>