<svg id="Capa_1" enable-background="new 0 0 512 512" height="512" viewBox="0 0 512 512" width="512" xmlns="http://www.w3.org/2000/svg"><g><g opacity=".99"><g><path d="m478.33 129.02c0 109.01-88.37 197.38-197.38 197.38h-49.89c-108.34 0-196.42-87.32-197.37-195.65l-.02-1.73c44.11-77.08 127.16-129.02 222.33-129.02s178.22 51.94 222.33 129.02z" fill="#a2e62e"/></g><path d="m512 256c0 84.14-40.6 158.81-103.28 205.47h-305.44c-62.68-46.66-103.28-121.33-103.28-205.47 0-46.2 12.24-89.55 33.67-126.97 22.69 39.63 55.66 72.6 95.28 95.28 18.26 10.47 37.94 18.75 58.67 24.47 7.11 1.97 14.35 3.63 21.7 4.98 15.14 2.8 30.74 4.26 46.68 4.26 23.68 0 46.62-3.22 68.38-9.24 20.74-5.73 40.42-14 58.68-24.47 39.62-22.69 72.59-55.67 95.27-95.29 21.42 37.42 33.67 80.77 33.67 126.98z" fill="#8bc618"/><path d="m305.17 324.92-49.17 153.62-33.05 31.35c-8.41-1.09-16.68-2.58-24.81-4.46l-15.56-13.67h-26.49c-6.68-2.83-13.21-5.94-19.58-9.31l-27.21-114.66h34.52l8.97-99.41h33.28l1.55-19.6 8.79-110.93h59.59z" fill="#fd4755"/><path d="m402.7 367.79-27.21 114.66c-6.37 3.37-12.9 6.48-19.58 9.31h-26.49l-15.56 13.67c-8.13 1.88-16.4 3.37-24.81 4.46l-33.05-31.35v-340.69h59.59l8.79 110.93 1.55 19.6h33.28l8.97 99.41z" fill="#fb2b3a"/><g><path d="m256 35.67 10.299 88.021-10.299 39.369h-79.28l-25.31-25.61c33.23 0 62.85-19.02 82.01-35.18 8.97-7.56 14.08-18.74 14.08-30.48v-36.12z" fill="#56201c"/><path d="m256 200 16.525 45.561-16.525 37.519h-120.85l-38.6-25.61c88.06 0 159.45-57.47 159.45-57.47z" fill="#56201c"/><g><path d="m136.51 376.2v106.25c-11.64-6.15-22.74-13.17-33.23-20.98v-85.27z" fill="#fb2b3a"/><path d="m408.72 376.2v85.27c-10.49 7.81-21.59 14.83-33.23 20.98v-106.25z" fill="#e41f2d"/></g><path d="m256 303.56 22.016 41.54-22.016 41.54h-152.58l-48.73-25.62c111.18 0 201.31-57.46 201.31-57.46z" fill="#56201c"/><path d="m256 424.2 22.016 54.335-22.016 33.465c-11.2 0-22.23-.72-33.05-2.11v-52.65c0-18.25 14.8-33.04 33.04-33.04z" fill="#56201c"/><g><path d="m198.14 472.66v32.77c-14.53-3.35-28.58-7.95-42.05-13.67v-19.1c0-11.61 9.41-21.02 21.02-21.02s21.03 9.41 21.03 21.02z" fill="#56201c"/><path d="m355.91 472.66v19.1c-13.47 5.72-27.52 10.32-42.05 13.67v-32.77c0-11.61 9.41-21.02 21.03-21.02 11.61 0 21.02 9.41 21.02 21.02z" fill="#3f120c"/></g><g><ellipse cx="218.083" cy="190.069" fill="#56201c" rx="15.901" ry="15.901" transform="matrix(.707 -.707 .707 .707 -70.524 209.878)"/><ellipse cx="293.917" cy="190.069" fill="#3f120c" rx="15.901" ry="15.901" transform="matrix(.256 -.967 .967 .256 35.064 425.671)"/></g><g><ellipse cx="177.113" cy="312.882" fill="#56201c" rx="20.389" ry="20.389" transform="matrix(.228 -.974 .974 .228 -167.885 414.077)"/><ellipse cx="334.887" cy="312.882" fill="#3f120c" rx="20.389" ry="20.389" transform="matrix(.707 -.707 .707 .707 -123.155 328.442)"/></g></g></g><g fill="#3f120c"><path d="m335.28 163.06h-79.28v-127.39h8.5v36.12c0 11.74 5.11 22.92 14.08 30.48 19.16 16.16 48.78 35.18 82.01 35.18z"/><path d="m376.86 283.08h-120.86v-83.08s71.39 57.47 159.45 57.47z"/><path d="m457.31 361.02-48.72 25.62h-152.59v-83.08s90.13 57.46 201.31 57.46z"/><path d="m289.05 457.24v52.65c-10.82 1.39-21.85 2.11-33.05 2.11v-87.8c18.26.01 33.05 14.79 33.05 33.04z"/></g></g></svg>