<svg id="Capa_1" enable-background="new 0 0 512 512" height="512" viewBox="0 0 512 512" width="512" xmlns="http://www.w3.org/2000/svg"><g><g opacity=".99"><g><path d="m478.33 129.02c0 109.01-88.37 197.38-197.38 197.38h-49.89c-108.34 0-196.42-87.32-197.37-195.65l-.02-1.73c44.11-77.08 127.16-129.02 222.33-129.02s178.22 51.94 222.33 129.02z" fill="#a2e62e"/></g><path d="m512 256c0 79.38-36.13 150.32-92.84 197.27h-326.32c-56.71-46.95-92.84-117.89-92.84-197.27 0-46.2 12.24-89.55 33.67-126.97 15.38 26.86 35.48 50.66 59.17 70.27 11.26 9.32 23.34 17.7 36.11 25.01 24.53 14.06 51.61 24.17 80.37 29.45 15.14 2.8 30.74 4.26 46.68 4.26 13.78 0 27.31-1.09 40.5-3.19 31.07-4.93 60.28-15.46 86.56-30.52 12.76-7.31 24.84-15.69 36.1-25.02 23.7-19.61 43.8-43.41 59.17-70.27 21.42 37.42 33.67 80.77 33.67 126.98z" fill="#8bc618"/></g><g><path d="m296.5 254.83-40.5-175.33h-163.16v373.77c44.3 36.68 101.16 58.73 163.16 58.73l50.78-212.67z" fill="#662d2d"/><path d="m419.16 79.5v373.77c-44.3 36.68-101.16 58.73-163.16 58.73v-432.5z" fill="#56201c"/><g><path d="m312.18 294.03-56.18 119.5-90.51 49.73h-38.19v-349.31h128.7z" fill="#27a6fe"/><path d="m384.7 113.95v349.31h-38.19l-90.51-49.73v-299.58z" fill="#0693fb"/><path d="m256 193.26 28.09 95.347-28.09 84.613-56.18 7.14v-130.92c0-31.03 25.15-56.18 56.18-56.18z" fill="#662d2d"/><path d="m312.18 249.44v116.64l-56.18 7.14v-179.96c15.52 0 29.56 6.29 39.72 16.46 10.17 10.16 16.46 24.21 16.46 39.72z" fill="#56201c"/><g><g><path d="m256 320.535 20.388 33.251-20.388 46.601-90.51-27.634v-17.893c0-18.958 15.368-34.326 34.326-34.326h56.184z" fill="#eaf6ff"/><path d="m346.51 354.86v17.892l-90.51 27.635v-79.852h56.18c9.479 0 18.06 3.844 24.275 10.055 6.211 6.21 10.055 14.791 10.055 24.27z" fill="#d8ecfe" opacity=".99"/></g><path d="m256 243.57 15.9 52.18-15.9 65.47h-15.49c-11.24 0-21.41-4.55-28.78-11.91-7.36-7.36-11.91-17.54-11.91-28.78h22.09c.26 0 .52 0 .78-.01 14.19-.48 18.56-19.77 5.99-26.39-10.76-5.67-18.09-16.96-18.09-29.97v-11.43c0-9.35 3.79-17.81 9.91-23.94 6.12-6.12 14.59-9.91 23.94-9.91 0 4.96 1.12 9.66 3.13 13.86 2.01 4.19 4.89 7.88 8.43 10.83z" fill="#ffa78f"/><path d="m256 372.753 28.09 45.255-28.09 45.255-90.51-49.73v-40.78z" fill="#d8ecfe" opacity=".99"/><path d="m256 372.753h90.51v90.51h-90.51z" fill="#c7e4f9"/><path d="m256 413.533 20.388 26.915-20.388 22.815h-90.51v-49.73z" fill="#eaf6ff"/><path d="m296.775 413.531v49.73h49.734c0-27.465-22.265-49.73-49.73-49.73z" fill="#ffa78f"/></g><path d="m312.18 320.53c0 22.48-18.22 40.69-40.69 40.69h-15.49v-117.65c5.58 4.65 12.75 7.45 20.57 7.45h1.67c.03.56.05 1.13.05 1.71v45.28c0 12.44 10.08 22.52 22.52 22.52z" fill="#f89580"/><path d="m256 413.533h40.776v49.729h-40.776z" fill="#d8ecfe" opacity=".99"/></g></g></g></svg>