<svg id="Capa_1" enable-background="new 0 0 512 512" height="512" viewBox="0 0 512 512" width="512" xmlns="http://www.w3.org/2000/svg"><g><g><path d="m478.33 129.02c0 109.01-88.37 197.38-197.38 197.38h-49.89c-108.34 0-196.42-87.32-197.37-195.65l-.02-1.73c44.11-77.08 127.16-129.02 222.33-129.02s178.22 51.94 222.33 129.02z" fill="#fea613"/></g><path d="m512 256c0 65.23-24.41 124.77-64.58 169.98l-191.42 65.77-191.42-65.77c-40.17-45.21-64.58-104.75-64.58-169.98 0-46.2 12.24-89.55 33.66-126.97h.01c22.69 39.63 55.66 72.6 95.28 95.28 24.53 14.06 51.61 24.17 80.37 29.45 15.14 2.8 30.74 4.26 46.68 4.26 46.24 0 89.62-12.26 127.06-33.71 39.62-22.69 72.59-55.67 95.27-95.29 21.42 37.42 33.67 80.77 33.67 126.98z" fill="#fb8801"/><g><g><path d="m295.76 61.96 13.063 192.5-54.913 194.07-.95 8.76h-81.87l5.75-53.01 31.245-288.716 19.415-10.284 5.43-50.12z" fill="#eaf6ff"/><path d="m369.891 133.398-35.061 323.892h-81.87l.95-8.76 41.85-386.57 62.82 6.8-5.42 50.12z" fill="#d8ecfe"/><path d="m308.434 457.282h-55.465l.948-8.757 2.443-22.545h18.228z" fill="#d8ecfe"/><path d="m216.693 149.062-2.685 24.809 24.808 2.685 2.685-24.808c.742-6.851-4.211-13.005-11.062-13.747-6.85-.742-13.004 4.21-13.746 11.061z" fill="#a4d3ea" opacity=".99"/><path d="m254.31 153.134-2.685 24.809 24.808 2.686 2.685-24.809c.742-6.851-4.211-13.006-11.061-13.747-6.851-.742-13.006 4.21-13.747 11.061z" fill="#a4d3ea" opacity=".99"/><path d="m291.926 157.206-2.685 24.809 24.809 2.685 2.685-24.808c.742-6.851-4.211-13.005-11.061-13.747-6.851-.742-13.006 4.21-13.748 11.061z" fill="#8ec6dd" opacity=".99"/><path d="m329.543 161.277-2.685 24.809 24.809 2.685 2.685-24.808c.742-6.851-4.211-13.005-11.061-13.747-6.852-.742-13.006 4.211-13.748 11.061z" fill="#8ec6dd" opacity=".99"/><g><path d="m242.324 88.071-2.686 24.808 24.809 2.686 2.685-24.809c.742-6.851-4.211-13.005-11.061-13.747-6.851-.742-13.005 4.211-13.747 11.062z" fill="#a4d3ea" opacity=".99"/><path d="m293.69 81.07 4.82 21.41-8.85 15.81-12.4-1.34 2.68-24.8c.37-3.43 2.09-6.38 4.59-8.39 2.48-2 5.73-3.06 9.16-2.69z" fill="#a4d3ea" opacity=".99"/><path d="m317.557 96.214-2.685 24.808 24.808 2.686 2.685-24.809c.742-6.851-4.211-13.005-11.061-13.747-6.851-.741-13.005 4.212-13.747 11.062z" fill="#8ec6dd" opacity=".99"/></g><g fill="#d8ecfe"><path d="m262.524 93.362h19.788v10.858h-19.788z" transform="matrix(.994 .108 -.108 .994 12.214 -28.744)"/><path d="m237.34 153.214h19.788v10.858h-19.788z" transform="matrix(.994 .108 -.108 .994 18.508 -25.685)"/><path d="m285.44 157.32 3.01 5.88-4.18 4.91-9.84-1.06 1.16-10.8z"/></g><path d="m312.573 161.357h19.788v10.858h-19.788z" fill="#c7e4f9" transform="matrix(.994 .108 -.108 .994 19.82 -33.732)"/><path d="m209.871 212.089-2.685 24.809 24.809 2.685 2.685-24.809c.742-6.851-4.211-13.005-11.061-13.747-6.852-.741-13.007 4.212-13.748 11.062z" fill="#a4d3ea" opacity=".99"/><path d="m247.487 216.161-2.685 24.809 24.809 2.685 2.685-24.809c.742-6.851-4.211-13.005-11.061-13.747-6.851-.741-13.006 4.212-13.748 11.062z" fill="#a4d3ea" opacity=".99"/><path d="m285.104 220.233-2.685 24.809 24.808 2.685 2.686-24.809c.741-6.851-4.211-13.005-11.062-13.747-6.851-.741-13.005 4.211-13.747 11.062z" fill="#8ec6dd" opacity=".99"/><path d="m322.721 224.305-2.685 24.809 24.808 2.685 2.686-24.809c.741-6.851-4.211-13.005-11.062-13.747-6.851-.741-13.006 4.211-13.747 11.062z" fill="#8ec6dd" opacity=".99"/><path d="m230.518 216.241h19.788v10.858h-19.788z" fill="#d8ecfe" transform="matrix(.994 .108 -.108 .994 25.252 -24.586)"/><path d="m278.61 220.35 4.335 5.93-5.505 4.86-9.84-1.06 1.17-10.8z" fill="#d8ecfe"/><path d="m305.751 224.385h19.788v10.858h-19.788z" fill="#c7e4f9" transform="matrix(.994 .108 -.108 .994 26.566 -32.635)"/><path d="m203.048 275.117-2.685 24.809 24.808 2.685 2.686-24.809c.742-6.851-4.211-13.005-11.062-13.747-6.85-.741-13.005 4.211-13.747 11.062z" fill="#a4d3ea" opacity=".99"/><path d="m240.665 279.189-2.685 24.809 24.808 2.685 2.686-24.809c.741-6.851-4.211-13.005-11.062-13.747-6.851-.742-13.005 4.211-13.747 11.062z" fill="#a4d3ea" opacity=".99"/><path d="m278.282 283.26-2.685 24.809 24.809 2.685 2.685-24.809c.742-6.851-4.211-13.005-11.061-13.747-6.852-.741-13.007 4.212-13.748 11.062z" fill="#8ec6dd" opacity=".99"/><path d="m315.898 287.332-2.685 24.809 24.809 2.685 2.685-24.809c.742-6.851-4.211-13.005-11.061-13.747-6.852-.741-13.006 4.212-13.748 11.062z" fill="#8ec6dd" opacity=".99"/><path d="m223.695 279.269h19.788v10.858h-19.788z" fill="#d8ecfe" transform="matrix(.994 .108 -.108 .994 31.992 -23.483)"/><path d="m271.79 283.37 4.335 5.93-5.505 4.87-9.84-1.07 1.17-10.8z" fill="#d8ecfe"/><path d="m298.929 287.412h19.788v10.858h-19.788z" fill="#c7e4f9" transform="matrix(.994 .108 -.108 .994 33.309 -31.535)"/><path d="m196.226 338.144-2.686 24.809 24.809 2.685 2.685-24.809c.742-6.851-4.211-13.005-11.061-13.747-6.851-.741-13.006 4.211-13.747 11.062z" fill="#a4d3ea" opacity=".99"/><path d="m233.843 342.216-2.686 24.809 24.809 2.685 2.685-24.809c.742-6.851-4.211-13.005-11.062-13.747-6.85-.741-13.005 4.211-13.746 11.062z" fill="#a4d3ea" opacity=".99"/><path d="m271.459 346.288-2.685 24.809 24.808 2.685 2.686-24.809c.741-6.851-4.211-13.005-11.062-13.747-6.851-.741-13.005 4.211-13.747 11.062z" fill="#8ec6dd" opacity=".99"/><path d="m309.076 350.36-2.685 24.809 24.809 2.686 2.685-24.809c.742-6.851-4.211-13.005-11.062-13.747-6.851-.743-13.006 4.21-13.747 11.061z" fill="#8ec6dd" opacity=".99"/><path d="m216.873 342.296h19.788v10.858h-19.788z" fill="#d8ecfe" transform="matrix(.994 .108 -.108 .994 38.737 -22.384)"/><path d="m264.97 346.4 4.335 5.935-5.505 4.865-9.84-1.07 1.17-10.79z" fill="#d8ecfe"/><path d="m292.106 350.44h19.788v10.858h-19.788z" fill="#c7e4f9" transform="matrix(.994 .108 -.108 .994 40.05 -30.433)"/><path d="m189.404 401.172-2.685 24.809 24.808 2.685 2.686-24.809c.742-6.851-4.211-13.005-11.062-13.747-6.851-.742-13.006 4.211-13.747 11.062z" fill="#a4d3ea" opacity=".99"/><path d="m227.02 405.243-2.685 24.809 24.808 2.685 2.686-24.809c.742-6.851-4.211-13.005-11.062-13.747-6.851-.741-13.005 4.212-13.747 11.062z" fill="#a4d3ea" opacity=".99"/><path d="m264.637 409.315-2.685 24.809 24.809 2.685 2.685-24.809c.742-6.851-4.211-13.005-11.061-13.747-6.852-.741-13.007 4.212-13.748 11.062z" fill="#8ec6dd" opacity=".99"/><path d="m302.253 413.387-2.685 24.809 24.809 2.686 2.685-24.809c.742-6.851-4.211-13.006-11.061-13.747-6.851-.742-13.006 4.21-13.748 11.061z" fill="#8ec6dd" opacity=".99"/></g><path d="m304.75 94.83-2.69 24.81-12.4-1.35 4.03-37.22c6.85.75 11.8 6.91 11.06 13.76z" fill="#8ec6dd" opacity=".99"/><path d="m300.46 97.469h19.788v10.858h-19.788z" fill="#c7e4f9" transform="matrix(.994 .108 -.108 .994 12.876 -32.803)"/><path d="m279.546 33.951h19.512v175.325h-19.512z" fill="#d8ecfe" transform="matrix(.108 -.994 .994 .108 137.262 396.148)"/><path d="m272.496 99.059h19.512v175.325h-19.512z" fill="#d8ecfe" transform="matrix(.108 -.994 .994 .108 66.241 447.241)"/><path d="m265.675 162.08h19.512v175.325h-19.512z" fill="#d8ecfe" transform="matrix(.108 -.994 .994 .108 -2.502 496.698)"/><path d="m258.851 225.114h19.512v175.325h-19.512z" fill="#d8ecfe" transform="matrix(.108 -.994 .994 .108 -71.258 546.165)"/><path d="m252.03 288.135h19.512v175.325h-19.512z" fill="#d8ecfe" transform="matrix(.108 -.994 .994 .108 -140.001 595.622)"/><g fill="#c7e4f9"><path d="m323.122 82.499h19.512v87.662h-19.512z" transform="matrix(.108 -.994 .994 .108 171.46 443.681)"/><path d="m316.073 147.607h19.512v87.663h-19.512z" transform="matrix(.108 -.994 .994 .108 100.438 494.774)"/><path d="m309.251 210.628h19.512v87.663h-19.512z" transform="matrix(.108 -.994 .994 .108 31.695 544.23)"/><path d="m302.428 273.662h19.512v87.662h-19.512z" transform="matrix(.108 -.994 .994 .108 -37.062 593.697)"/><path d="m295.606 336.683h19.512v87.663h-19.512z" transform="matrix(.108 -.994 .994 .108 -105.804 643.153)"/><path d="m295.28 158.38-1.17 10.8-9.84-1.07 1.17-10.79z"/><path d="m295.28 158.38-9.84-1.06v-.01z"/><path d="m288.45 221.41-1.16 10.8-9.85-1.06v-.01l1.17-10.79z"/><path d="m270.693 284.352h10.863v9.897h-10.863z" transform="matrix(.108 -.994 .994 .108 -41.229 532.664)"/><path d="m263.873 347.386h10.863v9.898h-10.863z" transform="matrix(.108 -.994 .994 .108 -109.988 582.122)"/><path d="m267.99 410.49-9.84-1.06v-.01z"/></g></g><path d="m306.705 472.537-50.345 39.463h-.36c-76.15 0-144.53-33.25-191.42-86.02h191.78z" fill="#a2e62e"/><path d="m447.42 425.98c-46.82 52.69-115.05 85.91-191.06 86.02v-86.02z" fill="#8bc618"/></g></svg>