<svg id="Capa_1" enable-background="new 0 0 512 512" height="512" viewBox="0 0 512 512" width="512" xmlns="http://www.w3.org/2000/svg"><g><path d="m478.33 129.02c0 109.01-88.37 197.38-197.38 197.38h-49.89c-108.34 0-196.42-87.32-197.37-195.65l-.02-1.73c44.11-77.08 127.16-129.02 222.33-129.02s178.22 51.94 222.33 129.02z" fill="#fea613" opacity=".99"/><path d="m512 256c0 83.88-40.34 158.33-102.68 205.03l-306.63.01c-62.34-46.7-102.69-121.16-102.69-205.04 0-46.2 12.24-89.55 33.67-126.97 22.69 39.63 55.66 72.6 95.28 95.28 14.68 8.41 30.26 15.41 46.58 20.8 10.95 3.63 22.24 6.53 33.79 8.65.9.17 1.81.33 2.72.48 7.68 1.34 15.48 2.33 23.38 2.96 6.79.55 13.65.82 20.58.82 6.82 0 13.59-.27 20.28-.8 20.84-1.62 40.99-5.75 60.13-12.09 16.34-5.4 31.95-12.4 46.65-20.82 39.62-22.69 72.58-55.66 95.27-95.28 21.43 37.42 33.67 80.77 33.67 126.97z" fill="#fb8801" opacity=".99"/><g opacity=".99"><g><path d="m240.03 387.27-43.99 117.66c-34.32-8.23-65.96-23.38-93.35-43.89-.32-.97-.64-1.95-.93-2.93-3-10.09-5.05-20.6-6.02-31.41l25.99-30.35-21.21-25.84c7.9-29.54 23.98-55.74 45.68-76 14.4-13.45 24.42-30.65 29.33-49.4 2.31-8.75 3.49-17.83 3.49-27.03v-6.5l36.36-28.1z" fill="#c4573a"/><path d="m308.97 376.06-52.97 135.94c-14.45 0-28.62-1.2-42.42-3.5-5.92-.98-11.77-2.17-17.54-3.57-10.12-8.9-18.1-25.62-21.43-46.82-1.59-10.09-2.67-20.6-3.18-31.41-.23-4.8-.34-9.66-.34-14.58 0-14.39.99-28.34 2.86-41.61 4.17-29.54 12.66-55.74 24.11-76 6.35-11.23 11.08-25.08 13.98-40.27 2.2-11.48 3.34-23.71 3.34-36.16v-34.6h40.62l20.28 73.74z" fill="#a74b30"/><path d="m416.26 426.7c-.97 10.82-3.02 21.34-6.02 31.43-.29.97-.6 1.94-.92 2.9-42.74 32.01-95.82 50.97-153.32 50.97v-328.52l76.99 28.1v6.75c0 9.11 1.16 18.12 3.42 26.8 4.89 18.8 14.92 36.05 29.34 49.54 21.66 20.26 37.77 46.41 45.68 75.84l-31.78 28.1z" fill="#8c3d27"/></g><path d="m214.549 128.429 25.478 41.576-25.478 41.575h-36.361v-83.151z" fill="#a74b30"/><path d="m256.004 128.429 32.772 41.576-32.772 41.575h-40.627v-83.151z" fill="#8c3d27"/><path d="m256.004 128.429h76.988v83.151h-76.988z" fill="#772f1e"/><path d="m209.108 398.606-37.68 28.097h-75.687c-.439-4.805-.655-9.668-.655-14.581 0-14.39 1.889-28.341 5.435-41.613h73.434z" fill="#a74b30"/><path d="m256.004 370.509 32.772 22.886-32.772 33.307h-84.576c-.232-4.805-.34-9.668-.34-14.581 0-14.39.994-28.341 2.866-41.613h82.05z" fill="#8c3d27"/><path d="m416.913 412.222c-.008 4.88-.224 9.718-.655 14.481h-160.254v-56.194h155.425c3.587 13.314 5.493 27.298 5.484 41.713z" fill="#772f1e"/><path d="m203.041 99.185 20.191 28.097-20.191 28.096h-52.962v-56.193z" fill="#c4573a"/><g><path d="m138.031 315.921h27.389v27.389h-27.389z" fill="#a74b30" transform="matrix(.707 -.707 .707 .707 -188.633 203.827)"/><path d="m190.17 315.921h27.389v27.389h-27.389z" fill="#8c3d27" transform="matrix(.707 -.707 .707 .707 -173.362 240.694)"/><path d="m256.004 310.249 9.685 19.367-9.685 19.371-19.369-19.37z" fill="#8c3d27"/><g fill="#772f1e"><path d="m294.448 315.921h27.389v27.389h-27.389z" transform="matrix(.707 -.707 .707 .707 -142.82 314.43)"/><path d="m346.587 315.921h27.389v27.389h-27.389z" transform="matrix(.707 -.707 .707 .707 -127.549 351.299)"/></g></g><g><path d="m138.031 449.089h27.389v27.389h-27.389z" fill="#a74b30" transform="matrix(.707 -.707 .707 .707 -282.797 242.831)"/><path d="m190.17 449.089h27.389v27.389h-27.389z" fill="#8c3d27" transform="matrix(.707 -.707 .707 .707 -267.526 279.699)"/><path d="m256.004 443.413 9.685 19.37-9.685 19.368-19.369-19.369z" fill="#8c3d27"/><g fill="#772f1e"><path d="m294.448 449.089h27.389v27.389h-27.389z" transform="matrix(.707 -.707 .707 .707 -236.984 353.434)"/><path d="m346.587 449.089h27.389v27.389h-27.389z" transform="matrix(.707 -.707 .707 .707 -221.713 390.304)"/></g></g><path d="m256.004 99.185 40.627 29.244-40.627 26.949h-52.963v-56.193z" fill="#a74b30"/><path d="m256.004 99.185h105.925v56.193h-105.925z" fill="#8c3d27"/><g fill="#772f1e"><path d="m275.373 462.782-19.369 19.369v-38.738z"/><path d="m275.373 329.617-19.369 19.37v-38.738z"/></g></g></g></svg>