<svg id="Capa_1" enable-background="new 0 0 512 512" height="512" viewBox="0 0 512 512" width="512" xmlns="http://www.w3.org/2000/svg"><g><g opacity=".99"><g><path d="m478.33 129.02c0 109.01-88.37 197.38-197.38 197.38h-49.89c-108.34 0-196.42-87.32-197.37-195.65l-.02-1.73c44.11-77.08 127.16-129.02 222.33-129.02s178.22 51.94 222.33 129.02z" fill="#a2e62e"/></g><path d="m512 256c0 100.79-58.26 187.98-142.93 229.73l-113.07-33.86-113.05 33.87c-84.69-41.74-142.95-128.94-142.95-229.74 0-46.2 12.24-89.55 33.67-126.97 22.69 39.63 55.66 72.6 95.28 95.28 18.7 10.72 38.87 19.14 60.15 24.87 6.63 1.79 13.38 3.32 20.22 4.58 3.99.74 8.02 1.38 12.08 1.93 11.32 1.54 22.87 2.33 34.6 2.33h.01c11.74 0 23.28-.79 34.6-2.33 11-1.47 21.78-3.66 32.29-6.5 21.28-5.75 41.46-14.16 60.16-24.88 39.62-22.69 72.59-55.67 95.27-95.29 21.42 37.42 33.67 80.77 33.67 126.98z" fill="#8bc618"/></g><g opacity=".99"><path d="m306.97 298.94-91.35 209.89c-25.7-4.07-50.12-11.97-72.67-23.09-7.46-9.84-13.7-20.67-18.48-32.23l8.18-8.19-13.44-6.81c-3.69-12.75-5.67-26.2-5.67-40.07 0-.79.01-1.59.02-2.38l8.84-6.98-7.82-8.02c1.82-14.99 5.99-29.27 12.1-42.46l13.83-5.9-5.74-9.1c7.26-11.74 16.17-22.35 26.43-31.49 13.12-11.7 22.73-26.55 27.9-42.93 2.87-9.02 4.37-18.51 4.37-28.19l7.89-7.5-7.89-7.5v-15l10.33-6.7-10.33-8.3v-78.31h31.27z" fill="#a74b30"/><path d="m327.23 398.44-71.23 113.56c-13.74 0-27.23-1.08-40.38-3.17-6.13-3.91-11.61-11.37-15.63-21.75-9.54-24.57-15.22-55.42-15.22-88.64 0-42.27 9.21-80.25 23.83-106.33 5.68-10.13 10.05-22.62 12.8-36.42 2.18-10.92 3.34-22.66 3.34-34.7v-123.31h62.52v123.31c0 12.04 1.16 23.78 3.35 34.7 2.74 13.8 7.11 26.29 12.79 36.42 14.62 26.08 23.83 64.06 23.83 106.33z" fill="#8c3d27"/><path d="m398.46 398.44c0 13.86-1.98 27.31-5.66 40.05-.01.01-.01.01-.01.02h-.01l-13.44 6.81 8.18 8.19h.01c-4.77 11.56-11.01 22.38-18.46 32.22-22.55 11.12-46.97 19.02-72.67 23.09-13.16 2.1-26.64 3.18-40.39 3.18v-414.32h62.52v78.31l-10.33 8.3 10.33 6.7v15l-7.88 7.5 7.88 7.5c0 9.69 1.5 19.17 4.37 28.2 5.17 16.38 14.79 31.23 27.91 42.92 10.25 9.14 19.16 19.75 26.42 31.49l-5.75 9.1 13.83 5.9h.01c6.11 13.19 10.27 27.47 12.09 42.46l-7.81 8.02 8.84 6.98c.01.79.02 1.59.02 2.38z" fill="#772f1e"/><path d="m211.78 88.28 19.146 24.54-19.146 24.54h-44.23v-49.08z" fill="#c4573a"/><g><path d="m196.01 475.74c-2.07-1.91-3.91-4.11-5.46-6.57l-4.74-7.5c-3.24-5.11-8.78-8.16-14.83-8.16h-46.51c-2.02-4.87-3.78-9.88-5.26-15h51.77c6.3 0 12.3 1.78 17.41 5.01l9.393 20.391z" fill="#a2e62e"/><path d="m256.01 451.87 9.526 7.469-9.526 7.531c-5.11 0-9.96 2.23-13.31 6.11-6.79 7.9-16.64 12-27.04 11.23-7.49-.55-14.33-3.55-19.65-8.47-3.18-9.99-5.74-20.8-7.62-32.22 4 2.54 7.45 5.97 10.08 10.12l4.75 7.5c3 4.75 7.94 7.7 13.55 8.11 5.59.4 10.9-1.8 14.56-6.06 6.2-7.19 15.19-11.32 24.68-11.32z" fill="#8bc618"/></g><g><path d="m189.848 395.733-5.038 7.077c-3.3-4.25-8.36-6.75-13.83-6.75h-57.42c.08-5.07.42-10.07 1.02-15h56.4c5 0 9.81 1.12 14.13 3.2z" fill="#fcc015"/><path d="m256.01 394.42 9.526 11.136-9.526 3.864c-5.11 0-9.96 2.22-13.31 6.1-6.79 7.9-16.64 12.01-27.04 11.24-10.38-.76-19.54-6.25-25.11-15.05l-4.74-7.5c-.32-.49-.65-.95-1-1.4-.03-1.45-.04-2.91-.04-4.37 0-4.79.12-9.52.34-14.18 5.4 2.59 10.04 6.67 13.36 11.93l4.75 7.5c3 4.74 7.94 7.7 13.55 8.11 5.59.4 10.9-1.8 14.56-6.06 6.2-7.2 15.19-11.32 24.68-11.32z" fill="#fea613"/></g><g><path d="m192.94 332.11 7.854 19.3h-12.054l-2.93-4.65c-3.24-5.11-8.78-8.16-14.83-8.16h-44.3c2.4-5.18 5.11-10.18 8.09-15h36.21c8.29 0 16.06 3.09 21.96 8.51z" fill="#a2e62e"/><path d="m256.01 336.96 7.832 9.535-7.832 5.465c-5.11 0-9.96 2.23-13.31 6.11-6.79 7.89-16.63 11.99-27.04 11.23-10.38-.76-19.54-6.24-25.11-15.04l-1.81-2.85c1.16-6.67 2.58-13.12 4.2-19.3 2.11 1.92 3.96 4.14 5.53 6.62l4.75 7.5c3 4.75 7.94 7.7 13.55 8.11 5.58.41 10.9-1.8 14.56-6.06 6.2-7.19 15.19-11.32 24.68-11.32z" fill="#8bc618"/></g><path d="m224.73 205.99 10.055 7.5-10.055 7.5h-31.26v-15z" fill="#fcc015"/><path d="m256.01 205.99 16.047 7.5-16.047 7.5h-31.28v-15z" fill="#fea613"/><path d="m224.73 175.99 10.055 7.5-10.055 7.5h-31.26v-15z" fill="#fcc015"/><path d="m256.01 175.99 7.832 5.077-7.832 9.923h-31.28v-15z" fill="#fea613"/><path d="m256.01 175.99h62.52v15h-62.52z" fill="#fb8801"/><path d="m256.01 205.99h62.52v15h-62.52z" fill="#fb8801"/><path d="m256.005 351.96v-15c9.49 0 18.48 4.13 24.67 11.32 3.66 4.26 8.98 6.47 14.57 6.06 5.6-.41 10.54-3.36 13.54-8.11l4.75-7.5c6-9.47 16.28-15.13 27.49-15.13h36.21c2.98 4.82 5.68 9.82 8.08 15h-44.29c-6.04 0-11.58 3.05-14.82 8.16l-4.74 7.5c-5.58 8.8-14.73 14.28-25.12 15.04-.82.06-1.64.09-2.45.09-9.48 0-18.34-4.05-24.59-11.32-3.34-3.88-8.18-6.11-13.3-6.11z" fill="#75a00b"/><path d="m341.025 438.51h51.76c-1.48 5.12-3.23 10.13-5.26 15h-46.5c-6.04 0-11.58 3.05-14.82 8.16l-4.74 7.5c-5.58 8.8-14.73 14.28-25.12 15.04-.82.06-1.64.09-2.45.09-9.48 0-18.34-4.05-24.59-11.32-3.34-3.88-8.18-6.11-13.3-6.11v-15c9.49 0 18.48 4.13 24.67 11.32 3.66 4.26 8.97 6.46 14.57 6.06 5.61-.41 10.54-3.36 13.54-8.11l4.75-7.5c6-9.47 16.28-15.13 27.49-15.13z" fill="#75a00b"/><path d="m256.005 409.42v-15c9.49 0 18.48 4.12 24.67 11.32 3.66 4.26 8.97 6.46 14.57 6.06 5.61-.41 10.54-3.37 13.54-8.11l4.75-7.5c6-9.48 16.28-15.13 27.49-15.13h56.39c.6 4.93.95 9.93 1.03 15h-57.42c-6.04 0-11.58 3.05-14.82 8.15l-4.74 7.5c-5.58 8.8-14.73 14.29-25.12 15.05-.82.06-1.64.08-2.45.08-9.48 0-18.34-4.04-24.59-11.32-3.34-3.88-8.18-6.1-13.3-6.1z" fill="#fb8801"/><path d="m256.01 88.28 24.844 24.54-24.844 24.54h-44.23v-49.08z" fill="#a74b30"/><path d="m256.01 88.28h88.45v49.08h-88.45z" fill="#8c3d27"/></g></g></svg>