<svg id="Capa_1" enable-background="new 0 0 512 512" height="512" viewBox="0 0 512 512" width="512" xmlns="http://www.w3.org/2000/svg"><g opacity=".99"><g><g><path d="m478.33 129.02c0 109.01-88.37 197.38-197.38 197.38h-49.89c-108.34 0-196.42-87.32-197.37-195.65l-.02-1.73c44.11-77.08 127.16-129.02 222.33-129.02s178.22 51.94 222.33 129.02z" fill="#a2e62e"/></g><path d="m512 256c0 77.2-34.17 146.42-88.22 193.35l-335.64-.07c-54-46.93-88.14-116.12-88.14-193.28 0-46.2 12.24-89.55 33.67-126.97 14.71 25.69 33.73 48.58 56.09 67.67 12.13 10.38 25.25 19.63 39.19 27.61 24.53 14.06 51.61 24.17 80.37 29.45 15.14 2.8 30.74 4.26 46.68 4.26 46.24 0 89.62-12.26 127.06-33.71 13.91-7.97 27-17.2 39.11-27.55 22.39-19.11 41.44-42.03 56.16-67.74 21.42 37.42 33.67 80.77 33.67 126.98z" fill="#8bc618"/></g><g><path d="m337.47 256-81.47 250.02-156.92-47.75h-.01c-3.73-2.9-7.37-5.9-10.93-8.99v-242.86c0-3.37.57-6.64 1.62-9.72 2.38-6.94 7.24-12.91 13.74-16.84 8.61-5.2 14.36-14.65 14.36-25.44 0-5.98 1.77-11.7 4.93-16.5 3.15-4.79 7.69-8.64 13.24-10.88 10.12-4.08 18.75-11.52 24.21-21.38 9.76-17.62 24.24-32.25 41.73-42.2 17.58-9.99 39.68-7 53.96 7.33z" fill="#56201c"/><path d="m423.78 206.42v242.93c-3.57 3.1-7.22 6.1-10.96 9h-.01l-156.81 47.67-.07-.02v-435.21l.11-.11c14.3-14.25 36.34-17.18 53.88-7.2 17.47 9.94 31.94 24.57 41.69 42.17 5.48 9.88 14.14 17.34 24.29 21.41 11.06 4.44 18.13 15.39 18.16 27.31v.13c.03 10.75 5.77 20.15 14.33 25.35 6.52 3.95 11.41 9.94 13.78 16.91 1.05 3.06 1.61 6.31 1.61 9.66z" fill="#3f120c"/><path d="m302.28 437.38-37.14 59.88h-21.56c-9.97 0-19.74-1.98-28.77-5.72-9.04-3.74-17.35-9.25-24.4-16.3-14.1-14.1-22.02-33.23-22.02-53.17v-60.25c5.25-3.39 10.71-6.47 16.35-9.23 21.48-10.56 45.64-16.48 71.19-16.48z" fill="#ffa78f"/><path d="m273.54 486.13-17.61 25.87c-8.94 0-17.77-.47-26.47-1.37l-19.067-12.376-17.463 5.916c-22.15-5.61-43.14-14.11-62.56-25.07l-11.627-18.051-18.543-1.909c-.38-.29-.76-.58-1.13-.87 8.53-33.92 27.76-63.58 53.91-85.17 4.9-4.05 10.05-7.82 15.41-11.28l87.54 87.54z" fill="#c4573a"/><path d="m412.82 458.35c-8.4 6.51-17.21 12.52-26.39 17.96l-83.97 19.08c-5.47 1.25-11.06 1.87-16.67 1.87h-29.86v-161.15c25.6 0 49.81 5.95 71.33 16.53 11.41 5.63 22.07 12.54 31.76 20.58 26.09 21.59 45.29 51.24 53.8 85.13z" fill="#f89580"/><path d="m255.933 298.9 18.922 38.306-18.922 43.044c-17.59-.04-31.833-14.3-31.833-31.9v-49.45z" fill="#f89580"/><path d="m287.9 298.9v49.45c0 17.62-14.346 31.9-31.967 31.9v-81.35z" fill="#f47c69"/><g><g><g><g><g><g><path d="m141.88 188.85c2.92 2.92 4.72 6.95 4.72 11.4v62.37c-24.99-3.32-44.25-24.74-44.16-50.63.06-15.45 12.61-27.92 28.05-27.87 4.28.01 8.17 1.68 11.05 4.4.12.1.23.22.34.33z" fill="#ffa78f"/><path d="m255.93 163.2 28.142 81.984-28.142 105.016c-21.71-.07-42.31-6.47-59.28-17.46-12.6-8.15-23.42-18.83-31.73-31.32v-82.54c0-4.12 3.34-7.46 7.46-7.46 1.69 0 3.25-.58 4.51-1.56s2.21-2.36 2.69-3.99c2.4-8.14 9.93-14.09 18.85-14.09 9.26 0 18.33-1.84 26.73-5.32 8.39-3.48 16.1-8.59 22.65-15.14z" fill="#ffa78f"/><path d="m344.76 213.6c1.34 1.36 2.18 3.22 2.18 5.28v82.54c-8.35 12.53-19.24 23.24-31.91 31.4-17.05 10.98-37.35 17.36-59.1 17.38v-187l8.12 8.12c13.09 13.1 30.86 20.46 49.38 20.46 4.46 0 8.57 1.49 11.87 3.99 3.3 2.51 5.78 6.03 6.98 10.1.95 3.25 3.82 5.55 7.2 5.55 2.06 0 3.92.84 5.28 2.18z" fill="#f89580"/><path d="m255.93 260.66 37.53 72.695-37.53 72.695c-16.57-.03-31.7-9.63-38.63-24.69-3.85-8.39-9.62-15.92-16.87-22.03-7.54-6.36-12.32-15.87-12.32-26.5v-13.25c0-32.54 26.37-58.92 58.91-58.92z" fill="#56201c"/><path d="m323.89 319.58v13.25c0 10.63-4.78 20.14-12.32 26.5-7.25 6.11-13.02 13.64-16.87 22.03-3.47 7.54-9 13.71-15.73 18s-14.67 6.69-22.97 6.69h-.07v-145.39h9.05c32.54 0 58.91 26.38 58.91 58.92z" fill="#3f120c"/><path d="m409.31 211.99c.09 25.84-19.1 47.25-44.05 50.61v-64.22c.42-3.7 2.1-7.02 4.6-9.53.15-.15.31-.3.47-.45 2.87-2.64 6.71-4.27 10.93-4.28 15.44-.05 27.99 12.42 28.05 27.87z" fill="#f89580"/><path d="" fill="#ffc0a4"/></g></g></g></g></g></g><path d="m255.933 235.26 5.87 20.74-5.87 21.75c-6.44-.03-11.75-5.26-11.72-11.69l.16-19.2c.02-6.39 5.18-11.55 11.56-11.6z" fill="#f89580"/><path d="m255.933 235.26v42.49c6.44-.03 11.75-5.26 11.72-11.69l-.16-19.2c-.02-6.39-5.18-11.55-11.56-11.6z" fill="#f47c69"/><path d="m235.016 238.295c-.025 7.43-6.069 13.433-13.499 13.408s-13.433-6.069-13.408-13.499 6.069-13.433 13.499-13.408c7.431.025 13.434 6.069 13.408 13.499z" fill="#56201c"/><path d="m303.575 238.527c-.025 7.43-6.069 13.433-13.499 13.408s-13.433-6.069-13.408-13.499 6.069-13.433 13.499-13.408 13.433 6.069 13.408 13.499z" fill="#3f120c"/><path d="m255.93 207.06 20.738 11.72-20.738 11.72h-66.35v-23.44z" fill="#f89580"/><path d="m255.93 207.06h66.49v23.44h-66.49z" fill="#f47c69"/><path d="m255.97 295.69 12.73 11.72-12.73 11.72h-20.15c-6.47 0-11.72-5.25-11.72-11.72 0-3.24 1.31-6.17 3.43-8.29 2.13-2.12 5.05-3.43 8.29-3.43z" fill="#f89580"/><path d="m287.9 307.41c0 6.47-5.25 11.72-11.72 11.72h-20.21v-23.44h20.21c6.47 0 11.72 5.24 11.72 11.72z" fill="#f47c69"/><path d="m386.43 476.31c-20.89 12.4-43.7 21.91-67.87 27.98l-13.96-3.97-10.94 8.92c-4.34.65-8.73 1.18-13.14 1.6-8.07.77-16.25 1.16-24.52 1.16h-.07v-62.64c8.63 8.63 18.79 15.37 29.85 19.95s23.01 7 35.21 7h2.92l12.69 8.33 12.68-8.33z" fill="#a74b30"/><g fill="#56201c"><circle cx="170.066" cy="409.127" r="21.209"/><ellipse cx="175.404" cy="459.627" rx="12.702" ry="12.702" transform="matrix(.734 -.679 .679 .734 -265.456 241.301)"/><path d="m232.79 499.52c0 4.1-1.22 7.92-3.33 11.11-12.47-1.28-24.66-3.45-36.53-6.46-.36-1.49-.55-3.05-.55-4.65 0-11.16 9.04-20.2 20.2-20.2s20.21 9.04 20.21 20.2z"/><ellipse cx="231.512" cy="455.863" rx="12.702" ry="12.702" transform="matrix(.229 -.974 .974 .229 -265.193 577.081)"/><path d="m255.93 472.33 8.426 12.7-8.426 12.7c-6.98-.04-12.63-5.7-12.63-12.7 0-6.99 5.65-12.66 12.63-12.7z"/></g><path d="m318.56 504.29c-8.15 2.05-16.46 3.71-24.9 4.95-.13-.72-.2-1.46-.2-2.21 0-7.02 5.69-12.7 12.7-12.7 6.08 0 11.15 4.26 12.4 9.96z" fill="#3f120c"/><path d="m349.28 476.31c-.32 6.73-5.88 12.08-12.68 12.08-6.81 0-12.37-5.35-12.69-12.08z" fill="#3f120c"/><path d="m136.26 465.52c0 5.36-2.27 10.19-5.89 13.58-10.55-5.95-20.63-12.63-30.17-19.96 2.6-7.13 9.44-12.21 17.47-12.21 10.27 0 18.59 8.32 18.59 18.59z" fill="#56201c"/><path d="m268.7 485.03c0 7.02-5.69 12.7-12.7 12.7h-.07v-25.4h.07c7.01 0 12.7 5.69 12.7 12.7z" fill="#3f120c"/></g></g></svg>