<?xml version="1.0" encoding="UTF-8" standalone="no"?>
<!-- Created with Inkscape (http://www.inkscape.org/) -->
<svg xmlns="http://www.w3.org/2000/svg" xmlns:svg="http://www.w3.org/2000/svg" version="1.1" id="svg2637" width="682.66669" height="682.66669" viewBox="0 0 682.66669 682.66669">
  <defs id="defs2641">
    <clipPath clipPathUnits="userSpaceOnUse" id="clipPath2651">
      <path d="M 0,512 H 512 V 0 H 0 Z" id="path2649"/>
    </clipPath>
  </defs>
  <mask id="custom"><rect id="bg" x="0" y="0" width="100%" height="100%" fill="white"/><g transform="matrix(1.3333333,0,0,-1.3333333,0,682.66667)"/></mask><g mask="url(#custom)"><g id="g2643" transform="matrix(1.3333333,0,0,-1.3333333,0,682.66667)">
    <g id="g2645">
      <g id="g2647" clip-path="url(#clipPath2651)">
        <g id="g2653" transform="translate(376.4717,256)">
          <path d="m 0,0 v 75 c 0,41.885 -24.526,78.037 -60,94.89 V 195 c 0,24.853 -20.146,45 -45,45 -24.853,0 -45,-20.147 -45,-45 V 169.89 C -185.472,153.037 -210,116.885 -210,75 V 0" style="fill:none;stroke:#000000;stroke-width:30;stroke-linecap:butt;stroke-linejoin:miter;stroke-miterlimit:10;stroke-dasharray:none;stroke-opacity:1" id="path2655"/>
        </g>
        <g id="g2657" transform="translate(376.4717,256)">
          <path d="m 0,0 96.546,144.818 c 13.159,19.739 8.606,46.319 -10.371,60.551 -15.585,11.69 -36.946,11.938 -52.798,0.614 L 18,195" style="fill:none;stroke:#000000;stroke-width:30;stroke-linecap:butt;stroke-linejoin:miter;stroke-miterlimit:10;stroke-dasharray:none;stroke-opacity:1" id="path2659"/>
        </g>
        <g id="g2661" transform="translate(391.4717,151)">
          <path d="M 0,0 C 11.295,0 22.263,-1.396 32.748,-4.008 L 60,105 h -285 l -57.103,182.731 C -292.75,321.802 -324.304,345 -360,345 l 60,-480 h 165 C -135,-60.441 -74.558,0 0,0 Z" style="fill:none;stroke:#000000;stroke-width:30;stroke-linecap:butt;stroke-linejoin:miter;stroke-miterlimit:10;stroke-dasharray:none;stroke-opacity:1" id="path2663"/>
        </g>
        <g id="g2665" transform="translate(76.4722,106)">
          <path d="M 0,0 H 210" style="fill:none;stroke:#000000;stroke-width:30;stroke-linecap:butt;stroke-linejoin:miter;stroke-miterlimit:10;stroke-dasharray:none;stroke-opacity:1" id="path2667"/>
        </g>
      </g>
    </g>
  </g></g>
</svg>
