<?xml version="1.0" encoding="UTF-8" standalone="no"?>
<!-- Created with Inkscape (http://www.inkscape.org/) -->
<svg xmlns="http://www.w3.org/2000/svg" xmlns:svg="http://www.w3.org/2000/svg" version="1.1" id="svg2685" width="682.66669" height="682.66669" viewBox="0 0 682.66669 682.66669">
  <defs id="defs2689">
    <clipPath clipPathUnits="userSpaceOnUse" id="clipPath2699">
      <path d="M 0,512 H 512 V 0 H 0 Z" id="path2697"/>
    </clipPath>
    <clipPath clipPathUnits="userSpaceOnUse" id="clipPath2719">
      <path d="M 0,512 H 512 V 0 H 0 Z" id="path2717"/>
    </clipPath>
    <clipPath clipPathUnits="userSpaceOnUse" id="clipPath2747">
      <path d="M 0,512 H 512 V 0 H 0 Z" id="path2745"/>
    </clipPath>
  </defs>
  <mask id="custom"><rect id="bg" x="0" y="0" width="100%" height="100%" fill="white"/><g transform="matrix(1.3333333,0,0,-1.3333333,0,682.66667)"/></mask><g mask="url(#custom)"><g id="g2691" transform="matrix(1.3333333,0,0,-1.3333333,0,682.66667)">
    <g id="g2693">
      <g id="g2695" clip-path="url(#clipPath2699)">
        <g id="g2701" transform="translate(226,464.5)">
          <path d="M 0,0 V 45" style="fill:none;stroke:#000000;stroke-width:30;stroke-linecap:butt;stroke-linejoin:miter;stroke-miterlimit:10;stroke-dasharray:none;stroke-opacity:1" id="path2703"/>
        </g>
        <g id="g2705" transform="translate(158.5,446.4131)">
          <path d="M 0,0 -22.5,38.972" style="fill:none;stroke:#000000;stroke-width:30;stroke-linecap:butt;stroke-linejoin:miter;stroke-miterlimit:10;stroke-dasharray:none;stroke-opacity:1" id="path2707"/>
        </g>
      </g>
    </g>
    <g id="g2709" transform="translate(109.0869,397)">
      <path d="M 0,0 -38.972,22.5" style="fill:none;stroke:#000000;stroke-width:30;stroke-linecap:butt;stroke-linejoin:miter;stroke-miterlimit:10;stroke-dasharray:none;stroke-opacity:1" id="path2711"/>
    </g>
    <g id="g2713">
      <g id="g2715" clip-path="url(#clipPath2719)">
        <g id="g2721" transform="translate(91,329.5)">
          <path d="M 0,0 H -45" style="fill:none;stroke:#000000;stroke-width:30;stroke-linecap:butt;stroke-linejoin:miter;stroke-miterlimit:10;stroke-dasharray:none;stroke-opacity:1" id="path2723"/>
        </g>
      </g>
    </g>
    <g id="g2725" transform="translate(109.0869,262)">
      <path d="M 0,0 -38.972,-22.5" style="fill:none;stroke:#000000;stroke-width:30;stroke-linecap:butt;stroke-linejoin:miter;stroke-miterlimit:10;stroke-dasharray:none;stroke-opacity:1" id="path2727"/>
    </g>
    <g id="g2729" transform="translate(342.9131,262)">
      <path d="M 0,0 38.972,-22.5" style="fill:none;stroke:#000000;stroke-width:30;stroke-linecap:butt;stroke-linejoin:miter;stroke-miterlimit:10;stroke-dasharray:none;stroke-opacity:1" id="path2731"/>
    </g>
    <g id="g2733" transform="translate(361,329.5)">
      <path d="M 0,0 H 45" style="fill:none;stroke:#000000;stroke-width:30;stroke-linecap:butt;stroke-linejoin:miter;stroke-miterlimit:10;stroke-dasharray:none;stroke-opacity:1" id="path2735"/>
    </g>
    <g id="g2737" transform="translate(342.9131,397)">
      <path d="M 0,0 38.972,22.5" style="fill:none;stroke:#000000;stroke-width:30;stroke-linecap:butt;stroke-linejoin:miter;stroke-miterlimit:10;stroke-dasharray:none;stroke-opacity:1" id="path2739"/>
    </g>
    <g id="g2741">
      <g id="g2743" clip-path="url(#clipPath2747)">
        <g id="g2749" transform="translate(293.5,446.4131)">
          <path d="M 0,0 22.5,38.972" style="fill:none;stroke:#000000;stroke-width:30;stroke-linecap:butt;stroke-linejoin:miter;stroke-miterlimit:10;stroke-dasharray:none;stroke-opacity:1" id="path2751"/>
        </g>
        <g id="g2753" transform="translate(226,464.5)">
          <path d="M 0,0 V 45" style="fill:none;stroke:#000000;stroke-width:30;stroke-linecap:butt;stroke-linejoin:miter;stroke-miterlimit:10;stroke-dasharray:none;stroke-opacity:1" id="path2755"/>
        </g>
        <g id="g2757" transform="translate(378.7275,164.5)">
          <path d="M 0,0 -102.273,-150 H 102.272 Z" style="fill:none;stroke:#000000;stroke-width:30;stroke-linecap:butt;stroke-linejoin:miter;stroke-miterlimit:10;stroke-dasharray:none;stroke-opacity:1" id="path2759"/>
        </g>
        <g id="g2761" transform="translate(261.3193,246.6982)">
          <path d="m 0,0 c 32.148,13.731 54.681,45.634 54.681,82.802 0,49.705 -40.295,90 -90,90 -49.706,0 -90,-40.295 -90,-90 0,-36.762 22.043,-68.37 53.63,-82.342" style="fill:none;stroke:#000000;stroke-width:30;stroke-linecap:butt;stroke-linejoin:miter;stroke-miterlimit:10;stroke-dasharray:none;stroke-opacity:1" id="path2763"/>
        </g>
        <g id="g2765" transform="translate(225.3184,299.5)">
          <path d="M 0,0 -194.318,-285 H 51.136 l 71.591,105 z" style="fill:none;stroke:#000000;stroke-width:30;stroke-linecap:butt;stroke-linejoin:miter;stroke-miterlimit:10;stroke-dasharray:none;stroke-opacity:1" id="path2767"/>
        </g>
        <g id="g2769" transform="translate(166,134.5)">
          <path d="M 0,0 H -60" style="fill:none;stroke:#000000;stroke-width:30;stroke-linecap:butt;stroke-linejoin:miter;stroke-miterlimit:10;stroke-dasharray:none;stroke-opacity:1" id="path2771"/>
        </g>
        <g id="g2773" transform="translate(181,74.5)">
          <path d="M 0,0 H 60" style="fill:none;stroke:#000000;stroke-width:30;stroke-linecap:butt;stroke-linejoin:miter;stroke-miterlimit:10;stroke-dasharray:none;stroke-opacity:1" id="path2775"/>
        </g>
        <g id="g2777" transform="translate(241,179.5)">
          <path d="M 0,0 H 60" style="fill:none;stroke:#000000;stroke-width:30;stroke-linecap:butt;stroke-linejoin:miter;stroke-miterlimit:10;stroke-dasharray:none;stroke-opacity:1" id="path2779"/>
        </g>
        <g id="g2781" transform="translate(376,74.5)">
          <path d="M 0,0 H 60" style="fill:none;stroke:#000000;stroke-width:30;stroke-linecap:butt;stroke-linejoin:miter;stroke-miterlimit:10;stroke-dasharray:none;stroke-opacity:1" id="path2783"/>
        </g>
      </g>
    </g>
  </g></g>
</svg>
