<svg id="Capa_1" enable-background="new 0 0 512 512" height="512" viewBox="0 0 512 512" width="512" xmlns="http://www.w3.org/2000/svg"><g><g opacity=".99"><g><path d="m478.33 129.02c0 109.01-88.37 197.38-197.38 197.38h-49.89c-108.34 0-196.42-87.32-197.37-195.65l-.02-1.73c44.11-77.08 127.16-129.02 222.33-129.02s178.22 51.94 222.33 129.02z" fill="#a2e62e"/></g><path d="m512 256c0 100.12-57.47 186.81-141.22 228.88v.01l-292.71-44.83c-48.14-46.55-78.07-111.81-78.07-184.06 0-46.2 12.24-89.55 33.67-126.97 15.44 26.97 35.64 50.85 59.46 70.51 11.18 9.23 23.16 17.52 35.82 24.77 24.53 14.06 51.61 24.17 80.37 29.45 7.82 1.45 15.76 2.53 23.8 3.25 7.53.67 15.17 1.01 22.88 1.01 42.27 0 82.15-10.25 117.29-28.4 3.3-1.69 6.56-3.47 9.77-5.31 39.62-22.69 72.59-55.67 95.27-95.29 21.42 37.42 33.67 80.77 33.67 126.98z" fill="#8bc618"/></g><g opacity=".99"><path d="m455.98 161.82v30.6h-82.69l-17.211-40.9 21.826-17.898c10.355-8.491 23.333-13.132 36.725-13.132l-.01-.01h.02c22.831 0 41.34 18.508 41.34 41.34z" fill="#8c3d27"/><path d="m319.09 306.77-88.01 176.75-137.95-39.18v-58.84l14.23-14.23-14.23-14.23v-165.38l14.23-14.23-14.23-14.23v-1.37c0-22.83 18.51-41.34 41.35-41.34h139.99z" fill="#c4573a"/><path d="m414.63 120.49c-22.83 0-41.34 18.51-41.34 41.34v56.18l-14.23 14.23 14.23 14.23v179.36l-14.23 14.23 14.23 14.23v16.37c0 5-.89 9.78-2.51 14.22v.01c-18.81 9.45-38.93 16.65-60.04 21.25 0 0 0 0-.01 0l-79.65-22.62c1.33-4.05 2.04-8.37 2.04-12.86v-308.83c0-22.83 18.52-41.34 41.35-41.34z" fill="#a74b30"/><path d="m160.83 493.72c-31.06-12.44-59.1-30.8-82.76-53.66h75.73z" fill="#a74b30"/><path d="m310.73 506.14c-17.63 3.84-35.95 5.86-54.73 5.86-33.63 0-65.75-6.49-95.17-18.28-4.44-6.58-7.03-14.52-7.03-23.06v-30.6h136.82v30.6c0 15.07 8.06 28.26 20.11 35.48z" fill="#8c3d27"/><g fill="#a74b30"><path d="m121.735 183.345h32.485v32.485h-32.485z"/><path d="m186.704 183.345h32.485v32.485h-32.485z"/><path d="m154.22 215.83v-32.485h32.484z"/><path d="m153.176 316.239h32.485v32.485h-32.485z"/><path d="m218.146 348.724h-32.485l32.485-32.485z"/><path d="m121.32 348.724v-32.485h32.485z"/><path d="m182.684 280.846h32.485l-32.485-32.485z"/><circle cx="137.562" cy="265.018" r="15.828"/><path d="m182.684 410.634h32.485l-32.485-32.485z"/><circle cx="137.562" cy="394.807" r="15.828"/></g><g fill="#8c3d27"><path d="m284.159 215.83h-32.485l32.485-32.485z"/><ellipse cx="329.281" cy="200.003" rx="15.828" ry="15.828" transform="matrix(.707 -.707 .707 .707 -44.979 291.416)"/><path d="m284.159 348.724h-32.485l32.485-32.485z"/><circle cx="329.281" cy="332.896" r="15.828"/><path d="m312.624 248.361h32.485v32.485h-32.485z" transform="matrix(-1 0 0 -1 657.732 529.207)"/><path d="m247.654 248.361h32.485v32.485h-32.485z" transform="matrix(-1 0 0 -1 527.793 529.207)"/><path d="m312.624 280.846v-32.485h-32.485z"/><path d="m312.624 378.149h32.485v32.485h-32.485z" transform="matrix(-1 0 0 -1 657.732 788.784)"/><path d="m247.654 378.149h32.485v32.485h-32.485z" transform="matrix(-1 0 0 -1 527.793 788.784)"/></g></g></g></svg>