<svg id="Capa_1" enable-background="new 0 0 512 512" height="512" viewBox="0 0 512 512" width="512" xmlns="http://www.w3.org/2000/svg"><g><g opacity=".99"><g><g><path d="m478.33 129.02c0 109.01-88.37 197.38-197.38 197.38h-49.89c-108.34 0-196.42-87.32-197.37-195.65l-.02-1.73c44.11-77.08 127.16-129.02 222.33-129.02s178.22 51.94 222.33 129.02z" fill="#a2e62e"/></g><path d="m512 256c0 75.72-32.88 143.77-85.15 190.64l-341.7.01c-52.27-46.88-85.15-114.92-85.15-190.65 0-46.2 12.24-89.55 33.67-126.97 22.69 39.63 55.66 72.6 95.28 95.28 24.53 14.06 51.61 24.17 80.37 29.45 15.14 2.8 30.74 4.26 46.68 4.26 46.24 0 89.62-12.26 127.06-33.71 39.62-22.69 72.59-55.67 95.27-95.29 21.42 37.42 33.67 80.77 33.67 126.98z" fill="#8bc618"/><path d="m255.93 297.63 30.379 60.652-30.379 74.218h-62.66v-134.87z" fill="#f89580"/><g><path d="m255.93 297.63h62.8v134.87h-62.8z" fill="#f47c69"/></g><path d="m307.93 439.13-1.43 2-16.46 23.09-151.22 19.44c-19.48-10.04-37.51-22.52-53.67-37.01.98-3.31 2.14-6.57 3.46-9.76 4.97-12.01 12.29-23.05 21.67-32.43 8.35-8.36 18.02-15.08 28.54-19.96 13.07-6.08 27.44-9.32 42.14-9.32h74.97z" fill="#ffa78f"/><path d="m426.85 446.64-170.92 21.97v-93.43h75.11c13.26 0 26.24 2.63 38.25 7.61 12.02 4.97 23.06 12.29 32.43 21.67 11.86 11.86 20.44 26.39 25.13 42.18z" fill="#f89580"/></g><g><g><g><g><g><g><g><path d="m255.93 163.2 28.143 81.984-28.143 105.016c-21.71-.07-42.31-6.47-59.28-17.46-.126-.081-.252-.163-.377-.245-19.699-12.857-31.353-34.997-31.353-58.521v-55.094c0-4.122 3.375-7.439 7.497-7.46 1.676-.008 3.222-.587 4.473-1.56 1.26-.98 2.21-2.36 2.69-3.99 2.4-8.14 9.93-14.09 18.85-14.09 9.26 0 18.33-1.84 26.73-5.32 8.39-3.48 16.1-8.59 22.65-15.14z" fill="#ffa78f"/><path d="m344.76 213.6c1.34 1.36 2.18 3.22 2.18 5.28v54.978c0 23.62-11.725 45.845-31.53 58.717-.126.082-.253.164-.38.246-17.05 10.98-37.35 17.36-59.1 17.38v-187l8.12 8.12c13.09 13.1 30.86 20.46 49.38 20.46 4.46 0 8.57 1.49 11.87 3.99 3.3 2.51 5.78 6.03 6.98 10.1.95 3.25 3.82 5.55 7.2 5.55 2.06-.001 3.92.839 5.28 2.179z" fill="#f89580"/><path d="" fill="#662d2d"/></g></g></g></g></g></g><path d="m255.934 235.26 5.87 20.74-5.87 21.75c-6.44-.03-11.75-5.26-11.72-11.69l.16-19.2c.019-6.39 5.179-11.55 11.56-11.6z" fill="#f89580"/><path d="m255.934 235.26v42.49c6.44-.03 11.75-5.26 11.72-11.69l-.16-19.2c-.02-6.39-5.18-11.55-11.56-11.6z" fill="#f47c69"/><path d="m235.016 238.295c-.025 7.43-6.069 13.433-13.499 13.408s-13.433-6.069-13.408-13.499 6.069-13.433 13.499-13.408c7.431.025 13.434 6.069 13.408 13.499z" fill="#56201c"/><ellipse cx="290.121" cy="238.482" fill="#3f120c" rx="13.453" ry="13.453" transform="matrix(.472 -.882 .882 .472 -57.106 381.581)"/><path d="m255.97 295.69 12.73 11.72-12.73 11.72h-20.15c-6.47 0-11.72-5.25-11.72-11.72 0-3.24 1.31-6.17 3.43-8.29 2.13-2.12 5.05-3.43 8.29-3.43z" fill="#f89580"/><path d="m287.9 307.41c0 6.47-5.25 11.72-11.72 11.72h-20.21v-23.44h20.21c6.47 0 11.72 5.24 11.72 11.72z" fill="#f47c69"/></g><g><path d="m256 94.65-54.43 117.55h-18.9v130.01c-10.8-4.9-21.02-10.84-30.53-17.71v-125.99c0-22.71 7.29-43.72 19.66-60.81 18.87-26.08 49.55-43.05 84.2-43.05z" fill="#fff"/><path d="m268.7 184.56-12.7 102.65-15.215-18.92v-56.09h-39.215v-13.69c0-22.71 3.83-43.72 10.31-60.81 9.88-26.08 25.97-43.05 44.12-43.05z" fill="#eaf6ff"/><g><path d="m359.86 198.51v125.99c-9.51 6.87-19.73 12.81-30.53 17.71v-130.01h-57.413v56.09l-15.917 18.92v-192.56c34.65 0 65.33 16.97 84.2 43.05 12.37 17.09 19.66 38.1 19.66 60.81z" fill="#d8ecfe"/></g></g></g><path d="m255.93 424.98 31.97 42.253-31.97 44.767c-42.2-.01-82.02-10.24-117.11-28.34v-99.16c13.07-6.08 27.44-9.32 42.14-9.32 22.09 21.04 47.51 37.81 74.97 49.8z" fill="#eaf6ff" opacity=".99"/><g opacity=".99"><path d="m256 118.037 12.521 46.87-12.521 23.552h-13.42l-14.041-18.003v-24.712z" fill="#c7e4f9"/><path d="m283.461 145.744v24.712l-14.041 18.003h-13.42v-70.422z" fill="#b4d8ed"/></g><g opacity=".99"><path d="m256 26.783 18.044 59.48-18.044 59.481h-27.461v-118.961z" fill="#fd4755"/><path d="m256 26.783h27.461v118.96h-27.461z" fill="#fb2b3a"/></g><circle cx="161.359" cy="390.411" fill="#fcc015" opacity=".99" r="28.259"/><circle cx="161.359" cy="390.411" fill="#fea613" opacity=".99" r="13.337"/><path d="m426.85 446.64v.01c-35.83 32.13-80.78 54.31-130.5 62.18-13.15 2.09-26.62 3.17-40.35 3.17h-.07v-87.02c16.23 7.08 33.17 12.5 50.57 16.15 17.35 3.64 35.14 5.51 53.12 5.51z" fill="#d8ecfe" opacity=".99"/></g></svg>