<?xml version="1.0" encoding="UTF-8" standalone="no"?>
<!-- Created with Inkscape (http://www.inkscape.org/) -->
<svg xmlns="http://www.w3.org/2000/svg" xmlns:svg="http://www.w3.org/2000/svg" version="1.1" id="svg2238" width="682.66669" height="682.66669" viewBox="0 0 682.66669 682.66669">
  <defs id="defs2242">
    <clipPath clipPathUnits="userSpaceOnUse" id="clipPath2252">
      <path d="M 0,512 H 512 V 0 H 0 Z" id="path2250"/>
    </clipPath>
  </defs>
  <mask id="custom"><rect id="bg" x="0" y="0" width="100%" height="100%" fill="white"/><g transform="matrix(1.3333333,0,0,-1.3333333,0,682.66667)"/></mask><g mask="url(#custom)"><g id="g2244" transform="matrix(1.3333333,0,0,-1.3333333,0,682.66667)">
    <g id="g2246">
      <g id="g2248" clip-path="url(#clipPath2252)">
        <g id="g2254" transform="translate(68.4541,26.0273)">
          <path d="m 0,0 -42.426,42.427 311.451,311.452 42.427,-42.427 z" style="fill:none;stroke:#000000;stroke-width:30;stroke-linecap:butt;stroke-linejoin:miter;stroke-miterlimit:10;stroke-dasharray:none;stroke-opacity:1" id="path2256"/>
        </g>
        <g id="g2258" transform="translate(443.5459,358.6934)">
          <path d="M 0,0 42.426,127.279 -84.853,84.853 -95.46,10.606 -74.246,-10.607 Z" style="fill:none;stroke:#000000;stroke-width:30;stroke-linecap:butt;stroke-linejoin:miter;stroke-miterlimit:10;stroke-dasharray:none;stroke-opacity:1" id="path2260"/>
        </g>
      </g>
    </g>
    <g id="g2262" transform="translate(305.6602,411.7256)">
      <path d="M 0,0 106.065,-106.065" style="fill:none;stroke:#000000;stroke-width:30;stroke-linecap:butt;stroke-linejoin:miter;stroke-miterlimit:10;stroke-dasharray:none;stroke-opacity:1" id="path2264"/>
    </g>
    <g id="g2266" transform="translate(263.2334,369.2998)">
      <path d="M 0,0 106.066,-106.066" style="fill:none;stroke:#000000;stroke-width:30;stroke-linecap:butt;stroke-linejoin:miter;stroke-miterlimit:10;stroke-dasharray:none;stroke-opacity:1" id="path2268"/>
    </g>
    <g id="g2270" transform="translate(252.627,295.0527)">
      <path d="M 0,0 42.426,-42.426" style="fill:none;stroke:#000000;stroke-width:30;stroke-linecap:butt;stroke-linejoin:miter;stroke-miterlimit:10;stroke-dasharray:none;stroke-opacity:1" id="path2272"/>
    </g>
    <g id="g2274" transform="translate(210.2002,252.627)">
      <path d="M 0,0 42.427,-42.427" style="fill:none;stroke:#000000;stroke-width:30;stroke-linecap:butt;stroke-linejoin:miter;stroke-miterlimit:10;stroke-dasharray:none;stroke-opacity:1" id="path2276"/>
    </g>
    <g id="g2278" transform="translate(396.96,396.96)">
      <path d="M 0,0 -31.819,-31.819" style="fill:none;stroke:#000000;stroke-width:30;stroke-linecap:butt;stroke-linejoin:miter;stroke-miterlimit:10;stroke-dasharray:none;stroke-opacity:1" id="path2280"/>
    </g>
  </g></g>
</svg>
