<svg id="Capa_1" enable-background="new 0 0 512 512" height="512" viewBox="0 0 512 512" width="512" xmlns="http://www.w3.org/2000/svg"><g><g opacity=".99"><g><path d="m478.33 129.02c0 109.01-88.37 197.38-197.38 197.38h-49.89c-108.34 0-196.42-87.32-197.37-195.65l-.02-1.73c44.11-77.08 127.16-129.02 222.33-129.02s178.22 51.94 222.33 129.02z" fill="#27a6fe"/></g><path d="m512 256c0 57.11-18.71 109.85-50.32 152.44l-205.68 90.42-205.68-90.42c-31.61-42.59-50.32-95.33-50.32-152.44 0-46.2 12.24-89.55 33.67-126.97 22.69 39.63 55.66 72.6 95.28 95.28 24.53 14.06 51.61 24.17 80.37 29.45 15.14 2.8 30.74 4.26 46.68 4.26 46.24 0 89.62-12.26 127.06-33.71 39.62-22.69 72.59-55.67 95.27-95.29 21.42 37.42 33.67 80.77 33.67 126.98z" fill="#0693fb"/><g><path d="m256.36 425.98 50.345 46.557-50.345 39.463h-.36c-76.15 0-144.53-33.25-191.42-86.02l14.582-21.841 28.488 21.841 31.43-.07 38.736-30.299 36.034 30.299z" fill="#a2e62e"/><path d="m447.42 425.98c-46.82 52.69-115.05 85.91-191.06 86.02v-86.02l46.06-.07 34.795-28.509 38.455 28.509 28.68.07 28.615-18.752z" fill="#8bc618"/></g></g><g><path d="m433.74 425.98h-29.39v-181.76h21.88l21.19 90.88z" fill="#c7e4f9"/><path d="m461.68 408.44c-4.5 6.06-9.25 11.91-14.26 17.54h-13.68l-7.51-181.76h21.88z" fill="#b4d8ed"/><path d="m85.77 244.22 9.127 82.18-16.637 99.58h-13.68c-5.01-5.63-9.76-11.48-14.26-17.54l13.57-164.22z" fill="#c7e4f9"/><path d="m107.65 244.22v181.76h-29.39l7.51-181.76z" fill="#b4d8ed"/><g><path d="m352.14 293.74-13.85 132.17h-35.87l-2.42-202.67 30.645-16.008z" fill="#c7e4f9"/><path d="m330.645 223.24 13.915-22.92-15.83-27.892h-29.332l.604 50.812z" fill="#b4d8ed"/><path d="m375.67 425.91h-37.38l-7.64-202.67v-14.637l29.74 14.637z" fill="#b4d8ed"/><path d="m201.28 299.52-24.82 126.39h-37.38l13.69-181.69 1.58-20.99.01.01 30.63-22.92z" fill="#c7e4f9"/><path d="m184.101 223.24 17.175-20.695-15.26-30.117h-27.83l-3.831 50.812z" fill="#b4d8ed"/><path d="m213.85 223.24v202.67h-37.39l6.85-181.69 1.66-43.88.02-.02z" fill="#b4d8ed"/><path d="m213.846 223.24v-50.812h-27.83l-1.915 50.812z" fill="#a4d3ea" opacity=".99"/><path d="m360.391 223.24-3.831-50.812h-27.83l1.915 50.812z" fill="#a4d3ea" opacity=".99"/><g><path d="m256 131.791 36.63 23.605-36.63 39.405h-116.917v-60.18z" fill="#c7e4f9"/><path d="m373.905 129.695 1.763 65.106h-119.668v-63.01z" fill="#b4d8ed"/></g></g></g></g></svg>