<?xml version="1.0" encoding="iso-8859-1"?>
<!-- Generator: Adobe Illustrator 19.0.0, SVG Export Plug-In . SVG Version: 6.00 Build 0)  -->
<svg version="1.1" id="Layer_1" xmlns="http://www.w3.org/2000/svg" xmlns:xlink="http://www.w3.org/1999/xlink" x="0px" y="0px"
	 viewBox="0 0 512 512" style="enable-background:new 0 0 512 512;" xml:space="preserve">
<circle style="fill:#3CB19C;" cx="256" cy="256" r="256"/>
<path style="fill:#1B8C76;" d="M310.268,79.224l-53.752,138.42l-118.028,211.4l-10.292,12.848l62.184,61.588
	c20.944,5.536,42.932,8.52,65.62,8.52c133.964,0,243.824-102.92,254.996-233.992L310.268,79.224z"/>
<path style="fill:#E77970;" d="M373.512,301.888c-23.508-36.752-67.328-61.464-117.512-61.464s-94.004,24.72-117.512,61.46
	c31.012,19.96,72.24,32.148,117.508,32.148C301.268,334.036,342.5,321.848,373.512,301.888z"/>
<rect x="222.4" y="200.52" style="fill:#F0BA7A;" width="67.156" height="63.148"/>
<rect x="245.717" y="267.956" transform="matrix(-0.7071 0.7071 -0.7071 -0.7071 633.7474 293.9567)" style="fill:#313133;" width="20.552" height="20.552"/>
<g>
	<polygon style="fill:#BD453F;" points="220.984,237.416 256,263.684 239.76,287.232 208.76,249.7 	"/>
	<polygon style="fill:#BD453F;" points="291.016,237.416 256,263.684 272.24,287.232 303.236,249.7 	"/>
</g>
<path style="fill:#C0C3D2;" d="M252.184,454.052c-25.196-27.092-62.752-41.132-89.084-40.72c-3.5-43.264-7.38-91.248-11.712-144.772
	c30.88-0.572,74.952,18.688,104.284,55.548C254.388,371.896,253.236,414.988,252.184,454.052z"/>
<path style="fill:#FFFFFF;" d="M251.536,454.052c26.636-27.092,64.928-41.132,91.24-40.72
	c5.784-43.264,12.212-91.252,19.372-144.772c-30.852-0.572-75.932,18.688-107.232,55.548
	C253.672,371.896,252.548,414.988,251.536,454.052z"/>
<path style="fill:#E7E8D5;" d="M252.16,454.052c-33.268-16.124-69.62-25.58-103.948-27.884c-4.224-42.132-8.9-88.796-14.112-140.78
	c40.22,3.148,82.788,16.08,121.568,38.008C254.376,371.464,253.208,414.792,252.16,454.052z"/>
<path style="fill:#DADCC6;" d="M251.56,454.052c34.12-16.124,70.972-25.58,105.42-27.884c6.448-42.132,13.596-88.796,21.56-140.78
	c-40.388,3.148-83.632,16.08-123.576,38.008C253.712,371.464,252.584,414.792,251.56,454.052z"/>
<g>
	<polygon style="fill:#072F49;" points="255.772,319.248 109.472,297.528 127.796,441.372 252.076,457.084 	"/>
	<polygon style="fill:#072F49;" points="255.076,319.248 402.528,297.528 376.592,441.372 251.48,457.084 	"/>
</g>
<path style="fill:#0E2027;" d="M276.68,108.62c0,0,16.408,44.936,56.504,53.064c0.62-4.688,1.036-9.452,1.036-14.352
	c0-51.04-35.016-92.416-78.22-92.416c-43.2,0-78.22,41.376-78.22,92.416c0,7.172,0.752,14.116,2.068,20.82
	C192.364,167.948,258.44,164.216,276.68,108.62z"/>
<path style="fill:#F7CFA2;" d="M276.68,108.62c-18.24,55.592-84.316,59.328-96.832,59.532c8,40.992,39.024,71.592,76.152,71.592
	c39.064,0,71.332-33.852,77.184-78.064C293.084,153.56,276.68,108.62,276.68,108.62z"/>
<g>
	<path style="fill:#F0BA7A;" d="M109.664,350.98c2.832-6.484,5.536-13.344,12.752-16.084c8.96-3.408,8.872,3.46,8.252,10.084
		c4.588,1.976,3.6,7.344,0.384,10.304c3.796,3.436,1.528,4.608,1.108,8.032c-0.364,3,1.152,6.14,0.604,9.108
		c-1.176,6.344-10.684,4.696-11.376,12.272c-11.844,1.908-12.26-25.048-12.26-33.188"/>
	<path style="fill:#F0BA7A;" d="M402.336,350.98c-2.832-6.484-5.536-13.344-12.752-16.084c-8.96-3.408-8.872,3.46-8.252,10.084
		c-4.588,1.976-3.6,7.344-0.384,10.304c-3.796,3.436-1.528,4.608-1.108,8.032c0.364,3-1.152,6.14-0.604,9.108
		c1.176,6.344,10.684,4.696,11.376,12.272c11.844,1.908,12.26-25.048,12.26-33.188"/>
</g>
<g>
</g>
<g>
</g>
<g>
</g>
<g>
</g>
<g>
</g>
<g>
</g>
<g>
</g>
<g>
</g>
<g>
</g>
<g>
</g>
<g>
</g>
<g>
</g>
<g>
</g>
<g>
</g>
<g>
</g>
</svg>
