<svg id="Capa_1" enable-background="new 0 0 512 512" height="512" viewBox="0 0 512 512" width="512" xmlns="http://www.w3.org/2000/svg"><g><g opacity=".99"><g><path d="m478.33 129.02c0 109.01-88.37 197.38-197.38 197.38h-49.89c-108.34 0-196.42-87.32-197.37-195.65l-.02-1.73c44.11-77.08 127.16-129.02 222.33-129.02s178.22 51.94 222.33 129.02z" fill="#fd4755"/></g><path d="m512 256c0 141.38-114.62 256-256 256-58.68 0-112.74-19.75-155.92-52.95v-47.13h-47.13c-33.2-43.18-52.95-97.24-52.95-155.92 0-46.2 12.24-89.55 33.67-126.97 22.69 39.63 55.66 72.6 95.28 95.28 24.53 14.06 51.61 24.17 80.37 29.45 15.14 2.8 30.74 4.26 46.68 4.26 46.24 0 89.62-12.26 127.06-33.71 39.62-22.69 72.59-55.67 95.27-95.29 21.42 37.42 33.67 80.77 33.67 126.98z" fill="#fb2b3a"/></g><g opacity=".99"><g><path d="m101 387.425-15.936 27.794-21.496 9.638c-3.705-4.229-7.255-8.542-10.635-12.94l29.981-29.981z" fill="#c4573a"/><path d="m112.788 399.212-13.337 33.095-24.47 4.712c-3.96-3.96-7.764-8.018-11.413-12.162l37.432-37.432z" fill="#a74b30"/><path d="m130.064 429.086-29.981 29.981c-8.726-6.703-17.112-14.057-25.102-22.048l37.807-37.807z" fill="#8c3d27"/><path d="m131.196 357.229-10.187 28.409-26.307 8.085-11.788-11.787 36.494-36.494z" fill="#a74b30"/><path d="m142.983 369.017-9.169 32.744-27.325 3.75-11.787-11.788 36.494-36.494z" fill="#8c3d27"/><path d="m110.719 382.381h51.61v33.34h-51.61z" fill="#772f1e" transform="matrix(.707 -.707 .707 .707 -242.185 213.416)"/><g><path d="m402.427 109.573-131.996 178.863-130.361 83.494-41.952-41.952 220.413-220.413z" fill="#eaf6ff"/><path d="m402.435 193.469-220.413 220.413-41.952-41.952 262.357-262.357z" fill="#d8ecfe"/><path d="m329.376 135.758-212.74 212.739 23.433 23.434 115.642-92.209 120.53-143.964z" fill="#d8ecfe"/><path d="m376.242 182.624-212.739 212.74-23.433-23.434 236.172-236.172z" fill="#c7e4f9"/></g><path d="m119.627 329.101.661 23.048-23.048-.661-31.628-31.629 22.386-22.387z" fill="#fcc015"/><path d="m156.142 382.176-27.266.948-31.636-31.636 22.387-22.387 31.636 31.636z" fill="#fea613"/><path d="m155.872 358.828h31.66v89.47h-31.66z" fill="#fb8801" transform="matrix(.707 -.707 .707 .707 -235.071 239.613)"/></g></g><g opacity=".99"><g><g><path d="m274.136 100.428h-1.524c-6.753 0-12.227-5.474-12.227-12.227v-1.524h-8.716v1.524c0 6.753-5.474 12.227-12.227 12.227h-1.525v8.716h1.525c6.753 0 12.227 5.474 12.227 12.227v1.525h8.716v-1.525c0-6.753 5.474-12.227 12.227-12.227h1.524z" fill="#eaeaea"/></g><g><path d="m141.642 117.014h-1.524c-6.753 0-12.227-5.474-12.227-12.227v-1.524h-8.716v1.524c0 6.753-5.474 12.227-12.227 12.227h-1.525v8.716h1.525c6.753 0 12.227 5.474 12.227 12.227v1.525h8.716v-1.525c0-6.753 5.474-12.227 12.227-12.227h1.524z" fill="#eaeaea"/></g><g><path d="m119.52 248.294h-1.524c-6.753 0-12.227-5.474-12.227-12.227v-1.524h-8.716v1.524c0 6.753-5.474 12.227-12.227 12.227h-1.525v8.716h1.525c6.753 0 12.227 5.474 12.227 12.227v1.525h8.716v-1.525c0-6.753 5.474-12.227 12.227-12.227h1.524z" fill="#eaeaea"/></g></g><g><g><path d="m389.105 251.615h1.524c6.753 0 12.227-5.474 12.227-12.227v-1.524h8.716v1.524c0 6.753 5.474 12.227 12.227 12.227h1.525v8.716h-1.525c-6.753 0-12.227 5.474-12.227 12.227v1.525h-8.716v-1.525c0-6.753-5.474-12.227-12.227-12.227h-1.524z" fill="#eaeaea"/></g><g><path d="m372.519 384.109h1.524c6.753 0 12.227-5.474 12.227-12.227v-1.524h8.716v1.524c0 6.753 5.474 12.227 12.227 12.227h1.525v8.716h-1.525c-6.753 0-12.227 5.474-12.227 12.227v1.525h-8.716v-1.525c0-6.753-5.474-12.227-12.227-12.227h-1.524z" fill="#eaeaea"/></g><g><path d="m241.239 406.231h1.524c6.753 0 12.227-5.474 12.227-12.227v-1.524h8.716v1.524c0 6.753 5.474 12.227 12.227 12.227h1.525v8.716h-1.525c-6.753 0-12.227 5.474-12.227 12.227v1.525h-8.716v-1.525c0-6.753-5.474-12.227-12.227-12.227h-1.524z" fill="#eaeaea"/></g></g></g></g></svg>