<svg id="Capa_1" enable-background="new 0 0 512 512" height="512" viewBox="0 0 512 512" width="512" xmlns="http://www.w3.org/2000/svg"><g><g opacity=".99"><g><path d="m478.33 129.02c0 109.01-88.37 197.38-197.38 197.38h-49.89c-108.34 0-196.42-87.32-197.37-195.65l-.02-1.73c44.11-77.08 127.16-129.02 222.33-129.02s178.22 51.94 222.33 129.02z" fill="#fea613"/></g><path d="m512 256c0 77.54-34.48 147.04-88.95 193.98l-167.05 36.828-167.05-36.828c-54.47-46.94-88.95-116.44-88.95-193.98 0-46.2 12.24-89.55 33.67-126.97 22.69 39.63 55.66 72.6 95.28 95.28 24.53 14.06 51.61 24.17 80.37 29.45 15.14 2.8 30.74 4.26 46.68 4.26 46.24 0 89.62-12.26 127.06-33.71 39.62-22.69 72.59-55.67 95.27-95.29 21.42 37.42 33.67 80.77 33.67 126.98z" fill="#fb8801"/><path d="m167.83 449.98 22.962 23.215-22.962 23.215c-29.15-10.7-55.81-26.54-78.88-46.43z" fill="#eaf6ff"/></g><g><path d="m245.05 35.41 7.132 40.389-7.132 57.261h-10.46v-97.65z" fill="#eaf6ff"/><path d="m256 35.41 18.39 45.81-18.39 51.84h-10.95v-97.65z" fill="#d8ecfe"/><path d="m256 35.41h21.41v97.65h-21.41z" fill="#c7e4f9"/><path d="m237.61 109.69 10.037 19.33-10.037 27.4h-18.39v-46.73z" fill="#d8ecfe"/><path d="m256 109.69 14.215 23.365-14.215 23.365h-18.39v-46.73z" fill="#c7e4f9"/><path d="m256 109.69h36.78v46.73h-36.78z" fill="#a4d3ea" opacity=".99"/><path d="m230.94 141.98 19.274 33.676-39.351 245.884-78.893-28.44v-101.88c0-3.89.18-7.74.54-11.54 4.21-45.67 33.19-84.16 73.38-101.93v-35.77z" fill="#eaf6ff"/><path d="m256 141.98 45.142 139.78-45.142 111.34-31.01 28.44-31.01-16.11v-114.21c0-3.89.09-7.74.27-11.54 2.1-45.67 16.59-84.16 36.69-101.93v-35.77z" fill="#d8ecfe"/><path d="m380.02 291.22v101.88l-64.72 28.44-59.3-28.44v-251.12h50.11v35.78c40.18 17.76 69.16 56.25 73.37 101.91.36 3.8.54 7.66.54 11.55z" fill="#c7e4f9"/><path d="m256 449.98 31.197 27.948-31.197 34.072c-30.99 0-60.69-5.5-88.17-15.59v-46.43z" fill="#d8ecfe"/><g><path d="m200.86 234.37 1.56 10.005-6.34 14.785-13.64 13.64-28.43-28.43 28.43-28.42z" fill="#d8ecfe"/><path d="m235.897 224.27h40.207v40.207h-40.207z" fill="#c7e4f9" transform="matrix(.707 -.707 .707 .707 -97.817 252.595)"/><g><path d="m204.079 274.862h40.203v40.203h-40.203z" fill="#c7e4f9" transform="matrix(.707 -.707 .707 .707 -142.91 244.912)"/><path d="m267.719 274.862h40.203v40.203h-40.203z" fill="#a4d3ea" opacity=".99" transform="matrix(.707 -.707 .707 .707 -124.27 289.912)"/></g><path d="m380.027 291.225v18.494l-13.677 13.677-28.418-28.43 28.418-28.431 13.132 13.132c.364 3.8.545 7.661.545 11.558z" fill="#a4d3ea" opacity=".99"/><path d="m174.079 294.965-28.431 28.43-13.677-13.677v-18.494c0-3.897.182-7.746.545-11.547l13.132-13.144z" fill="#d8ecfe"/><path d="m309.469 224.274h40.203v40.203h-40.203z" fill="#a4d3ea" opacity=".99" transform="matrix(.707 -.707 .707 .707 -76.27 304.617)"/><path d="m193.98 330.39 6.88 15.385-6.88 18.395-11.54 11.54-28.43-28.43 28.43-28.43z" fill="#d8ecfe"/><path d="m284.431 347.287-28.431 28.419-28.43-28.419 28.43-28.43z" fill="#c7e4f9"/><path d="m309.469 327.18h40.202v40.202h-40.202z" fill="#a4d3ea" opacity=".99" transform="matrix(.707 -.707 .707 .707 -149.036 334.758)"/></g><path d="m256 318.857 28.431 28.43-28.431 28.419z" fill="#a4d3ea" opacity=".99"/><path d="m284.431 244.373-28.431 28.431v-56.861z" fill="#a4d3ea" opacity=".99"/><path d="m423.05 449.98c-44.83 38.65-103.21 62.02-167.05 62.02v-62.02z" fill="#c7e4f9"/></g><path d="m193.98 393.1-13.64 56.88h-75.65v-29.6l27.28-27.28z" fill="#d8ecfe"/><path d="m256 393.1 31.197 28.44-31.197 28.44h-75.66v-29.6l13.64-27.28z" fill="#c7e4f9"/><path d="m407.303 420.379v29.604h-151.303v-56.885h124.022z" fill="#a4d3ea" opacity=".99"/><g fill="#c7e4f9"><path d="m210.86 347.28-16.88 16.89v-33.78z"/><path d="m210.86 244.37-14.78 14.79c1.15-8.68 2.77-16.98 4.78-24.79z"/></g></g></svg>