<svg id="Capa_1" enable-background="new 0 0 512 512" height="512" viewBox="0 0 512 512" width="512" xmlns="http://www.w3.org/2000/svg"><g><g><path d="m478.32 129.01v3.453c0 99.006-80.261 179.267-179.267 179.267h-86.139c-100.358 0-181.167-82.381-179.234-182.72 44.11-77.07 127.15-129.01 222.32-129.01s178.21 51.94 222.32 129.01z" fill="#4eacf9"/><g><path d="m512 256c0 77.51-34.45 146.97-88.87 193.92h-334.26c-54.42-46.95-88.87-116.41-88.87-193.92 0-46.21 12.25-89.56 33.67-126.99h.01c4.65 8.12 9.73 15.97 15.22 23.5 25.06 34.43 58.49 62.38 97.32 80.83 33.21 15.8 70.35 24.64 109.56 24.68h.22c39.3 0 76.52-8.85 109.79-24.68 39.06-18.57 72.67-46.76 97.78-81.49v-.01c5.31-7.33 10.23-14.94 14.75-22.83.02.03.03.06.05.08 21.4 37.41 33.63 80.73 33.63 126.91z" fill="#39f"/></g><path d="m311.43 446.72-55.44 65.28c-63.87 0-122.27-23.4-167.12-62.08 24.45-31.46 57.58-55.83 95.81-69.52l71.31 31.52z" fill="#ffb612"/><path d="m423.13 449.92c-44.85 38.68-103.26 62.08-167.13 62.08h-.01v-100.08l71.31-31.52c38.23 13.68 71.38 38.05 95.83 69.52z" fill="#ff9c1a"/><path d="m393.12 241.99h-274.26s.01-64.18.04-65.19c1.2-53.71 45.85-96.29 99.58-96.29h75.02c53.73 0 98.38 42.58 99.58 96.29.03 1.01.04 65.19.04 65.19z" fill="#474e6f"/><path d="m393.12 241.99h-137.13v-161.48h37.51c53.73 0 98.38 42.58 99.58 96.29.03 1.01.04 65.19.04 65.19z" fill="#3a415e"/></g><path d="m255.99 432.86-61.82 33.89-9.49-86.35c9.98-3.57 20.32-6.42 30.93-8.47h40.39z" fill="#fff"/><path d="m327.3 380.4-9.49 86.35-61.82-33.89.01-60.93h40.37.01c10.61 2.05 20.94 4.89 30.92 8.47z" fill="#e4ebf8"/><path d="m171.59 445.8c0-7.307-5.923-13.23-13.23-13.23 0-7.307-5.923-13.23-13.23-13.23s-13.23 5.923-13.23 13.23c-7.307 0-13.23 5.923-13.23 13.23s5.923 13.23 13.23 13.23c0 7.307 5.923 13.23 13.23 13.23s13.23-5.923 13.23-13.23c7.307 0 13.23-5.923 13.23-13.23z" fill="#f44545"/><path d="m393.33 445.8c0-7.307-5.923-13.23-13.23-13.23 0-7.307-5.923-13.23-13.23-13.23s-13.23 5.923-13.23 13.23c-7.307 0-13.23 5.923-13.23 13.23s5.923 13.23 13.23 13.23c0 7.307 5.923 13.23 13.23 13.23s13.23-5.923 13.23-13.23c7.307 0 13.23-5.923 13.23-13.23z" fill="#f44545"/><g fill="#f44545"><path d="m245.044 481.468c0-5.822-4.719-10.541-10.541-10.541 0-5.822-4.719-10.541-10.541-10.541s-10.541 4.719-10.541 10.541c-5.822 0-10.541 4.719-10.541 10.541s4.719 10.541 10.541 10.541c0 5.822 4.719 10.541 10.541 10.541s10.541-4.719 10.541-10.541c5.822 0 10.541-4.719 10.541-10.541z"/><path d="m309.119 481.468c0-5.822-4.719-10.541-10.541-10.541 0-5.822-4.719-10.541-10.541-10.541s-10.541 4.719-10.541 10.541c-5.822 0-10.541 4.719-10.541 10.541s4.719 10.541 10.541 10.541c0 5.822 4.719 10.541 10.541 10.541s10.541-4.719 10.541-10.541c5.822 0 10.541-4.719 10.541-10.541z"/></g><g fill="#ffb612"><ellipse cx="144.628" cy="445.191" rx="7.82" ry="7.82" transform="matrix(.16 -.987 .987 .16 -317.982 516.64)"/><circle cx="223.963" cy="481.468" r="7.82"/><circle cx="288.037" cy="481.468" r="7.82"/><ellipse cx="366.87" cy="445.8" rx="7.82" ry="7.82" transform="matrix(.924 -.383 .383 .924 -142.674 174.33)"/></g><g><g><g><g><path d="m277.89 392.39-21.9 40.47-39.36-60.31v-25.47h39.36z" fill="#f68157"/><path d="m295.37 347.08v25.48l-.01-.01-39.37 60.31v-85.78z" fill="#ef5b2e"/></g><g><g><g><path d="m121.959 222.129c-15.665 0-28.364 12.699-28.364 28.364 0 28.533 23.131 51.664 51.664 51.664h22l-22.129-59.809-17.9-20.281z" fill="#f68157"/><path d="m390.169 222.201c15.665 0 28.364 12.699 28.364 28.364 0 28.533-23.131 51.664-51.664 51.664h-16.129l16.783-64.26 16.207-15.829z" fill="#ef5b2e"/></g><g><path d="m283.29 276.91-27.3 103.22h-.02c-61.2-.01-110.84-49.66-110.84-110.88 0 0 0-14.87.01-35.63 44.26-3.28 83.57-24.31 110.85-56.01 2.65 3.08 5.4 6.05 8.27 8.91z" fill="#ffa68a"/><path d="m366.87 233.62v35.63c0 61.22-49.62 110.87-110.86 110.88-.01 0-.02 0-.02 0v-202.52c2.65 3.08 5.4 6.05 8.27 8.91 26.69 26.71 62.63 44.15 102.61 47.1z" fill="#f68157"/></g></g></g></g></g><g><path d="m255.983 242.348 7.264 28.746-7.264 26.068c-6.092-.012-11.03-4.961-11.03-11.03v-32.732c0-6.091 4.938-11.04 11.03-11.052z" fill="#f68157"/><path d="m267.047 253.401v32.732c0 6.08-4.95 11.03-11.041 11.03-.012 0-.012 0-.023 0v-54.814h.023c6.092-.001 11.041 4.949 11.041 11.052z" fill="#ef5b2e"/></g></g><g><path d="m255.99 324.47c-6.11.06-12.24-1.34-17.76-4.31-1.939-1.042-3.802-2.274-5.546-3.66l-11.752 14.947c2.586 2.046 5.354 3.864 8.288 5.443 8.37 4.51 17.52 6.68 26.59 6.68h.18l7.257-9.361z" fill="#f68157"/><path d="m279.251 316.455c-6.638 5.166-14.932 7.938-23.261 8.015v19.1c12.53-.039 24.918-4.222 34.966-12.116z" fill="#ef5b2e"/></g><g><g><path d="m255.99 228.63 11.057 11.282-11.057 6.948c-4.08 0-7.53 2.98-8.15 7l-1.96 12.7c-2.07 13.45-13.64 23.37-27.24 23.37h-24.88c-13.61 0-25.18-9.92-27.25-23.37l-3.74-24.28h-35.54v-20.21h103.73c3.69 0 7.1 1.06 9.97 2.87 4 2.54 8.72 3.69 13.45 3.69z" fill="#6c717f"/><path d="m383.73 222.07v20.21h-34.5l-3.74 24.28c-2.07 13.45-13.64 23.37-27.25 23.37h-24.88c-13.6 0-25.17-9.92-27.24-23.37l-1.96-12.7c-.31-2.01-1.33-3.76-2.78-5.01-1.46-1.25-3.34-1.99-5.38-1.99h-.01v-18.23h1.63c4.73 0 9.45-1.15 13.45-3.69 2.87-1.81 6.28-2.87 9.97-2.87z" fill="#474e6f"/><path d="m187.134 234.067c-7.09 0-12.512 6.32-11.433 13.327l2.668 17.338c1.177 7.648 7.648 13.2 15.387 13.2h24.88c7.684 0 14.219-5.606 15.388-13.201l3.535-22.969c.406-2.641-.785-4.495-1.531-5.365-.747-.87-2.398-2.33-5.069-2.33z" fill="#474e6f"/><path d="m281.042 234.067c-2.671 0-4.322 1.46-5.069 2.33-.746.87-1.938 2.725-1.531 5.365l3.535 22.969c1.169 7.595 7.704 13.201 15.388 13.201h24.88c7.738 0 14.21-5.552 15.387-13.2l2.668-17.338c1.079-7.007-4.343-13.327-11.433-13.327z" fill="#3a415e"/></g></g></g></svg>