<svg id="Capa_1" enable-background="new 0 0 512 512" height="512" viewBox="0 0 512 512" width="512" xmlns="http://www.w3.org/2000/svg"><g><g><path d="m478.33 129.02c0 109.01-88.37 197.38-197.38 197.38h-49.89c-108.34 0-196.42-87.32-197.37-195.65l-.02-1.73c44.11-77.08 127.16-129.02 222.33-129.02s178.22 51.94 222.33 129.02z" fill="#fd4755"/></g><path d="m512 256c0 65.23-24.41 124.77-64.58 169.98l-191.06 70.6-191.78-70.6c-40.17-45.21-64.58-104.75-64.58-169.98 0-46.2 12.24-89.55 33.66-126.97h.01c22.69 39.63 55.66 72.6 95.28 95.28 24.53 14.06 51.61 24.17 80.37 29.45 15.14 2.8 30.74 4.26 46.68 4.26 46.24 0 89.62-12.26 127.06-33.71 39.62-22.69 72.59-55.67 95.27-95.29 21.42 37.42 33.67 80.77 33.67 126.98z" fill="#fb2b3a"/><path d="m306.705 472.537-50.345 39.463h-.36c-76.15 0-144.53-33.25-191.42-86.02h191.78z" fill="#a2e62e"/><path d="m447.42 425.98c-46.82 52.69-115.05 85.91-191.06 86.02v-86.02z" fill="#8bc618"/><g><ellipse cx="75.853" cy="209.208" fill="#c4573a" opacity=".99" rx="44.044" ry="44.044" transform="matrix(.098 -.995 .995 .098 -139.765 264.26)"/><ellipse cx="75.853" cy="209.208" fill="#a74b30" opacity=".99" rx="22.022" ry="44.044"/><path d="m119.897 209.208c0 24.327-19.718 44.044-44.044 44.044v-88.089c24.326.001 44.044 19.722 44.044 44.045z" fill="#8c3d27" opacity=".99"/><path d="m61.147 209.208h352.59v36.662h-352.59z" fill="#56201c"/><path d="m61.147 227.541h352.59v18.329h-352.59z" fill="#3f120c"/><g><path d="m138.272 320.062h145.94v18.33h-145.94z" fill="#3f120c" transform="matrix(.707 -.707 .707 .707 -170.926 245.792)"/><path d="m292.309 256.258h18.332v145.937h-18.332z" fill="#280907" transform="matrix(.707 -.707 .707 .707 -144.496 309.536)"/></g><path d="m359.096 227.54c0 34.449 27.927 62.376 62.376 62.376l40.177-62.375-40.177-62.378c-34.449.001-62.376 27.927-62.376 62.377z" fill="#fff"/><path d="m390.284 227.54c0 34.449 13.963 62.376 31.188 62.376l46.766-62.376-46.766-62.376c-17.225 0-31.188 27.926-31.188 62.376z" fill="#d8ecfe"/><g><path d="m142.109 209.208c0 36.594-29.662 66.256-66.256 66.256s-66.256-29.662-66.256-66.256z" fill="#662d2d"/><path d="m104.876 209.208c0 36.594-12.993 66.256-29.023 66.256s-29.023-29.662-29.023-66.256z" fill="#56201c"/><path d="m142.109 209.208c0 36.594-29.662 66.256-66.256 66.256v-66.256z" fill="#3f120c"/></g><g><path d="m238.027 178.568h36.662v203.37h-36.662z" fill="#56201c"/><path d="m256.36 178.568h18.329v203.37h-18.329z" fill="#3f120c"/></g><g><path d="m135.289 363.605h242.138v36.662h-242.138z" fill="#3f120c"/></g><g><ellipse cx="135.287" cy="381.936" fill="#a4d3ea" opacity=".99" rx="44.044" ry="44.044" transform="matrix(.707 -.707 .707 .707 -230.445 207.529)"/><ellipse cx="135.287" cy="381.936" fill="#fff" rx="18.331" ry="18.331" transform="matrix(.161 -.987 .987 .161 -263.455 453.926)"/></g><path d="m256.36 363.605h121.067v36.662h-121.067z" fill="#280907"/><ellipse cx="377.428" cy="381.936" fill="#8ec6dd" opacity=".99" rx="44.044" ry="44.044" transform="matrix(.707 -.707 .707 .707 -159.524 378.749)"/><g fill="#b4d8ed"><ellipse cx="377.428" cy="381.936" rx="18.331" ry="18.331" transform="matrix(.707 -.707 .707 .707 -159.524 378.749)"/><path d="m421.472 165.164v124.752c34.449 0 62.376-27.927 62.376-62.376 0-34.45-27.927-62.376-62.376-62.376z"/></g></g></g></svg>