<?xml version="1.0" encoding="UTF-8" standalone="no"?>
<!-- Created with Inkscape (http://www.inkscape.org/) -->
<svg xmlns="http://www.w3.org/2000/svg" xmlns:svg="http://www.w3.org/2000/svg" version="1.1" id="svg684" width="682.66669" height="682.66669" viewBox="0 0 682.66669 682.66669">
  <defs id="defs688">
    <clipPath clipPathUnits="userSpaceOnUse" id="clipPath702">
      <path d="M 0,512 H 512 V 0 H 0 Z" id="path700"/>
    </clipPath>
  </defs>
  <mask id="custom"><rect id="bg" x="0" y="0" width="100%" height="100%" fill="white"/><g transform="matrix(1.3333333,0,0,-1.3333333,0,682.66667)"/></mask><g mask="url(#custom)"><g id="g690" transform="matrix(1.3333333,0,0,-1.3333333,0,682.66667)">
    <g id="g692" transform="translate(331,333.4785)">
      <path d="M 0,0 V 102.521 H -150 V 0" style="fill:none;stroke:#000000;stroke-width:30;stroke-linecap:butt;stroke-linejoin:miter;stroke-miterlimit:10;stroke-dasharray:none;stroke-opacity:1" id="path694"/>
    </g>
    <g id="g696">
      <g id="g698" clip-path="url(#clipPath702)">
        <g id="g704" transform="translate(361,496)">
          <path d="m 0,0 h -210 l 30,-60 h 150 z" style="fill:none;stroke:#000000;stroke-width:30;stroke-linecap:butt;stroke-linejoin:miter;stroke-miterlimit:10;stroke-dasharray:none;stroke-opacity:1" id="path706"/>
        </g>
        <g id="g708" transform="translate(355.9585,169.1743)">
          <path d="m 0,0 85.969,126.088 c 14.134,20.73 11.522,48.582 -6.219,66.323 -20.387,20.387 -53.441,20.387 -73.829,0 l -29.388,-29.389" style="fill:none;stroke:#000000;stroke-width:30;stroke-linecap:butt;stroke-linejoin:miter;stroke-miterlimit:10;stroke-dasharray:none;stroke-opacity:1" id="path710"/>
        </g>
        <g id="g712" transform="translate(156.0415,169.1743)">
          <path d="m 0,0 -85.969,126.088 c -14.134,20.73 -11.522,48.582 6.219,66.323 v 0 c 20.387,20.387 53.441,20.387 73.829,0 l 29.388,-29.389" style="fill:none;stroke:#000000;stroke-width:30;stroke-linecap:butt;stroke-linejoin:miter;stroke-miterlimit:10;stroke-dasharray:none;stroke-opacity:1" id="path714"/>
        </g>
        <g id="g716" transform="translate(316,16)">
          <path d="m 0,0 h -120 l -52.137,199.857 C -191.292,273.283 -135.883,345 -60,345 15.883,345 71.291,273.283 52.137,199.857 Z" style="fill:none;stroke:#000000;stroke-width:30;stroke-linecap:butt;stroke-linejoin:miter;stroke-miterlimit:10;stroke-dasharray:none;stroke-opacity:1" id="path718"/>
        </g>
        <g id="g720" transform="translate(136,281)">
          <path d="M 0,0 39.997,-20 79.995,0 119.994,-20 159.993,0 199.996,-20 240,0" style="fill:none;stroke:#000000;stroke-width:30;stroke-linecap:butt;stroke-linejoin:miter;stroke-miterlimit:10;stroke-dasharray:none;stroke-opacity:1" id="path722"/>
        </g>
        <g id="g724" transform="translate(166,136)">
          <path d="M 0,0 H 180" style="fill:none;stroke:#000000;stroke-width:30;stroke-linecap:butt;stroke-linejoin:miter;stroke-miterlimit:10;stroke-dasharray:none;stroke-opacity:1" id="path726"/>
        </g>
        <g id="g728" transform="translate(181,76)">
          <path d="M 0,0 H 150" style="fill:none;stroke:#000000;stroke-width:30;stroke-linecap:butt;stroke-linejoin:miter;stroke-miterlimit:10;stroke-dasharray:none;stroke-opacity:1" id="path730"/>
        </g>
        <g id="g732" transform="translate(256,136)">
          <path d="M 0,0 V -60" style="fill:none;stroke:#000000;stroke-width:30;stroke-linecap:butt;stroke-linejoin:miter;stroke-miterlimit:10;stroke-dasharray:none;stroke-opacity:1" id="path734"/>
        </g>
        <g id="g736" transform="translate(211,189.7866)">
          <path d="M 0,0 21.213,21.213" style="fill:none;stroke:#000000;stroke-width:30;stroke-linecap:butt;stroke-linejoin:miter;stroke-miterlimit:10;stroke-dasharray:none;stroke-opacity:1" id="path738"/>
        </g>
        <g id="g740" transform="translate(279.7866,189.7866)">
          <path d="M 0,0 21.213,21.213" style="fill:none;stroke:#000000;stroke-width:30;stroke-linecap:butt;stroke-linejoin:miter;stroke-miterlimit:10;stroke-dasharray:none;stroke-opacity:1" id="path742"/>
        </g>
      </g>
    </g>
  </g></g>
</svg>
