<svg id="Capa_1" enable-background="new 0 0 512 512" height="512" viewBox="0 0 512 512" width="512" xmlns="http://www.w3.org/2000/svg"><g opacity=".99"><g><g><path d="m478.33 129.02c0 109.01-88.37 197.38-197.38 197.38h-49.89c-108.34 0-196.42-87.32-197.37-195.65l-.02-1.73c44.11-77.08 127.16-129.02 222.33-129.02s178.22 51.94 222.33 129.02z" fill="#27a6fe"/></g><path d="m512 256c0 75.73-32.88 143.77-85.15 190.65h-341.7c-52.27-46.88-85.15-114.92-85.15-190.65 0-46.2 12.24-89.55 33.67-126.97 22.69 39.63 55.66 72.6 95.28 95.28 24.53 14.06 51.61 24.17 80.37 29.45 15.14 2.8 30.74 4.26 46.68 4.26 46.24 0 89.62-12.26 127.06-33.71 39.62-22.69 72.59-55.67 95.27-95.29 21.42 37.42 33.67 80.77 33.67 126.98z" fill="#0693fb"/><path d="m255.93 297.63 30.379 60.652-30.379 74.218h-62.66v-134.87z" fill="#f89580"/><g><path d="m255.93 297.63h62.8v134.87h-62.8z" fill="#f47c69"/></g><path d="m315.46 453.46-59.53 25.51-125.86-.04c-16.15-9.13-31.2-19.98-44.92-32.28.98-3.31 2.14-6.57 3.46-9.76 4.97-12.01 12.29-23.05 21.67-32.43 18.74-18.75 44.17-29.28 70.68-29.28h74.97z" fill="#ffa78f"/><path d="m426.85 446.65c-13.74 12.32-28.83 23.19-45.02 32.34h-.01l-125.89-.03v-103.78h75.11c13.26 0 26.24 2.63 38.25 7.61 12.02 4.97 23.06 12.29 32.43 21.67 11.86 11.86 20.44 26.4 25.13 42.19z" fill="#f89580"/><path d="m255.93 458.16 34.192 31.106-34.192 22.734c-45.74-.01-88.69-12.03-125.86-33.07l-33.09-87.78c19.43-15.35 43.39-24.13 68.32-24.89l71.62 72.61z" fill="#662d2d"/><g><g><g><path d="m204.516 164.163v25.187h-58.362c-39.934 0-73.333-32.674-73.036-72.607.152-20.531 8.891-39.018 22.798-52.043-5.285 8.003-7.786 17.525-7.117 27.092.828 11.825 4.567 23.261 10.886 33.291 6.017 9.55 14.501 17.298 24.558 22.424l6.107 3.113c8.025 4.09 16.634 6.918 25.521 8.383z" fill="#662d2d"/><path d="m204.516 138.49v25.673h-62.15c-14.86 0-28.43-6.32-38.78-16.3-17.11-16.5-22.88-37.473-17.53-60.643 1.84-7.94 4.52-14.05 9.86-22.52-2.62 6.3-4.07 13.21-4.07 20.46 0 29.45 23.88 53.33 53.33 53.33z" fill="#56201c"/></g></g><g><g><path d="m307.484 164.163v25.187h58.362c39.934 0 73.333-32.674 73.036-72.607-.153-20.532-8.891-39.019-22.798-52.043 5.285 8.003 7.786 17.525 7.117 27.092-.828 11.825-4.567 23.261-10.886 33.291-6.016 9.55-14.501 17.298-24.558 22.424l-6.107 3.113c-8.025 4.09-16.634 6.918-25.521 8.383z" fill="#56201c"/><path d="m307.484 138.49v25.673h62.15c14.86 0 28.43-6.32 38.78-16.3 17.11-16.5 22.88-37.473 17.53-60.643-1.84-7.94-4.52-14.05-9.86-22.52 2.62 6.3 4.07 13.21 4.07 20.46 0 29.45-23.88 53.33-53.33 53.33z" fill="#662d2d"/></g></g></g></g><g><g><g><g><g><g><g><path d="m255.93 163.2 28.143 81.984-28.143 105.016c-21.71-.07-42.31-6.47-59.28-17.46-.126-.081-.252-.163-.377-.245-19.699-12.857-31.353-34.997-31.353-58.521v-55.094c0-4.122 3.375-7.439 7.497-7.46 1.676-.008 3.222-.587 4.473-1.56 1.26-.98 2.21-2.36 2.69-3.99 2.4-8.14 9.93-14.09 18.85-14.09 9.26 0 18.33-1.84 26.73-5.32 8.39-3.48 16.1-8.59 22.65-15.14z" fill="#ffa78f"/><path d="m344.76 213.6c1.34 1.36 2.18 3.22 2.18 5.28v54.978c0 23.62-11.725 45.845-31.53 58.717-.126.082-.253.164-.38.246-17.05 10.98-37.35 17.36-59.1 17.38v-187l8.12 8.12c13.09 13.1 30.86 20.46 49.38 20.46 4.46 0 8.57 1.49 11.87 3.99 3.3 2.51 5.78 6.03 6.98 10.1.95 3.25 3.82 5.55 7.2 5.55 2.06-.001 3.92.839 5.28 2.179z" fill="#f89580"/><path d="m255.941 272.037 31.657 61.318-31.657 61.318c-13.977-.025-26.739-8.123-32.584-20.826-3.247-7.077-8.115-13.428-14.23-18.582-6.36-5.365-10.392-13.386-10.392-22.353v-11.176c0-27.448 22.243-49.699 49.691-49.699z" fill="#662d2d"/><path d="m313.265 321.736v11.176c0 8.966-4.032 16.988-10.392 22.353-6.115 5.154-10.982 11.505-14.23 18.582-2.927 6.36-7.591 11.564-13.268 15.183s-12.374 5.643-19.375 5.643h-.059v-122.636h7.634c27.447 0 49.69 22.251 49.69 49.699z" fill="#56201c"/><path d="" fill="#662d2d"/></g></g></g></g></g></g><path d="m255.934 235.26 5.87 20.74-5.87 21.75c-6.44-.03-11.75-5.26-11.72-11.69l.16-19.2c.019-6.39 5.179-11.55 11.56-11.6z" fill="#f89580"/><path d="m255.934 235.26v42.49c6.44-.03 11.75-5.26 11.72-11.69l-.16-19.2c-.02-6.39-5.18-11.55-11.56-11.6z" fill="#f47c69"/><path d="m235.016 238.295c-.025 7.43-6.069 13.433-13.499 13.408s-13.433-6.069-13.408-13.499 6.069-13.433 13.499-13.408c7.431.025 13.434 6.069 13.408 13.499z" fill="#56201c"/><ellipse cx="290.121" cy="238.482" fill="#3f120c" rx="13.453" ry="13.453" transform="matrix(.472 -.882 .882 .472 -57.106 381.581)"/><path d="m255.97 295.69 12.73 11.72-12.73 11.72h-20.15c-6.47 0-11.72-5.25-11.72-11.72 0-3.24 1.31-6.17 3.43-8.29 2.13-2.12 5.05-3.43 8.29-3.43z" fill="#f89580"/><path d="m287.9 307.41c0 6.47-5.25 11.72-11.72 11.72h-20.21v-23.44h20.21c6.47 0 11.72 5.24 11.72 11.72z" fill="#f47c69"/></g><g><path d="m256 94.65-54.43 117.55h-18.9v130.01c-10.8-4.9-21.02-10.84-30.53-17.71v-125.99c0-22.71 7.29-43.72 19.66-60.81 18.87-26.08 49.55-43.05 84.2-43.05z" fill="#fff"/><path d="m268.7 184.56-12.7 102.65-15.215-18.92v-56.09h-39.215v-13.69c0-22.71 3.83-43.72 10.31-60.81 9.88-26.08 25.97-43.05 44.12-43.05z" fill="#eaf6ff"/><g><path d="m359.86 198.51v125.99c-9.51 6.87-19.73 12.81-30.53 17.71v-130.01h-57.413v56.09l-15.917 18.92v-192.56c34.65 0 65.33 16.97 84.2 43.05 12.37 17.09 19.66 38.1 19.66 60.81z" fill="#d8ecfe"/></g></g><path d="m414.96 391.1-33.13 87.89c-37.16 21.01-80.1 33.01-125.83 33.01h-.07v-53.84l.05.05 19.06-19.34 71.61-72.61c14.17.42 28.01 3.43 40.9 8.77 9.79 4.05 19.02 9.44 27.41 16.07z" fill="#56201c"/></g></svg>